SplineFontDB: 3.0
FontName: Evolventa-Regular
FullName: Evolventa
FamilyName: Evolventa
Weight: Regular
Copyright: Copyright (c) 2016 by Alex I. Kuznetsov.\n\nThis font is free software. You are allowed to distribute and/or modify it under the terms of either (or both) of the following two licenses (your choice):\n\n1) GNU General Public License version 2 (https://gnu.org/licenses/old-licenses/gpl-2.0.txt)\n2) The LaTeX Project Public License version 1.3c or (at your option) any later version (http://www.latex-project.org/lppl.txt)\n\nContains work kindly released to the open source community by URW++ Design and Development GmbH as "URW Gothic L" (version 001.005) with the following copyright notice: Copyright URW Software, Copyright 1996 by URW.\n\nOriginal URW fonts can be obtained at the Evolventa website (https://evolventa.github.io).\n
Version: 1.0
ItalicAngle: 0
UnderlinePosition: -96
UnderlineWidth: 58
Ascent: 800
Descent: 200
InvalidEm: 0
LayerCount: 2
Layer: 0 0 "+BBcEMAQ0BD0EOAQ5 +BD8EOwQwBD0A" 1
Layer: 1 0 "+BB8ENQRABDUENAQ9BDgEOQAA +BD8EOwQwBD0A" 0
PreferredKerning: 4
UniqueID: 5019553
FSType: 0
OS2Version: 0
OS2_WeightWidthSlopeOnly: 1
OS2_UseTypoMetrics: 1
CreationTime: 832050856
ModificationTime: 1494618523
PfmFamily: 33
TTFWeight: 400
TTFWidth: 5
LineGap: 0
VLineGap: 0
Panose: 2 11 5 2 2 2 2 2 2 4
OS2TypoAscent: 800
OS2TypoAOffset: 0
OS2TypoDescent: -200
OS2TypoDOffset: 0
OS2TypoLinegap: 330
OS2WinAscent: 1060
OS2WinAOffset: 0
OS2WinDescent: 270
OS2WinDOffset: 0
HheadAscent: 1060
HheadAOffset: 0
HheadDescent: -270
HheadDOffset: 0
OS2CapHeight: 739
OS2XHeight: 547
OS2FamilyClass: 2052
OS2Vendor: 'PfEd'
Lookup: 1 0 0 "'locl' Localized Forms in Cyrillic lookup 8" { "'locl' Localized Forms in Cyrillic lookup 8-1" ("loclBGR") } ['locl' ('cyrl' <'BGR ' > ) ]
Lookup: 1 0 0 "'locl' Localized Forms in Cyrillic lookup 7" { "'locl' Localized Forms in Cyrillic lookup 7-1" ("loclBGR") } ['locl' ('cyrl' <'BGR ' > ) ]

StartChar: Adieresis
Encoding: 256 196 0
GlifName: A_dieresis
Width: 740
Flags: MW
HStem: 0 21G 249 67<225 512 225 541 197 512> 719 20G<328 411 411 411> 805 126<260 334 260 334 260 407 407 481>
AnchorPoint: "Top" 370 987 basechar 0
LayerCount: 2
Fore
SplineSet
11 0 m 1
 11 0 328 739 328 739 c 1
 328 739 411 739 411 739 c 1
 411 739 729 0 729 0 c 1
 729 0 648 0 648 0 c 1
 648 0 541 249 541 249 c 1
 541 249 197 249 197 249 c 1
 197 249 89 0 89 0 c 1
 89 0 11 0 11 0 c 1
225 316 m 1
 225 316 512 316 512 316 c 1
 512 316 370 655 370 655 c 1
 370 655 225 316 225 316 c 1
260 931 m 1
 260 931 334 931 334 931 c 1
 334 931 334 805 334 805 c 1
 334 805 260 805 260 805 c 1
 260 805 260 931 260 931 c 1
407 931 m 1
 407 931 481 931 481 931 c 1
 481 931 481 805 481 805 c 1
 481 805 407 805 407 805 c 1
 407 805 407 931 407 931 c 1
EndSplineSet
Validated: 1
EndChar

StartChar: Aacute
Encoding: 257 193 1
GlifName: A_acute
Width: 740
Flags: MW
HStem: 0 21G 249 67<225 512 225 541 197 512> 719 20G<328 411 411 411>
AnchorPoint: "Top" 370 987 basechar 0
LayerCount: 2
Fore
SplineSet
11 0 m 1
 11 0 328 739 328 739 c 1
 328 739 411 739 411 739 c 1
 411 739 729 0 729 0 c 1
 729 0 648 0 648 0 c 1
 648 0 541 249 541 249 c 1
 541 249 197 249 197 249 c 1
 197 249 89 0 89 0 c 1
 89 0 11 0 11 0 c 1
225 316 m 1
 225 316 512 316 512 316 c 1
 512 316 370 655 370 655 c 1
 370 655 225 316 225 316 c 1
290 848 m 1
 290 848 483 964 483 964 c 1
 483 964 517 906 517 906 c 1
 517 906 324 792 324 792 c 1
 324 792 290 848 290 848 c 1
EndSplineSet
Validated: 1
EndChar

StartChar: Agrave
Encoding: 258 192 2
GlifName: A_grave
Width: 740
Flags: MW
HStem: 0 21G 249 67<225 512 225 541 197 512> 719 20G<328 411 411 411>
AnchorPoint: "Top" 370 987 basechar 0
LayerCount: 2
Fore
SplineSet
11 0 m 1
 11 0 328 739 328 739 c 1
 328 739 411 739 411 739 c 1
 411 739 729 0 729 0 c 1
 729 0 648 0 648 0 c 1
 648 0 541 249 541 249 c 1
 541 249 197 249 197 249 c 1
 197 249 89 0 89 0 c 1
 89 0 11 0 11 0 c 1
225 316 m 1
 225 316 512 316 512 316 c 1
 512 316 370 655 370 655 c 1
 370 655 225 316 225 316 c 1
254 958 m 1
 254 958 452 848 452 848 c 1
 452 848 419 792 419 792 c 1
 419 792 222 900 222 900 c 1
 222 900 254 958 254 958 c 1
EndSplineSet
Validated: 1
EndChar

StartChar: Acircumflex
Encoding: 259 194 3
GlifName: A_circumflex
Width: 740
Flags: MW
HStem: 0 21G 249 67<225 512 225 541 197 512> 719 20G<328 411 411 411>
AnchorPoint: "Top" 370 987 basechar 0
LayerCount: 2
Fore
SplineSet
11 0 m 1
 11 0 328 739 328 739 c 1
 328 739 411 739 411 739 c 1
 411 739 729 0 729 0 c 1
 729 0 648 0 648 0 c 1
 648 0 541 249 541 249 c 1
 541 249 197 249 197 249 c 1
 197 249 89 0 89 0 c 1
 89 0 11 0 11 0 c 1
225 316 m 1
 225 316 512 316 512 316 c 1
 512 316 370 655 370 655 c 1
 370 655 225 316 225 316 c 1
193 805 m 1
 193 805 338 931 338 931 c 1
 338 931 404 931 404 931 c 1
 404 931 547 805 547 805 c 1
 547 805 458 805 458 805 c 1
 458 805 372 879 372 879 c 1
 372 879 284 805 284 805 c 1
 284 805 193 805 193 805 c 1
EndSplineSet
Validated: 1
EndChar

StartChar: Atilde
Encoding: 260 195 4
GlifName: A_tilde
Width: 740
Flags: MW
HStem: 0 21G 249 67<225 512 225 541 197 512> 719 20G<328 411 411 411> 815 64<423.5 437.5 423.5 443.5> 847 63<311.5 326.5>
AnchorPoint: "Top" 370 987 basechar 0
LayerCount: 2
Fore
SplineSet
11 0 m 1xe0
 11 0 328 739 328 739 c 1
 328 739 411 739 411 739 c 1
 411 739 729 0 729 0 c 1
 729 0 648 0 648 0 c 1
 648 0 541 249 541 249 c 1
 541 249 197 249 197 249 c 1
 197 249 89 0 89 0 c 1
 89 0 11 0 11 0 c 1xe0
225 316 m 1
 225 316 512 316 512 316 c 1
 512 316 370 655 370 655 c 1
 370 655 225 316 225 316 c 1
485 910 m 1xe8
 485 910 518 864 518 864 c 1
 502 838 460 815 427 815 c 0xf0
 412 815 395 821 361 837 c 0
 346 843 332 847 321 847 c 0xe8
 302 847 294 843 268 821 c 2
 268 821 261 815 261 815 c 1xf0
 261 815 228 861 228 861 c 1
 251 892 285 910 321 910 c 0xe8
 339 910 349 907 380 893 c 0
 397 886 419 879 428 879 c 0xf0
 447 879 464 888 485 910 c 1xe8
EndSplineSet
Validated: 1
EndChar

StartChar: Aring
Encoding: 261 197 5
GlifName: A_ring
Width: 740
Flags: MW
HStem: 0 21G 249 67<225 512 225 541 197 512> 719 20G<328 411 411 411> 792 41<356 384 356 395.5> 935 41<355.5 383.5>
AnchorPoint: "Top" 370 1002 basechar 0
LayerCount: 2
Fore
SplineSet
11 0 m 1
 11 0 328 739 328 739 c 1
 328 739 411 739 411 739 c 1
 411 739 729 0 729 0 c 1
 729 0 648 0 648 0 c 1
 648 0 541 249 541 249 c 1
 541 249 197 249 197 249 c 1
 197 249 89 0 89 0 c 1
 89 0 11 0 11 0 c 1
225 316 m 1
 225 316 512 316 512 316 c 1
 512 316 370 655 370 655 c 1
 370 655 225 316 225 316 c 1
371 976 m 0
 421 976 462 934 462 884 c 0
 462 833 421 792 370 792 c 0
 319 792 278 833 278 883 c 0
 278 935 319 976 371 976 c 0
369 935 m 0
 342 935 319 912 319 883 c 0
 319 855 342 833 370 833 c 0
 398 833 421 856 421 883 c 0
 421 912 398 935 369 935 c 0
EndSplineSet
Validated: 1
EndChar

StartChar: Edieresis
Encoding: 262 203 6
GlifName: E_dieresis
Width: 536
Flags: MW
HStem: 0 67<150 480 150 480> 340 67<150 469 150 469> 672 67<150 480 150 150> 805 126<168 242 168 242 168 315 315 389>
VStem: 76 74<67 340 407 672>
AnchorPoint: "Top" 278 987 basechar 0
LayerCount: 2
Fore
SplineSet
76 0 m 1
 76 0 76 739 76 739 c 1
 76 739 480 739 480 739 c 1
 480 739 480 672 480 672 c 1
 480 672 150 672 150 672 c 1
 150 672 150 407 150 407 c 1
 150 407 469 407 469 407 c 1
 469 407 469 340 469 340 c 1
 469 340 150 340 150 340 c 1
 150 340 150 67 150 67 c 1
 150 67 480 67 480 67 c 1
 480 67 480 0 480 0 c 1
 480 0 76 0 76 0 c 1
168 931 m 1
 168 931 242 931 242 931 c 1
 242 931 242 805 242 805 c 1
 242 805 168 805 168 805 c 1
 168 805 168 931 168 931 c 1
315 931 m 1
 315 931 389 931 389 931 c 1
 389 931 389 805 389 805 c 1
 389 805 315 805 315 805 c 1
 315 805 315 931 315 931 c 1
EndSplineSet
Validated: 1
EndChar

StartChar: Eacute
Encoding: 263 201 7
GlifName: E_acute
Width: 536
Flags: MW
HStem: 0 67<150 480 150 480> 340 67<150 469 150 469> 672 67<150 480 150 150>
VStem: 76 74<67 340 407 672>
AnchorPoint: "Top" 278 987 basechar 0
LayerCount: 2
Fore
SplineSet
76 0 m 1
 76 0 76 739 76 739 c 1
 76 739 480 739 480 739 c 1
 480 739 480 672 480 672 c 1
 480 672 150 672 150 672 c 1
 150 672 150 407 150 407 c 1
 150 407 469 407 469 407 c 1
 469 407 469 340 469 340 c 1
 469 340 150 340 150 340 c 1
 150 340 150 67 150 67 c 1
 150 67 480 67 480 67 c 1
 480 67 480 0 480 0 c 1
 480 0 76 0 76 0 c 1
198 848 m 1
 198 848 391 964 391 964 c 1
 391 964 425 906 425 906 c 1
 425 906 232 792 232 792 c 1
 232 792 198 848 198 848 c 1
EndSplineSet
Validated: 1
EndChar

StartChar: Egrave
Encoding: 264 200 8
GlifName: E_grave
Width: 536
Flags: MW
HStem: 0 67<150 480 150 480> 340 67<150 469 150 469> 672 67<150 480 150 150>
VStem: 76 74<67 340 407 672>
AnchorPoint: "Top" 278 987 basechar 0
LayerCount: 2
Fore
SplineSet
76 0 m 1
 76 0 76 739 76 739 c 1
 76 739 480 739 480 739 c 1
 480 739 480 672 480 672 c 1
 480 672 150 672 150 672 c 1
 150 672 150 407 150 407 c 1
 150 407 469 407 469 407 c 1
 469 407 469 340 469 340 c 1
 469 340 150 340 150 340 c 1
 150 340 150 67 150 67 c 1
 150 67 480 67 480 67 c 1
 480 67 480 0 480 0 c 1
 480 0 76 0 76 0 c 1
162 958 m 1
 162 958 360 848 360 848 c 1
 360 848 327 792 327 792 c 1
 327 792 130 900 130 900 c 1
 130 900 162 958 162 958 c 1
EndSplineSet
Validated: 1
EndChar

StartChar: Ecircumflex
Encoding: 265 202 9
GlifName: E_circumflex
Width: 536
Flags: MW
HStem: 0 67<150 480 150 480> 340 67<150 469 150 469> 672 67<150 480 150 150>
VStem: 76 74<67 340 407 672>
AnchorPoint: "Top" 278 987 basechar 0
LayerCount: 2
Fore
SplineSet
76 0 m 1
 76 0 76 739 76 739 c 1
 76 739 480 739 480 739 c 1
 480 739 480 672 480 672 c 1
 480 672 150 672 150 672 c 1
 150 672 150 407 150 407 c 1
 150 407 469 407 469 407 c 1
 469 407 469 340 469 340 c 1
 469 340 150 340 150 340 c 1
 150 340 150 67 150 67 c 1
 150 67 480 67 480 67 c 1
 480 67 480 0 480 0 c 1
 480 0 76 0 76 0 c 1
101 805 m 1
 101 805 246 931 246 931 c 1
 246 931 312 931 312 931 c 1
 312 931 455 805 455 805 c 1
 455 805 366 805 366 805 c 1
 366 805 280 879 280 879 c 1
 280 879 192 805 192 805 c 1
 192 805 101 805 101 805 c 1
EndSplineSet
Validated: 1
EndChar

StartChar: Idieresis
Encoding: 266 207 10
GlifName: I_dieresis
Width: 226
Flags: W
HStem: 0 21G<77 151> 719 20G<77 151> 805 126<3 77 150 224>
VStem: 3 74<805 931> 77 74<0 739> 150 74<805 931>
AnchorPoint: "Top" 113 987 basechar 0
LayerCount: 2
Fore
SplineSet
77 0 m 1xe8
 77 0 77 739 77 739 c 1
 77 739 151 739 151 739 c 1
 151 739 151 0 151 0 c 1
 151 0 77 0 77 0 c 1xe8
3 931 m 1xf0
 3 931 77 931 77 931 c 1
 77 931 77 805 77 805 c 1
 77 805 3 805 3 805 c 1
 3 805 3 931 3 931 c 1xf0
150 931 m 1xe4
 150 931 224 931 224 931 c 1
 224 931 224 805 224 805 c 1
 224 805 150 805 150 805 c 1
 150 805 150 931 150 931 c 1xe4
EndSplineSet
Validated: 1
EndChar

StartChar: Iacute
Encoding: 267 205 11
GlifName: I_acute
Width: 226
Flags: MW
HStem: 0 21G 719 20G<76 150 150 150>
VStem: 76 74<0 739 0 739>
AnchorPoint: "Top" 113 987 basechar 0
LayerCount: 2
Fore
SplineSet
76 0 m 1
 76 0 76 739 76 739 c 1
 76 739 150 739 150 739 c 1
 150 739 150 0 150 0 c 1
 150 0 76 0 76 0 c 1
-1 848 m 1
 -1 848 192 964 192 964 c 1
 192 964 226 906 226 906 c 1
 226 906 33 792 33 792 c 1
 33 792 -1 848 -1 848 c 1
EndSplineSet
Validated: 1
EndChar

StartChar: Igrave
Encoding: 268 204 12
GlifName: I_grave
Width: 226
Flags: MW
HStem: 0 21G 719 20G<76 150 150 150>
VStem: 76 74<0 739 0 739>
AnchorPoint: "Top" 113 987 basechar 0
LayerCount: 2
Fore
SplineSet
76 0 m 1
 76 0 76 739 76 739 c 1
 76 739 150 739 150 739 c 1
 150 739 150 0 150 0 c 1
 150 0 76 0 76 0 c 1
30 958 m 1
 30 958 228 848 228 848 c 1
 228 848 195 792 195 792 c 1
 195 792 -2 900 -2 900 c 1
 -2 900 30 958 30 958 c 1
EndSplineSet
Validated: 1
EndChar

StartChar: Icircumflex
Encoding: 269 206 13
GlifName: I_circumflex
Width: 226
Flags: MW
HStem: 0 21G 719 20G<76 150 150 150>
VStem: 76 74<0 739 0 739>
AnchorPoint: "Top" 113 987 basechar 0
LayerCount: 2
Fore
SplineSet
76 0 m 1
 76 0 76 739 76 739 c 1
 76 739 150 739 150 739 c 1
 150 739 150 0 150 0 c 1
 150 0 76 0 76 0 c 1
-64 805 m 1
 -64 805 81 931 81 931 c 1
 81 931 147 931 147 931 c 1
 147 931 290 805 290 805 c 1
 290 805 201 805 201 805 c 1
 201 805 115 879 115 879 c 1
 115 879 27 805 27 805 c 1
 27 805 -64 805 -64 805 c 1
EndSplineSet
Validated: 1
EndChar

StartChar: Ntilde
Encoding: 270 209 14
GlifName: N_tilde
Width: 740
Flags: MW
HStem: 0 21G 719 20G<76 176 176 176 590 664 664 664> 815 64<427.5 441.5 427.5 447.5> 847 63<315.5 330.5>
VStem: 76 74<0 650 0 739> 590 74<0 739 126 739 0 739>
AnchorPoint: "Top" 370 987 basechar 0
LayerCount: 2
Fore
SplineSet
76 0 m 1xcc
 76 0 76 739 76 739 c 1
 76 739 176 739 176 739 c 1
 176 739 590 126 590 126 c 1
 590 126 590 739 590 739 c 1
 590 739 664 739 664 739 c 1
 664 739 664 0 664 0 c 1
 664 0 590 0 590 0 c 1
 590 0 150 650 150 650 c 1
 150 650 150 0 150 0 c 1
 150 0 76 0 76 0 c 1xcc
489 910 m 1xdc
 489 910 522 864 522 864 c 1
 506 838 464 815 431 815 c 0xec
 416 815 399 821 365 837 c 0
 350 843 336 847 325 847 c 0xdc
 306 847 298 843 272 821 c 2
 272 821 265 815 265 815 c 1xec
 265 815 232 861 232 861 c 1
 255 892 289 910 325 910 c 0xdc
 343 910 353 907 384 893 c 0
 401 886 423 879 432 879 c 0xec
 451 879 468 888 489 910 c 1xdc
EndSplineSet
Validated: 1
EndChar

StartChar: Odieresis
Encoding: 271 214 15
GlifName: O_dieresis
Width: 869
Flags: MW
HStem: -13 68<348.5 521 348.5 542> 684 68<346.5 519.5> 805 126<324 398 324 398 324 471 471 545>
VStem: 44 75<283 454 283 475.5> 750 75<282.5 455.5>
AnchorPoint: "Top" 434 987 basechar 0
LayerCount: 2
Fore
SplineSet
440 752 m 0
 649 752 825 578 825 369 c 0
 825 159 649 -13 435 -13 c 0
 221 -13 44 160 44 369 c 0
 44 582 220 752 440 752 c 0
431 684 m 0
 262 684 119 539 119 369 c 0
 119 197 262 55 435 55 c 0
 607 55 750 197 750 368 c 0
 750 543 608 684 431 684 c 0
324 931 m 1
 324 931 398 931 398 931 c 1
 398 931 398 805 398 805 c 1
 398 805 324 805 324 805 c 1
 324 805 324 931 324 931 c 1
471 931 m 1
 471 931 545 931 545 931 c 1
 545 931 545 805 545 805 c 1
 545 805 471 805 471 805 c 1
 471 805 471 931 471 931 c 1
EndSplineSet
Validated: 1
EndChar

StartChar: Oacute
Encoding: 272 211 16
GlifName: O_acute
Width: 869
Flags: MW
HStem: -13 68<348.5 521 348.5 542> 684 68<346.5 519.5>
VStem: 44 75<283 454 283 475.5> 750 75<282.5 455.5>
AnchorPoint: "Top" 434 987 basechar 0
LayerCount: 2
Fore
SplineSet
440 752 m 0
 649 752 825 578 825 369 c 0
 825 159 649 -13 435 -13 c 0
 221 -13 44 160 44 369 c 0
 44 582 220 752 440 752 c 0
431 684 m 0
 262 684 119 539 119 369 c 0
 119 197 262 55 435 55 c 0
 607 55 750 197 750 368 c 0
 750 543 608 684 431 684 c 0
354 848 m 1
 354 848 547 964 547 964 c 1
 547 964 581 906 581 906 c 1
 581 906 388 792 388 792 c 1
 388 792 354 848 354 848 c 1
EndSplineSet
Validated: 1
EndChar

StartChar: Ograve
Encoding: 273 210 17
GlifName: O_grave
Width: 869
Flags: MW
HStem: -13 68<348.5 521 348.5 542> 684 68<346.5 519.5>
VStem: 44 75<283 454 283 475.5> 750 75<282.5 455.5>
AnchorPoint: "Top" 434 987 basechar 0
LayerCount: 2
Fore
SplineSet
440 752 m 0
 649 752 825 578 825 369 c 0
 825 159 649 -13 435 -13 c 0
 221 -13 44 160 44 369 c 0
 44 582 220 752 440 752 c 0
431 684 m 0
 262 684 119 539 119 369 c 0
 119 197 262 55 435 55 c 0
 607 55 750 197 750 368 c 0
 750 543 608 684 431 684 c 0
318 958 m 1
 318 958 516 848 516 848 c 1
 516 848 483 792 483 792 c 1
 483 792 286 900 286 900 c 1
 286 900 318 958 318 958 c 1
EndSplineSet
Validated: 1
EndChar

StartChar: Ocircumflex
Encoding: 274 212 18
GlifName: O_circumflex
Width: 869
Flags: MW
HStem: -13 68<348.5 521 348.5 542> 684 68<346.5 519.5>
VStem: 44 75<283 454 283 475.5> 750 75<282.5 455.5>
AnchorPoint: "Top" 434 987 basechar 0
LayerCount: 2
Fore
SplineSet
440 752 m 0
 649 752 825 578 825 369 c 0
 825 159 649 -13 435 -13 c 0
 221 -13 44 160 44 369 c 0
 44 582 220 752 440 752 c 0
431 684 m 0
 262 684 119 539 119 369 c 0
 119 197 262 55 435 55 c 0
 607 55 750 197 750 368 c 0
 750 543 608 684 431 684 c 0
257 805 m 1
 257 805 402 931 402 931 c 1
 402 931 468 931 468 931 c 1
 468 931 611 805 611 805 c 1
 611 805 522 805 522 805 c 1
 522 805 436 879 436 879 c 1
 436 879 348 805 348 805 c 1
 348 805 257 805 257 805 c 1
EndSplineSet
Validated: 1
EndChar

StartChar: Otilde
Encoding: 275 213 19
GlifName: O_tilde
Width: 869
Flags: W
HStem: -13 68<348.5 521 348.5 542> 684 68<346.5 519.5> 815 64<495.5 509.5 495.5 515.5> 847 63<383.5 398.5>
VStem: 44 75<283 454 283 475.5> 750 75<282.5 455.5>
AnchorPoint: "Top" 434 987 basechar 0
LayerCount: 2
Fore
SplineSet
440 752 m 0xcc
 649 752 825 578 825 369 c 0
 825 159 649 -13 435 -13 c 0
 221 -13 44 160 44 369 c 0
 44 582 220 752 440 752 c 0xcc
431 684 m 0
 262 684 119 539 119 369 c 0
 119 197 262 55 435 55 c 0
 607 55 750 197 750 368 c 0
 750 543 608 684 431 684 c 0
557 910 m 1x20
 557 910 590 864 590 864 c 1
 574 838 532 815 499 815 c 0x20
 484 815 467 821 433 837 c 0
 418 843 404 847 393 847 c 0
 374 847 366 843 340 821 c 2
 340 821 333 815 333 815 c 1
 333 815 300 861 300 861 c 1
 323 892 357 910 393 910 c 0x10
 411 910 421 907 452 893 c 0
 469 886 491 879 500 879 c 0
 519 879 536 888 557 910 c 1x20
EndSplineSet
Validated: 1
EndChar

StartChar: Scaron
Encoding: 276 352 20
GlifName: S_caron
Width: 498
Flags: MW
HStem: -13 68<232 297.5 232 317> 684 68<212 286.5>
VStem: 46 75<538 592.5 538 611> 401 75<159.5 224.5>
AnchorPoint: "Top" 259 987 basechar 0
LayerCount: 2
Fore
SplineSet
22 207 m 1
 22 207 101 207 101 207 c 1
 106 160 116 133 138 107 c 0
 165 74 209 55 255 55 c 0
 340 55 401 117 401 202 c 0
 401 247 383 285 351 308 c 0
 326 325 294 339 236 356 c 0
 149 383 127 394 98 422 c 0
 65 453 46 502 46 553 c 0
 46 669 132 752 251 752 c 0
 372 752 455 672 458 552 c 1
 458 552 381 552 381 552 c 1
 376 632 324 684 249 684 c 0
 175 684 121 630 121 555 c 0
 121 521 135 488 156 469 c 0
 176 452 198 443 265 423 c 0
 341 400 372 386 403 364 c 0
 449 329 476 271 476 206 c 0
 476 80 381 -13 253 -13 c 0
 120 -13 29 74 22 207 c 1
436 931 m 1
 436 931 291 805 291 805 c 1
 291 805 225 805 225 805 c 1
 225 805 82 931 82 931 c 1
 82 931 171 931 171 931 c 1
 171 931 257 857 257 857 c 1
 257 857 345 931 345 931 c 1
 345 931 436 931 436 931 c 1
EndSplineSet
Validated: 1
EndChar

StartChar: Udieresis
Encoding: 277 220 21
GlifName: U_dieresis
Width: 655
Flags: MW
HStem: -13 68<297 357.5 297 368.5> 719 20G<76 150 150 150 505 579 579 579> 805 126<217 291 217 291 217 364 364 438>
VStem: 76 74<278 739> 505 74<278 739>
AnchorPoint: "Top" 327 987 basechar 0
LayerCount: 2
Fore
SplineSet
76 739 m 1
 76 739 150 739 150 739 c 1
 150 739 150 278 150 278 c 2
 150 211 161 160 184 125 c 0
 212 82 267 55 327 55 c 0
 388 55 443 82 471 125 c 0
 494 160 505 211 505 278 c 2
 505 278 505 739 505 739 c 1
 505 739 579 739 579 739 c 1
 579 739 579 278 579 278 c 2
 579 183 564 127 527 78 c 0
 483 20 410 -13 327 -13 c 0
 245 -13 172 20 128 78 c 0
 91 127 76 183 76 278 c 2
 76 278 76 739 76 739 c 1
217 931 m 1
 217 931 291 931 291 931 c 1
 291 931 291 805 291 805 c 1
 291 805 217 805 217 805 c 1
 217 805 217 931 217 931 c 1
364 931 m 1
 364 931 438 931 438 931 c 1
 438 931 438 805 438 805 c 1
 438 805 364 805 364 805 c 1
 364 805 364 931 364 931 c 1
EndSplineSet
Validated: 1
EndChar

StartChar: Uacute
Encoding: 278 218 22
GlifName: U_acute
Width: 655
Flags: MW
HStem: -13 68<297 357.5 297 368.5> 719 20G<76 150 150 150 505 579 579 579>
VStem: 76 74<278 739> 505 74<278 739>
AnchorPoint: "Top" 327 987 basechar 0
LayerCount: 2
Fore
SplineSet
76 739 m 1
 76 739 150 739 150 739 c 1
 150 739 150 278 150 278 c 2
 150 211 161 160 184 125 c 0
 212 82 267 55 327 55 c 0
 388 55 443 82 471 125 c 0
 494 160 505 211 505 278 c 2
 505 278 505 739 505 739 c 1
 505 739 579 739 579 739 c 1
 579 739 579 278 579 278 c 2
 579 183 564 127 527 78 c 0
 483 20 410 -13 327 -13 c 0
 245 -13 172 20 128 78 c 0
 91 127 76 183 76 278 c 2
 76 278 76 739 76 739 c 1
247 848 m 1
 247 848 440 964 440 964 c 1
 440 964 474 906 474 906 c 1
 474 906 281 792 281 792 c 1
 281 792 247 848 247 848 c 1
EndSplineSet
Validated: 1
EndChar

StartChar: Ugrave
Encoding: 279 217 23
GlifName: U_grave
Width: 655
Flags: MW
HStem: -13 68<297 357.5 297 368.5> 719 20G<76 150 150 150 505 579 579 579>
VStem: 76 74<278 739> 505 74<278 739>
AnchorPoint: "Top" 327 987 basechar 0
LayerCount: 2
Fore
SplineSet
76 739 m 1
 76 739 150 739 150 739 c 1
 150 739 150 278 150 278 c 2
 150 211 161 160 184 125 c 0
 212 82 267 55 327 55 c 0
 388 55 443 82 471 125 c 0
 494 160 505 211 505 278 c 2
 505 278 505 739 505 739 c 1
 505 739 579 739 579 739 c 1
 579 739 579 278 579 278 c 2
 579 183 564 127 527 78 c 0
 483 20 410 -13 327 -13 c 0
 245 -13 172 20 128 78 c 0
 91 127 76 183 76 278 c 2
 76 278 76 739 76 739 c 1
211 958 m 1
 211 958 409 848 409 848 c 1
 409 848 376 792 376 792 c 1
 376 792 179 900 179 900 c 1
 179 900 211 958 211 958 c 1
EndSplineSet
Validated: 1
EndChar

StartChar: Ucircumflex
Encoding: 280 219 24
GlifName: U_circumflex
Width: 655
Flags: MW
HStem: -13 68<297 357.5 297 368.5> 719 20G<76 150 150 150 505 579 579 579>
VStem: 76 74<278 739> 505 74<278 739>
AnchorPoint: "Top" 327 987 basechar 0
LayerCount: 2
Fore
SplineSet
76 739 m 1
 76 739 150 739 150 739 c 1
 150 739 150 278 150 278 c 2
 150 211 161 160 184 125 c 0
 212 82 267 55 327 55 c 0
 388 55 443 82 471 125 c 0
 494 160 505 211 505 278 c 2
 505 278 505 739 505 739 c 1
 505 739 579 739 579 739 c 1
 579 739 579 278 579 278 c 2
 579 183 564 127 527 78 c 0
 483 20 410 -13 327 -13 c 0
 245 -13 172 20 128 78 c 0
 91 127 76 183 76 278 c 2
 76 278 76 739 76 739 c 1
150 805 m 1
 150 805 295 931 295 931 c 1
 295 931 361 931 361 931 c 1
 361 931 504 805 504 805 c 1
 504 805 415 805 415 805 c 1
 415 805 329 879 329 879 c 1
 329 879 241 805 241 805 c 1
 241 805 150 805 150 805 c 1
EndSplineSet
Validated: 1
EndChar

StartChar: Yacute
Encoding: 281 221 25
GlifName: Y_acute
Width: 592
Flags: MW
HStem: 0 21G 719 20G<2 84 84 84 509 590 590 590>
VStem: 258 74<0 247 0 247>
AnchorPoint: "Top" 296 987 basechar 0
LayerCount: 2
Fore
SplineSet
258 0 m 1
 258 0 258 247 258 247 c 1
 258 247 2 739 2 739 c 1
 2 739 84 739 84 739 c 1
 84 739 294 325 294 325 c 1
 294 325 509 739 509 739 c 1
 509 739 590 739 590 739 c 1
 590 739 332 247 332 247 c 1
 332 247 332 0 332 0 c 1
 332 0 258 0 258 0 c 1
216 848 m 1
 216 848 409 964 409 964 c 1
 409 964 443 906 443 906 c 1
 443 906 250 792 250 792 c 1
 250 792 216 848 216 848 c 1
EndSplineSet
Validated: 1
EndChar

StartChar: Zcaron
Encoding: 282 381 26
GlifName: Z_caron
Width: 480
Flags: MW
HStem: 0 67<17 17 101 474> 672 67<28 380 28 463 28 463>
AnchorPoint: "Top" 249 987 basechar 0
LayerCount: 2
Fore
SplineSet
17 0 m 1
 17 0 17 67 17 67 c 1
 17 67 380 672 380 672 c 1
 380 672 28 672 28 672 c 1
 28 672 28 739 28 739 c 1
 28 739 463 739 463 739 c 1
 463 739 463 672 463 672 c 1
 463 672 101 67 101 67 c 1
 101 67 474 67 474 67 c 1
 474 67 474 0 474 0 c 1
 474 0 17 0 17 0 c 1
426 931 m 1
 426 931 281 805 281 805 c 1
 281 805 215 805 215 805 c 1
 215 805 72 931 72 931 c 1
 72 931 161 931 161 931 c 1
 161 931 247 857 247 857 c 1
 247 857 335 931 335 931 c 1
 335 931 426 931 426 931 c 1
EndSplineSet
Validated: 1
EndChar

StartChar: Ydieresis
Encoding: 283 376 27
GlifName: Y_dieresis
Width: 592
Flags: MW
HStem: 0 21G 719 20G<2 84 84 84 509 590 590 590> 805 126<186 260 186 260 186 333 333 407>
VStem: 258 74<0 247 0 247>
AnchorPoint: "Top" 296 987 basechar 0
LayerCount: 2
Fore
SplineSet
258 0 m 1
 258 0 258 247 258 247 c 1
 258 247 2 739 2 739 c 1
 2 739 84 739 84 739 c 1
 84 739 294 325 294 325 c 1
 294 325 509 739 509 739 c 1
 509 739 590 739 590 739 c 1
 590 739 332 247 332 247 c 1
 332 247 332 0 332 0 c 1
 332 0 258 0 258 0 c 1
186 931 m 1
 186 931 260 931 260 931 c 1
 260 931 260 805 260 805 c 1
 260 805 186 805 186 805 c 1
 186 805 186 931 186 931 c 1
333 931 m 1
 333 931 407 931 407 931 c 1
 407 931 407 805 407 805 c 1
 407 805 333 805 333 805 c 1
 333 805 333 931 333 931 c 1
EndSplineSet
Validated: 1
EndChar

StartChar: adieresis
Encoding: 284 228 28
GlifName: adieresis
Width: 683
Flags: MW
HStem: -13 68<274.5 382.5> 492 68<270.5 377.5 248 391> 527 20G<546 620 620 620> 623 126<241 315 241 315 241 388 388 462>
VStem: 42 75<213.5 335 213.5 354> 546 74<0 96 96 96 213 337 450 547 0 547>
AnchorPoint: "Top" 351 805 basechar 0
LayerCount: 2
Fore
SplineSet
620 547 m 1xbc
 620 547 620 0 620 0 c 1
 620 0 546 0 546 0 c 1
 546 0 546 96 546 96 c 1
 488 18 429 -13 336 -13 c 0
 167 -13 42 108 42 272 c 0
 42 436 166 560 330 560 c 0xdc
 425 560 491 527 546 450 c 1
 546 450 546 547 546 547 c 1
 546 547 620 547 620 547 c 1xbc
329 492 m 0
 212 492 117 395 117 275 c 0
 117 152 214 55 335 55 c 0
 454 55 546 151 546 275 c 0
 546 399 453 492 329 492 c 0
241 749 m 1
 241 749 315 749 315 749 c 1
 315 749 315 623 315 623 c 1
 315 623 241 623 241 623 c 1
 241 623 241 749 241 749 c 1
388 749 m 1
 388 749 462 749 462 749 c 1
 462 749 462 623 462 623 c 1
 462 623 388 623 388 623 c 1
 388 623 388 749 388 749 c 1
EndSplineSet
Validated: 1
EndChar

StartChar: aacute
Encoding: 285 225 29
GlifName: aacute
Width: 683
Flags: MW
HStem: -13 68<274.5 382.5> 492 68<270.5 377.5 248 391> 527 20G<546 620 620 620>
VStem: 42 75<213.5 335 213.5 354> 546 74<0 96 96 96 213 337 450 547 0 547>
AnchorPoint: "Top" 351 805 basechar 0
LayerCount: 2
Fore
SplineSet
620 547 m 1xb8
 620 547 620 0 620 0 c 1
 620 0 546 0 546 0 c 1
 546 0 546 96 546 96 c 1
 488 18 429 -13 336 -13 c 0
 167 -13 42 108 42 272 c 0
 42 436 166 560 330 560 c 0xd8
 425 560 491 527 546 450 c 1
 546 450 546 547 546 547 c 1
 546 547 620 547 620 547 c 1xb8
329 492 m 0
 212 492 117 395 117 275 c 0
 117 152 214 55 335 55 c 0
 454 55 546 151 546 275 c 0
 546 399 453 492 329 492 c 0
271 666 m 1
 271 666 464 782 464 782 c 1
 464 782 498 724 498 724 c 1
 498 724 305 610 305 610 c 1
 305 610 271 666 271 666 c 1
EndSplineSet
Validated: 1
EndChar

StartChar: agrave
Encoding: 286 224 30
GlifName: agrave
Width: 683
Flags: MW
HStem: -13 68<274.5 382.5> 492 68<270.5 377.5 248 391> 527 20G<546 620 620 620>
VStem: 42 75<213.5 335 213.5 354> 546 74<0 96 96 96 213 337 450 547 0 547>
AnchorPoint: "Top" 351 805 basechar 0
LayerCount: 2
Fore
SplineSet
620 547 m 1xb8
 620 547 620 0 620 0 c 1
 620 0 546 0 546 0 c 1
 546 0 546 96 546 96 c 1
 488 18 429 -13 336 -13 c 0
 167 -13 42 108 42 272 c 0
 42 436 166 560 330 560 c 0xd8
 425 560 491 527 546 450 c 1
 546 450 546 547 546 547 c 1
 546 547 620 547 620 547 c 1xb8
329 492 m 0
 212 492 117 395 117 275 c 0
 117 152 214 55 335 55 c 0
 454 55 546 151 546 275 c 0
 546 399 453 492 329 492 c 0
235 776 m 1
 235 776 433 666 433 666 c 1
 433 666 400 610 400 610 c 1
 400 610 203 718 203 718 c 1
 203 718 235 776 235 776 c 1
EndSplineSet
Validated: 1
EndChar

StartChar: acircumflex
Encoding: 287 226 31
GlifName: acircumflex
Width: 683
Flags: MW
HStem: -13 68<274.5 382.5> 492 68<270.5 377.5 248 391> 527 20G<546 620 620 620> 729 20G<319 385 385 385>
VStem: 42 75<213.5 335 213.5 354> 546 74<0 96 96 96 213 337 450 547 0 547>
AnchorPoint: "Top" 351 805 basechar 0
LayerCount: 2
Fore
SplineSet
620 547 m 1xbc
 620 547 620 0 620 0 c 1
 620 0 546 0 546 0 c 1
 546 0 546 96 546 96 c 1
 488 18 429 -13 336 -13 c 0
 167 -13 42 108 42 272 c 0
 42 436 166 560 330 560 c 0xdc
 425 560 491 527 546 450 c 1
 546 450 546 547 546 547 c 1
 546 547 620 547 620 547 c 1xbc
329 492 m 0
 212 492 117 395 117 275 c 0
 117 152 214 55 335 55 c 0
 454 55 546 151 546 275 c 0
 546 399 453 492 329 492 c 0
174 623 m 1
 174 623 319 749 319 749 c 1
 319 749 385 749 385 749 c 1
 385 749 528 623 528 623 c 1
 528 623 439 623 439 623 c 1
 439 623 353 697 353 697 c 1
 353 697 265 623 265 623 c 1
 265 623 174 623 174 623 c 1
EndSplineSet
Validated: 1
EndChar

StartChar: atilde
Encoding: 288 227 32
GlifName: atilde
Width: 683
Flags: MW
HStem: -13 68<274.5 382.5> 492 68<270.5 377.5 248 391> 527 20G<546 620 620 620> 633 64<401.5 415.5 401.5 421.5> 665 63<289.5 304.5>
VStem: 42 75<213.5 335 213.5 354> 546 74<0 96 96 96 213 337 450 547 0 547>
AnchorPoint: "Top" 351 805 basechar 0
LayerCount: 2
Fore
SplineSet
620 547 m 1xa6
 620 547 620 0 620 0 c 1
 620 0 546 0 546 0 c 1
 546 0 546 96 546 96 c 1
 488 18 429 -13 336 -13 c 0
 167 -13 42 108 42 272 c 0
 42 436 166 560 330 560 c 0xc6
 425 560 491 527 546 450 c 1
 546 450 546 547 546 547 c 1
 546 547 620 547 620 547 c 1xa6
329 492 m 0
 212 492 117 395 117 275 c 0
 117 152 214 55 335 55 c 0
 454 55 546 151 546 275 c 0
 546 399 453 492 329 492 c 0
463 728 m 1x8e
 463 728 496 682 496 682 c 1
 480 656 438 633 405 633 c 0x96
 390 633 373 639 339 655 c 0
 324 661 310 665 299 665 c 0x8e
 280 665 272 661 246 639 c 2
 246 639 239 633 239 633 c 1x96
 239 633 206 679 206 679 c 1
 229 710 263 728 299 728 c 0x8e
 317 728 327 725 358 711 c 0
 375 704 397 697 406 697 c 0x96
 425 697 442 706 463 728 c 1x8e
EndSplineSet
Validated: 1
EndChar

StartChar: aring
Encoding: 289 229 33
GlifName: aring
Width: 683
Flags: MW
HStem: -13 68<274.5 382.5> 492 68<270.5 377.5 248 391> 527 20G<546 620 620 620> 610 41<337 365 337 376.5> 753 41<336.5 364.5>
VStem: 42 75<213.5 335 213.5 354> 546 74<0 96 96 96 213 337 450 547 0 547>
AnchorPoint: "Top" 351 820 basechar 0
LayerCount: 2
Fore
SplineSet
620 547 m 1xbe
 620 547 620 0 620 0 c 1
 620 0 546 0 546 0 c 1
 546 0 546 96 546 96 c 1
 488 18 429 -13 336 -13 c 0
 167 -13 42 108 42 272 c 0
 42 436 166 560 330 560 c 0xde
 425 560 491 527 546 450 c 1
 546 450 546 547 546 547 c 1
 546 547 620 547 620 547 c 1xbe
329 492 m 0
 212 492 117 395 117 275 c 0
 117 152 214 55 335 55 c 0
 454 55 546 151 546 275 c 0
 546 399 453 492 329 492 c 0
352 794 m 0
 402 794 443 752 443 702 c 0
 443 651 402 610 351 610 c 0
 300 610 259 651 259 701 c 0
 259 753 300 794 352 794 c 0
350 753 m 0
 323 753 300 730 300 701 c 0
 300 673 323 651 351 651 c 0
 379 651 402 674 402 701 c 0
 402 730 379 753 350 753 c 0
EndSplineSet
Validated: 1
EndChar

StartChar: edieresis
Encoding: 290 235 34
GlifName: edieresis
Width: 650
Flags: MW
HStem: -13 68<272.5 370.5 272.5 390.5> 249 67<118 537 118 611 116 537> 492 68<273 378> 623 126<219 293 219 293 219 366 366 440>
VStem: 42 74<249 249 249 355.5>
AnchorPoint: "Top" 329 805 basechar 0
LayerCount: 2
Fore
SplineSet
611 249 m 1
 611 249 116 249 116 249 c 1
 122 141 216 55 329 55 c 0
 412 55 489 105 520 180 c 1
 520 180 597 180 597 180 c 1
 557 65 450 -13 331 -13 c 0
 169 -13 42 114 42 276 c 0
 42 435 167 560 325 560 c 0
 433 560 530 503 578 411 c 0
 602 365 611 322 611 249 c 1
118 316 m 1
 118 316 537 316 537 316 c 1
 512 425 431 492 325 492 c 0
 221 492 138 421 118 316 c 1
219 749 m 1
 219 749 293 749 293 749 c 1
 293 749 293 623 293 623 c 1
 293 623 219 623 219 623 c 1
 219 623 219 749 219 749 c 1
366 749 m 1
 366 749 440 749 440 749 c 1
 440 749 440 623 440 623 c 1
 440 623 366 623 366 623 c 1
 366 623 366 749 366 749 c 1
EndSplineSet
Validated: 1
EndChar

StartChar: eacute
Encoding: 291 233 35
GlifName: eacute
Width: 650
Flags: MW
HStem: -13 68<272.5 370.5 272.5 390.5> 249 67<118 537 118 611 116 537> 492 68<273 378>
AnchorPoint: "Top" 329 805 basechar 0
LayerCount: 2
Fore
SplineSet
611 249 m 1
 611 249 116 249 116 249 c 1
 122 141 216 55 329 55 c 0
 412 55 489 105 520 180 c 1
 520 180 597 180 597 180 c 1
 557 65 450 -13 331 -13 c 0
 169 -13 42 114 42 276 c 0
 42 435 167 560 325 560 c 0
 433 560 530 503 578 411 c 0
 602 365 611 322 611 249 c 1
118 316 m 1
 118 316 537 316 537 316 c 1
 512 425 431 492 325 492 c 0
 221 492 138 421 118 316 c 1
246 666 m 1
 246 666 439 782 439 782 c 1
 439 782 473 724 473 724 c 1
 473 724 280 610 280 610 c 1
 280 610 246 666 246 666 c 1
EndSplineSet
Validated: 1
EndChar

StartChar: egrave
Encoding: 292 232 36
GlifName: egrave
Width: 650
Flags: MW
HStem: -13 68<272.5 370.5 272.5 390.5> 249 67<118 537 118 611 116 537> 492 68<273 378>
AnchorPoint: "Top" 329 805 basechar 0
LayerCount: 2
Fore
SplineSet
611 249 m 1
 611 249 116 249 116 249 c 1
 122 141 216 55 329 55 c 0
 412 55 489 105 520 180 c 1
 520 180 597 180 597 180 c 1
 557 65 450 -13 331 -13 c 0
 169 -13 42 114 42 276 c 0
 42 435 167 560 325 560 c 0
 433 560 530 503 578 411 c 0
 602 365 611 322 611 249 c 1
118 316 m 1
 118 316 537 316 537 316 c 1
 512 425 431 492 325 492 c 0
 221 492 138 421 118 316 c 1
214 776 m 1
 214 776 412 666 412 666 c 1
 412 666 379 610 379 610 c 1
 379 610 182 718 182 718 c 1
 182 718 214 776 214 776 c 1
EndSplineSet
Validated: 1
EndChar

StartChar: ecircumflex
Encoding: 293 234 37
GlifName: ecircumflex
Width: 650
Flags: MW
HStem: -13 68<272.5 370.5 272.5 390.5> 249 67<118 537 118 611 116 537> 492 68<273 378> 729 20G<298 364 364 364>
AnchorPoint: "Top" 329 805 basechar 0
LayerCount: 2
Fore
SplineSet
611 249 m 1
 611 249 116 249 116 249 c 1
 122 141 216 55 329 55 c 0
 412 55 489 105 520 180 c 1
 520 180 597 180 597 180 c 1
 557 65 450 -13 331 -13 c 0
 169 -13 42 114 42 276 c 0
 42 435 167 560 325 560 c 0
 433 560 530 503 578 411 c 0
 602 365 611 322 611 249 c 1
118 316 m 1
 118 316 537 316 537 316 c 1
 512 425 431 492 325 492 c 0
 221 492 138 421 118 316 c 1
153 623 m 1
 153 623 298 749 298 749 c 1
 298 749 364 749 364 749 c 1
 364 749 507 623 507 623 c 1
 507 623 418 623 418 623 c 1
 418 623 332 697 332 697 c 1
 332 697 244 623 244 623 c 1
 244 623 153 623 153 623 c 1
EndSplineSet
Validated: 1
EndChar

StartChar: idieresis
Encoding: 294 239 38
GlifName: idieresis
Width: 200
Flags: MW
HStem: 0 21G 527 20G<64 138 138 138> 623 126<-10 64 -10 64 -10 137 137 211>
VStem: -10 74<623 749> 64 74<0 547 0 547> 137 74<623 749 623 749>
AnchorPoint: "Top" 100 805 basechar 0
LayerCount: 2
Fore
SplineSet
-10 749 m 1xf0
 -10 749 64 749 64 749 c 1
 64 749 64 623 64 623 c 1
 64 623 -10 623 -10 623 c 1
 -10 623 -10 749 -10 749 c 1xf0
137 749 m 1xe4
 137 749 211 749 211 749 c 1
 211 749 211 623 211 623 c 1
 211 623 137 623 137 623 c 1
 137 623 137 749 137 749 c 1xe4
64 0 m 1xe8
 64 0 64 547 64 547 c 1
 64 547 138 547 138 547 c 1
 138 547 138 0 138 0 c 1
 138 0 64 0 64 0 c 1xe8
EndSplineSet
Validated: 1
EndChar

StartChar: iacute
Encoding: 295 237 39
GlifName: iacute
Width: 200
Flags: MW
HStem: 0 21G 527 20G<63 137 137 137>
VStem: 63 74<0 547 0 547>
AnchorPoint: "Top" 100 805 basechar 0
LayerCount: 2
Fore
SplineSet
63 0 m 1
 63 0 63 547 63 547 c 1
 63 547 137 547 137 547 c 1
 137 547 137 0 137 0 c 1
 137 0 63 0 63 0 c 1
-13 666 m 1
 -13 666 180 782 180 782 c 1
 180 782 214 724 214 724 c 1
 214 724 21 610 21 610 c 1
 21 610 -13 666 -13 666 c 1
EndSplineSet
Validated: 1
EndChar

StartChar: igrave
Encoding: 296 236 40
GlifName: igrave
Width: 200
Flags: MW
HStem: 0 21G 527 20G<63 137 137 137>
VStem: 63 74<0 547 0 547>
AnchorPoint: "Top" 100 805 basechar 0
LayerCount: 2
Fore
SplineSet
63 0 m 1
 63 0 63 547 63 547 c 1
 63 547 137 547 137 547 c 1
 137 547 137 0 137 0 c 1
 137 0 63 0 63 0 c 1
17 776 m 1
 17 776 215 666 215 666 c 1
 215 666 182 610 182 610 c 1
 182 610 -15 718 -15 718 c 1
 -15 718 17 776 17 776 c 1
EndSplineSet
Validated: 1
EndChar

StartChar: icircumflex
Encoding: 297 238 41
GlifName: icircumflex
Width: 200
Flags: MW
HStem: 0 21G 527 20G<63 137 137 137> 729 20G<68 134 134 134>
VStem: 63 74<0 547 0 547>
AnchorPoint: "Top" 100 805 basechar 0
LayerCount: 2
Fore
SplineSet
63 0 m 1
 63 0 63 547 63 547 c 1
 63 547 137 547 137 547 c 1
 137 547 137 0 137 0 c 1
 137 0 63 0 63 0 c 1
-77 623 m 1
 -77 623 68 749 68 749 c 1
 68 749 134 749 134 749 c 1
 134 749 277 623 277 623 c 1
 277 623 188 623 188 623 c 1
 188 623 102 697 102 697 c 1
 102 697 14 623 14 623 c 1
 14 623 -77 623 -77 623 c 1
EndSplineSet
Validated: 1
EndChar

StartChar: ntilde
Encoding: 298 241 42
GlifName: ntilde
Width: 610
Flags: MW
HStem: 0 21G 492 68<277 330.5> 527 20G<63 137 137 137> 633 64<348.5 362.5 348.5 368.5> 665 63<236.5 251.5>
VStem: 63 74<0 301 476 547> 473 74<0 287 0 324>
AnchorPoint: "Top" 305 805 basechar 0
LayerCount: 2
Fore
SplineSet
63 0 m 1xc6
 63 0 63 547 63 547 c 1
 63 547 137 547 137 547 c 1xa6
 137 547 137 476 137 476 c 1
 183 533 241 560 313 560 c 0
 390 560 456 530 499 475 c 0
 534 428 547 379 547 287 c 2
 547 287 547 0 547 0 c 1
 547 0 473 0 473 0 c 1
 473 0 473 287 473 287 c 2
 473 361 462 402 434 436 c 0
 404 472 357 492 304 492 c 0
 244 492 192 466 163 422 c 0
 144 392 137 360 137 301 c 2
 137 301 137 0 137 0 c 1
 137 0 63 0 63 0 c 1xc6
410 728 m 1x8e
 410 728 443 682 443 682 c 1
 427 656 385 633 352 633 c 0x96
 337 633 320 639 286 655 c 0
 271 661 257 665 246 665 c 0x8e
 227 665 219 661 193 639 c 2
 193 639 186 633 186 633 c 1x96
 186 633 153 679 153 679 c 1
 176 710 210 728 246 728 c 0x8e
 264 728 274 725 305 711 c 0
 322 704 344 697 353 697 c 0x96
 372 697 389 706 410 728 c 1x8e
EndSplineSet
Validated: 1
EndChar

StartChar: odieresis
Encoding: 299 246 43
GlifName: odieresis
Width: 655
Flags: MW
HStem: -13 68<270 392 270 414.5> 492 68<266 388> 623 126<217 291 217 291 217 364 364 438>
VStem: 42 75<209.5 335 209.5 356> 538 75<208 335.5>
AnchorPoint: "Top" 327 805 basechar 0
LayerCount: 2
Fore
SplineSet
332 560 m 0
 493 560 613 437 613 272 c 0
 613 108 495 -13 334 -13 c 0
 167 -13 42 109 42 273 c 0
 42 439 164 560 332 560 c 0
326 492 m 0
 206 492 117 398 117 272 c 0
 117 147 208 55 332 55 c 0
 452 55 538 145 538 271 c 0
 538 400 450 492 326 492 c 0
217 749 m 1
 217 749 291 749 291 749 c 1
 291 749 291 623 291 623 c 1
 291 623 217 623 217 623 c 1
 217 623 217 749 217 749 c 1
364 749 m 1
 364 749 438 749 438 749 c 1
 438 749 438 623 438 623 c 1
 438 623 364 623 364 623 c 1
 364 623 364 749 364 749 c 1
EndSplineSet
Validated: 1
EndChar

StartChar: oacute
Encoding: 300 243 44
GlifName: oacute
Width: 655
Flags: MW
HStem: -13 68<270 392 270 414.5> 492 68<266 388>
VStem: 42 75<209.5 335 209.5 356> 538 75<208 335.5>
AnchorPoint: "Top" 327 805 basechar 0
LayerCount: 2
Fore
SplineSet
332 560 m 0
 493 560 613 437 613 272 c 0
 613 108 495 -13 334 -13 c 0
 167 -13 42 109 42 273 c 0
 42 439 164 560 332 560 c 0
326 492 m 0
 206 492 117 398 117 272 c 0
 117 147 208 55 332 55 c 0
 452 55 538 145 538 271 c 0
 538 400 450 492 326 492 c 0
247 666 m 1
 247 666 440 782 440 782 c 1
 440 782 474 724 474 724 c 1
 474 724 281 610 281 610 c 1
 281 610 247 666 247 666 c 1
EndSplineSet
Validated: 1
EndChar

StartChar: ograve
Encoding: 301 242 45
GlifName: ograve
Width: 655
Flags: MW
HStem: -13 68<270 392 270 414.5> 492 68<266 388>
VStem: 42 75<209.5 335 209.5 356> 538 75<208 335.5>
AnchorPoint: "Top" 327 805 basechar 0
LayerCount: 2
Fore
SplineSet
332 560 m 0
 493 560 613 437 613 272 c 0
 613 108 495 -13 334 -13 c 0
 167 -13 42 109 42 273 c 0
 42 439 164 560 332 560 c 0
326 492 m 0
 206 492 117 398 117 272 c 0
 117 147 208 55 332 55 c 0
 452 55 538 145 538 271 c 0
 538 400 450 492 326 492 c 0
211 776 m 1
 211 776 409 666 409 666 c 1
 409 666 376 610 376 610 c 1
 376 610 179 718 179 718 c 1
 179 718 211 776 211 776 c 1
EndSplineSet
Validated: 1
EndChar

StartChar: ocircumflex
Encoding: 302 244 46
GlifName: ocircumflex
Width: 655
Flags: MW
HStem: -13 68<270 392 270 414.5> 492 68<266 388> 729 20G<295 361 361 361>
VStem: 42 75<209.5 335 209.5 356> 538 75<208 335.5>
AnchorPoint: "Top" 327 805 basechar 0
LayerCount: 2
Fore
SplineSet
332 560 m 0
 493 560 613 437 613 272 c 0
 613 108 495 -13 334 -13 c 0
 167 -13 42 109 42 273 c 0
 42 439 164 560 332 560 c 0
326 492 m 0
 206 492 117 398 117 272 c 0
 117 147 208 55 332 55 c 0
 452 55 538 145 538 271 c 0
 538 400 450 492 326 492 c 0
150 623 m 1
 150 623 295 749 295 749 c 1
 295 749 361 749 361 749 c 1
 361 749 504 623 504 623 c 1
 504 623 415 623 415 623 c 1
 415 623 329 697 329 697 c 1
 329 697 241 623 241 623 c 1
 241 623 150 623 150 623 c 1
EndSplineSet
Validated: 1
EndChar

StartChar: otilde
Encoding: 303 245 47
GlifName: otilde
Width: 655
Flags: W
HStem: -13 68<270 392 270 414.5> 492 68<266 388> 633 64<384.5 398.5 384.5 404.5> 665 63<272.5 287.5>
VStem: 42 75<209.5 335 209.5 356> 538 75<208 335.5>
AnchorPoint: "Top" 327 805 basechar 0
LayerCount: 2
Fore
SplineSet
332 560 m 0xcc
 493 560 613 437 613 272 c 0
 613 108 495 -13 334 -13 c 0
 167 -13 42 109 42 273 c 0
 42 439 164 560 332 560 c 0xcc
326 492 m 0
 206 492 117 398 117 272 c 0
 117 147 208 55 332 55 c 0
 452 55 538 145 538 271 c 0
 538 400 450 492 326 492 c 0
446 728 m 1x20
 446 728 479 682 479 682 c 1
 463 656 421 633 388 633 c 0x20
 373 633 356 639 322 655 c 0
 307 661 293 665 282 665 c 0
 263 665 255 661 229 639 c 2
 229 639 222 633 222 633 c 1
 222 633 189 679 189 679 c 1
 212 710 246 728 282 728 c 0x10
 300 728 310 725 341 711 c 0
 358 704 380 697 389 697 c 0
 408 697 425 706 446 728 c 1x20
EndSplineSet
Validated: 1
EndChar

StartChar: scaron
Encoding: 304 353 48
GlifName: scaron
Width: 388
Flags: MW
HStem: -13 68<164 222 164 244.5> 492 68<171 217> 729 20G<17 106 106 106 280 371 371 371>
VStem: 39 75<397 435 397 450.5> 287 75<122.5 175>
AnchorPoint: "Top" 194 805 basechar 0
LayerCount: 2
Fore
SplineSet
19 161 m 1
 19 161 92 161 92 161 c 1
 96 93 133 55 195 55 c 0
 249 55 287 95 287 150 c 0
 287 200 267 220 181 255 c 0
 104 287 103 287 80 308 c 0
 53 333 39 366 39 406 c 0
 39 495 104 560 194 560 c 0
 282 560 345 500 348 412 c 1
 348 412 273 412 273 412 c 1
 269 464 241 492 193 492 c 0
 149 492 114 457 114 413 c 0
 114 381 130 358 165 340 c 0
 181 333 185 331 267 297 c 0
 331 270 362 224 362 157 c 0
 362 57 294 -13 195 -13 c 0
 89 -13 20 55 19 161 c 1
371 749 m 1
 371 749 226 623 226 623 c 1
 226 623 160 623 160 623 c 1
 160 623 17 749 17 749 c 1
 17 749 106 749 106 749 c 1
 106 749 192 675 192 675 c 1
 192 675 280 749 280 749 c 1
 280 749 371 749 371 749 c 1
EndSplineSet
Validated: 1
EndChar

StartChar: udieresis
Encoding: 305 252 49
GlifName: udieresis
Width: 608
Flags: MW
HStem: -13 68<270.5 329 270.5 337.5> 527 20G<63 137 137 137 471 545 545 545> 623 126<194 268 194 268 194 341 341 415>
VStem: 63 74<252 547> 471 74<0 85 85 85 266 547 0 547>
AnchorPoint: "Top" 304 805 basechar 0
LayerCount: 2
Fore
SplineSet
545 547 m 1
 545 547 545 0 545 0 c 1
 545 0 471 0 471 0 c 1
 471 0 471 85 471 85 c 1
 434 17 380 -13 295 -13 c 0
 210 -13 143 19 103 79 c 0
 75 119 63 173 63 252 c 2
 63 252 63 547 63 547 c 1
 63 547 137 547 137 547 c 1
 137 547 137 252 137 252 c 2
 137 194 146 149 165 120 c 0
 191 79 241 55 300 55 c 0
 358 55 407 79 438 123 c 0
 461 157 471 199 471 266 c 2
 471 266 471 547 471 547 c 1
 471 547 545 547 545 547 c 1
194 749 m 1
 194 749 268 749 268 749 c 1
 268 749 268 623 268 623 c 1
 268 623 194 623 194 623 c 1
 194 623 194 749 194 749 c 1
341 749 m 1
 341 749 415 749 415 749 c 1
 415 749 415 623 415 623 c 1
 415 623 341 623 341 623 c 1
 341 623 341 749 341 749 c 1
EndSplineSet
Validated: 1
EndChar

StartChar: uacute
Encoding: 306 250 50
GlifName: uacute
Width: 608
Flags: MW
HStem: -13 68<270.5 329 270.5 337.5> 527 20G<63 137 137 137 471 545 545 545>
VStem: 63 74<252 547> 471 74<0 85 85 85 266 547 0 547>
AnchorPoint: "Top" 304 805 basechar 0
LayerCount: 2
Fore
SplineSet
545 547 m 1
 545 547 545 0 545 0 c 1
 545 0 471 0 471 0 c 1
 471 0 471 85 471 85 c 1
 434 17 380 -13 295 -13 c 0
 210 -13 143 19 103 79 c 0
 75 119 63 173 63 252 c 2
 63 252 63 547 63 547 c 1
 63 547 137 547 137 547 c 1
 137 547 137 252 137 252 c 2
 137 194 146 149 165 120 c 0
 191 79 241 55 300 55 c 0
 358 55 407 79 438 123 c 0
 461 157 471 199 471 266 c 2
 471 266 471 547 471 547 c 1
 471 547 545 547 545 547 c 1
224 666 m 1
 224 666 417 782 417 782 c 1
 417 782 451 724 451 724 c 1
 451 724 258 610 258 610 c 1
 258 610 224 666 224 666 c 1
EndSplineSet
Validated: 1
EndChar

StartChar: ugrave
Encoding: 307 249 51
GlifName: ugrave
Width: 608
Flags: MW
HStem: -13 68<270.5 329 270.5 337.5> 527 20G<63 137 137 137 471 545 545 545>
VStem: 63 74<252 547> 471 74<0 85 85 85 266 547 0 547>
AnchorPoint: "Top" 304 805 basechar 0
LayerCount: 2
Fore
SplineSet
545 547 m 1
 545 547 545 0 545 0 c 1
 545 0 471 0 471 0 c 1
 471 0 471 85 471 85 c 1
 434 17 380 -13 295 -13 c 0
 210 -13 143 19 103 79 c 0
 75 119 63 173 63 252 c 2
 63 252 63 547 63 547 c 1
 63 547 137 547 137 547 c 1
 137 547 137 252 137 252 c 2
 137 194 146 149 165 120 c 0
 191 79 241 55 300 55 c 0
 358 55 407 79 438 123 c 0
 461 157 471 199 471 266 c 2
 471 266 471 547 471 547 c 1
 471 547 545 547 545 547 c 1
188 776 m 1
 188 776 386 666 386 666 c 1
 386 666 353 610 353 610 c 1
 353 610 156 718 156 718 c 1
 156 718 188 776 188 776 c 1
EndSplineSet
Validated: 1
EndChar

StartChar: ucircumflex
Encoding: 308 251 52
GlifName: ucircumflex
Width: 608
Flags: MW
HStem: -13 68<270.5 329 270.5 337.5> 527 20G<63 137 137 137 471 545 545 545> 729 20G<272 338 338 338>
VStem: 63 74<252 547> 471 74<0 85 85 85 266 547 0 547>
AnchorPoint: "Top" 304 805 basechar 0
LayerCount: 2
Fore
SplineSet
545 547 m 1
 545 547 545 0 545 0 c 1
 545 0 471 0 471 0 c 1
 471 0 471 85 471 85 c 1
 434 17 380 -13 295 -13 c 0
 210 -13 143 19 103 79 c 0
 75 119 63 173 63 252 c 2
 63 252 63 547 63 547 c 1
 63 547 137 547 137 547 c 1
 137 547 137 252 137 252 c 2
 137 194 146 149 165 120 c 0
 191 79 241 55 300 55 c 0
 358 55 407 79 438 123 c 0
 461 157 471 199 471 266 c 2
 471 266 471 547 471 547 c 1
 471 547 545 547 545 547 c 1
127 623 m 1
 127 623 272 749 272 749 c 1
 272 749 338 749 338 749 c 1
 338 749 481 623 481 623 c 1
 481 623 392 623 392 623 c 1
 392 623 306 697 306 697 c 1
 306 697 218 623 218 623 c 1
 218 623 127 623 127 623 c 1
EndSplineSet
Validated: 1
EndChar

StartChar: yacute
Encoding: 309 253 53
GlifName: yacute
Width: 536
Flags: MW
HStem: -192 21G 527 20G<9 90 90 90 448 527 527 527>
AnchorPoint: "Top" 265 805 basechar 0
LayerCount: 2
Fore
SplineSet
132 -192 m 1
 132 -192 221 18 221 18 c 1
 221 18 9 547 9 547 c 1
 9 547 90 547 90 547 c 1
 90 547 263 111 263 111 c 1
 263 111 448 547 448 547 c 1
 448 547 527 547 527 547 c 1
 527 547 211 -192 211 -192 c 1
 211 -192 132 -192 132 -192 c 1
195 666 m 1
 195 666 388 782 388 782 c 1
 388 782 422 724 422 724 c 1
 422 724 229 610 229 610 c 1
 229 610 195 666 195 666 c 1
EndSplineSet
Validated: 1
EndChar

StartChar: zcaron
Encoding: 310 382 54
GlifName: zcaron
Width: 425
Flags: MW
HStem: 0 67<10 10 97 415> 480 67<20 312 20 396> 729 20G<35 124 124 124 298 389 389 389>
AnchorPoint: "Top" 212 805 basechar 0
LayerCount: 2
Fore
SplineSet
10 0 m 1
 10 0 10 67 10 67 c 1
 10 67 312 480 312 480 c 1
 312 480 20 480 20 480 c 1
 20 480 20 547 20 547 c 1
 20 547 396 547 396 547 c 1
 396 547 396 484 396 484 c 1
 396 484 97 67 97 67 c 1
 97 67 415 67 415 67 c 1
 415 67 415 0 415 0 c 1
 415 0 10 0 10 0 c 1
389 749 m 1
 389 749 244 623 244 623 c 1
 244 623 178 623 178 623 c 1
 178 623 35 749 35 749 c 1
 35 749 124 749 124 749 c 1
 124 749 210 675 210 675 c 1
 210 675 298 749 298 749 c 1
 298 749 389 749 389 749 c 1
EndSplineSet
Validated: 1
EndChar

StartChar: ydieresis
Encoding: 311 255 55
GlifName: ydieresis
Width: 536
Flags: MW
HStem: -192 21G 527 20G<9 90 90 90 448 527 527 527> 623 126<155 229 155 229 155 302 302 376>
AnchorPoint: "Top" 265 805 basechar 0
LayerCount: 2
Fore
SplineSet
132 -192 m 1
 132 -192 221 18 221 18 c 1
 221 18 9 547 9 547 c 1
 9 547 90 547 90 547 c 1
 90 547 263 111 263 111 c 1
 263 111 448 547 448 547 c 1
 448 547 527 547 527 547 c 1
 527 547 211 -192 211 -192 c 1
 211 -192 132 -192 132 -192 c 1
155 749 m 1
 155 749 229 749 229 749 c 1
 229 749 229 623 229 623 c 1
 229 623 155 623 155 623 c 1
 155 623 155 749 155 749 c 1
302 749 m 1
 302 749 376 749 376 749 c 1
 376 749 376 623 376 623 c 1
 376 623 302 623 302 623 c 1
 302 623 302 749 302 749 c 1
EndSplineSet
Validated: 1
EndChar

StartChar: A
Encoding: 65 65 56
GlifName: A_
Width: 740
Flags: MW
HStem: 0 21G 249 67<225 512 225 541 197 512> 719 20G<328 411 411 411>
AnchorPoint: "Top" 370 805 basechar 0
LayerCount: 2
Fore
SplineSet
11 0 m 1
 11 0 328 739 328 739 c 1
 328 739 411 739 411 739 c 1
 411 739 729 0 729 0 c 1
 729 0 648 0 648 0 c 1
 648 0 541 249 541 249 c 1
 541 249 197 249 197 249 c 1
 197 249 89 0 89 0 c 1
 89 0 11 0 11 0 c 1
225 316 m 1
 225 316 512 316 512 316 c 1
 512 316 370 655 370 655 c 1
 370 655 225 316 225 316 c 1
EndSplineSet
Validated: 1
EndChar

StartChar: B
Encoding: 66 66 57
GlifName: B_
Width: 574
Flags: W
HStem: 0 67<150 251 251 259> 354 67<150 238 150 240> 672 67<150 239 150 150>
VStem: 76 74<67 67 67 354 421 672> 427 75<520.5 568> 469 75<182.5 241>
AnchorPoint: "Top" 265 805 basechar 0
LayerCount: 2
Fore
SplineSet
76 0 m 1xf4
 76 0 76 739 76 739 c 1
 76 739 249 739 249 739 c 2
 339 739 394 726 436 696 c 0
 478 665 502 611 502 547 c 0xf8
 502 474 477 426 420 394 c 1
 506 358 544 303 544 212 c 0
 544 136 513 71 461 39 c 0
 414 11 358 0 259 0 c 2
 259 0 76 0 76 0 c 1xf4
150 67 m 1
 150 67 251 67 251 67 c 2
 326 67 376 75 411 94 c 0
 446 112 469 157 469 208 c 0xf4
 469 274 437 323 384 340 c 0
 351 350 314 354 238 354 c 2
 238 354 150 354 150 354 c 1
 150 354 150 67 150 67 c 1
150 421 m 1
 150 421 240 421 240 421 c 2
 307 421 339 426 370 440 c 0
 407 457 427 495 427 546 c 0xf8
 427 590 410 629 384 646 c 0
 356 665 315 672 239 672 c 2
 239 672 150 672 150 672 c 1
 150 672 150 421 150 421 c 1
EndSplineSet
Validated: 1
EndChar

StartChar: C
Encoding: 67 67 58
GlifName: C_
Width: 813
Flags: MW
HStem: -13 68<345 465.5 345 507> 684 68<341.5 461.5>
VStem: 44 75<283 459 283 477.5>
AnchorPoint: "Top" 427 805 basechar 0
LayerCount: 2
Fore
SplineSet
688 194 m 1
 688 194 770 194 770 194 c 1
 696 57 582 -13 432 -13 c 0
 211 -13 44 151 44 367 c 0
 44 588 207 752 427 752 c 0
 580 752 710 674 767 547 c 1
 767 547 684 547 684 547 c 1
 655 593 634 615 599 637 c 0
 550 668 493 684 430 684 c 0
 253 684 119 548 119 370 c 0
 119 196 259 55 431 55 c 0
 500 55 567 78 618 119 c 0
 641 138 659 156 688 194 c 1
EndSplineSet
Validated: 1
EndChar

StartChar: D
Encoding: 68 68 59
GlifName: D_
Width: 744
Flags: MW
HStem: 0 67<150 253 253 275> 672 67<150 250 250 253 150 150>
VStem: 76 74<67 67 67 672> 625 75<323 426.5>
AnchorPoint: "Top" 330 805 basechar 0
LayerCount: 2
Fore
SplineSet
76 0 m 1
 76 0 76 739 76 739 c 1
 76 739 250 739 250 739 c 2
 388 739 468 722 540 676 c 0
 645 610 700 503 700 367 c 0
 700 226 638 115 522 51 c 0
 458 16 382 0 275 0 c 2
 275 0 76 0 76 0 c 1
150 67 m 1
 150 67 253 67 253 67 c 2
 388 67 465 87 525 138 c 0
 589 193 625 276 625 370 c 0
 625 483 573 578 484 628 c 0
 430 659 361 672 253 672 c 2
 253 672 150 672 150 672 c 1
 150 672 150 67 150 67 c 1
EndSplineSet
Validated: 1
EndChar

StartChar: E
Encoding: 69 69 60
GlifName: E_
Width: 536
Flags: MW
HStem: 0 67<150 480 150 480> 340 67<150 469 150 469> 672 67<150 480 150 150>
VStem: 76 74<67 340 407 672>
AnchorPoint: "Top" 278 805 basechar 0
LayerCount: 2
Fore
SplineSet
76 0 m 1
 76 0 76 739 76 739 c 1
 76 739 480 739 480 739 c 1
 480 739 480 672 480 672 c 1
 480 672 150 672 150 672 c 1
 150 672 150 407 150 407 c 1
 150 407 469 407 469 407 c 1
 469 407 469 340 469 340 c 1
 469 340 150 340 150 340 c 1
 150 340 150 67 150 67 c 1
 150 67 480 67 480 67 c 1
 480 67 480 0 480 0 c 1
 480 0 76 0 76 0 c 1
EndSplineSet
Validated: 1
EndChar

StartChar: F
Encoding: 70 70 61
GlifName: F_
Width: 485
Flags: MW
HStem: 0 21G 338 67<150 440 150 440> 672 67<150 451 150 150>
VStem: 76 74<0 338 405 672>
AnchorPoint: "Top" 260 805 basechar 0
LayerCount: 2
Fore
SplineSet
76 0 m 1
 76 0 76 739 76 739 c 1
 76 739 451 739 451 739 c 1
 451 739 451 672 451 672 c 1
 451 672 150 672 150 672 c 1
 150 672 150 405 150 405 c 1
 150 405 440 405 440 405 c 1
 440 405 440 338 440 338 c 1
 440 338 150 338 150 338 c 1
 150 338 150 0 150 0 c 1
 150 0 76 0 76 0 c 1
EndSplineSet
Validated: 1
EndChar

StartChar: G
Encoding: 71 71 62
GlifName: G_
Width: 872
Flags: MW
HStem: -13 68<352.5 487 352.5 503> 274 67<329 742 329 831> 684 68<350.5 499>
VStem: 44 75<281 458 281 478>
AnchorPoint: "Top" 438 805 basechar 0
LayerCount: 2
Fore
SplineSet
329 341 m 1
 329 341 831 341 831 341 c 1
 826 255 791 174 728 106 c 0
 657 28 560 -13 446 -13 c 0
 219 -13 44 154 44 371 c 0
 44 585 216 752 436 752 c 0
 597 752 737 668 786 542 c 1
 786 542 703 542 703 542 c 1
 652 632 556 684 442 684 c 0
 259 684 119 547 119 369 c 0
 119 193 262 55 443 55 c 0
 531 55 610 87 668 147 c 0
 708 189 731 228 742 274 c 1
 742 274 329 274 329 274 c 1
 329 274 329 341 329 341 c 1
EndSplineSet
Validated: 1
EndChar

StartChar: H
Encoding: 72 72 63
GlifName: H_
Width: 683
Flags: MW
HStem: 0 21G 347 67<150 533 150 533> 719 20G<76 150 150 150 533 607 607 607>
VStem: 76 74<0 347 414 739> 533 74<0 347 347 347 414 739 0 739>
AnchorPoint: "Top" 341 805 basechar 0
LayerCount: 2
Fore
SplineSet
76 0 m 5
 76 0 76 739 76 739 c 5
 76 739 150 739 150 739 c 5
 150 739 150 414 150 414 c 5
 150 414 533 414 533 414 c 5
 533 414 533 739 533 739 c 5
 533 739 607 739 607 739 c 5
 607 739 607 0 607 0 c 5
 607 0 533 0 533 0 c 5
 533 0 533 347 533 347 c 5
 533 347 150 347 150 347 c 5
 150 347 150 0 150 0 c 5
 150 0 76 0 76 0 c 5
EndSplineSet
Validated: 1
EndChar

StartChar: I
Encoding: 73 73 64
GlifName: I_
Width: 226
Flags: MW
HStem: 0 21G 719 20G<76 150 150 150>
VStem: 76 74<0 739 0 739>
AnchorPoint: "Top" 113 805 basechar 0
LayerCount: 2
Fore
SplineSet
76 0 m 5
 76 0 76 739 76 739 c 5
 76 739 150 739 150 739 c 5
 150 739 150 0 150 0 c 5
 150 0 76 0 76 0 c 5
EndSplineSet
Validated: 1
EndChar

StartChar: J
Encoding: 74 74 65
GlifName: J_
Width: 482
Flags: MW
HStem: -14 68<173.5 250 173.5 273> 719 20G<332 406 406 406>
VStem: 332 74<231 739>
AnchorPoint: "Top" 369 805 basechar 0
LayerCount: 2
Fore
SplineSet
406 739 m 1
 406 739 406 231 406 231 c 2
 406 72 337 -14 209 -14 c 0
 91 -14 17 57 11 175 c 1
 11 175 84 175 84 175 c 1
 89 100 137 54 210 54 c 0
 290 54 332 114 332 231 c 2
 332 231 332 739 332 739 c 1
 332 739 406 739 406 739 c 1
EndSplineSet
Validated: 1
EndChar

StartChar: K
Encoding: 75 75 66
GlifName: K_
Width: 591
Flags: MW
HStem: 0 21G 719 20G<76 150 150 150 492 585 585 585>
VStem: 76 74<0 202 314 739>
AnchorPoint: "Top" 312 805 basechar 0
LayerCount: 2
Fore
SplineSet
76 0 m 1
 76 0 76 739 76 739 c 1
 76 739 150 739 150 739 c 1
 150 739 150 314 150 314 c 1
 150 314 492 739 492 739 c 1
 492 739 585 739 585 739 c 1
 585 739 293 379 293 379 c 1
 293 379 585 0 585 0 c 1
 585 0 492 0 492 0 c 1
 492 0 246 320 246 320 c 1
 246 320 150 202 150 202 c 1
 150 202 150 0 150 0 c 1
 150 0 76 0 76 0 c 1
EndSplineSet
Validated: 1
EndChar

StartChar: L
Encoding: 76 76 67
GlifName: L_
Width: 462
Flags: MW
HStem: 0 67<150 456 150 456> 719 20G<76 150 150 150>
VStem: 76 74<67 739 67 739 67 739>
AnchorPoint: "Top" 113 805 basechar 0
LayerCount: 2
Fore
SplineSet
76 0 m 1
 76 0 76 739 76 739 c 1
 76 739 150 739 150 739 c 1
 150 739 150 67 150 67 c 1
 150 67 456 67 456 67 c 1
 456 67 456 0 456 0 c 1
 456 0 76 0 76 0 c 1
EndSplineSet
Validated: 1
EndChar

StartChar: M
Encoding: 77 77 68
GlifName: M_
Width: 919
Flags: MW
HStem: 0 21G 719 20G<76 191 191 191 728 843 843 843>
VStem: 76 74<0 658 0 739> 769 74<0 658 658 658>
AnchorPoint: "Top" 460 805 basechar 0
LayerCount: 2
Fore
SplineSet
76 0 m 1
 76 0 76 739 76 739 c 1
 76 739 191 739 191 739 c 1
 191 739 460 110 460 110 c 1
 460 110 728 739 728 739 c 1
 728 739 843 739 843 739 c 1
 843 739 843 0 843 0 c 1
 843 0 769 0 769 0 c 1
 769 0 769 658 769 658 c 1
 769 658 491 0 491 0 c 1
 491 0 427 0 427 0 c 1
 427 0 150 658 150 658 c 1
 150 658 150 0 150 0 c 1
 150 0 76 0 76 0 c 1
EndSplineSet
Validated: 1
EndChar

StartChar: N
Encoding: 78 78 69
GlifName: N_
Width: 740
Flags: MW
HStem: 0 21G 719 20G<76 176 176 176 590 664 664 664>
VStem: 76 74<0 650 0 739> 590 74<0 739 126 739 0 739>
AnchorPoint: "Top" 370 805 basechar 0
LayerCount: 2
Fore
SplineSet
76 0 m 1
 76 0 76 739 76 739 c 1
 76 739 176 739 176 739 c 1
 176 739 590 126 590 126 c 1
 590 126 590 739 590 739 c 1
 590 739 664 739 664 739 c 1
 664 739 664 0 664 0 c 1
 664 0 590 0 590 0 c 1
 590 0 150 650 150 650 c 1
 150 650 150 0 150 0 c 1
 150 0 76 0 76 0 c 1
EndSplineSet
Validated: 1
EndChar

StartChar: O
Encoding: 79 79 70
GlifName: O_
Width: 869
Flags: MW
HStem: -13 68<348.5 521 348.5 542> 684 68<346.5 519.5>
VStem: 44 75<283 454 283 475.5> 750 75<282.5 455.5>
AnchorPoint: "Top" 434 805 basechar 0
LayerCount: 2
Fore
SplineSet
440 752 m 4
 649 752 825 578 825 369 c 4
 825 159 649 -13 435 -13 c 4
 221 -13 44 160 44 369 c 4
 44 582 220 752 440 752 c 4
431 684 m 4
 262 684 119 539 119 369 c 4
 119 197 262 55 435 55 c 4
 607 55 750 197 750 368 c 4
 750 543 608 684 431 684 c 4
EndSplineSet
Validated: 1
EndChar

StartChar: P
Encoding: 80 80 71
GlifName: P_
Width: 592
Flags: MW
HStem: 0 21G 299 67<150 287 287 292 150 287> 672 67<150 255 150 150>
VStem: 76 74<0 299 366 672> 490 75<487 552>
AnchorPoint: "Top" 290 805 basechar 0
LayerCount: 2
Back
SplineSet
76 0 m 1
 76 740 l 1
 310 740 l 2
 527 740 565 602 565 518 c 0
 565 408 497 297 310 297 c 2
 150 297 l 1
 150 0 l 1
 76 0 l 1
150 673 m 1
 150 364 l 1
 311 364 l 2
 443 364 491 441 491 518 c 0
 491 597 443 673 311 673 c 2
 150 673 l 1
EndSplineSet
Fore
SplineSet
76 0 m 1
 76 0 76 739 76 739 c 1
 76 739 280 739 280 739 c 2
 375 739 431 728 477 700 c 0
 533 667 565 600 565 515 c 0
 565 441 539 380 491 345 c 0
 446 312 392 299 292 299 c 2
 292 299 150 299 150 299 c 1
 150 299 150 0 150 0 c 1
 150 0 76 0 76 0 c 1
150 366 m 1
 150 366 287 366 287 366 c 2
 355 366 398 373 429 391 c 0
 468 412 490 458 490 516 c 0
 490 588 460 639 407 656 c 0
 374 667 328 672 255 672 c 2
 255 672 150 672 150 672 c 1
 150 672 150 366 150 366 c 1
EndSplineSet
Validated: 1
EndChar

StartChar: Q
Encoding: 81 81 72
GlifName: Q_
Width: 871
Flags: MW
HStem: -13 68<384.5 474.5 384.5 484> 237 68<259.5 340> 684 68<350.5 533>
VStem: 44 75<349 454 349 478.5> 764 75<327.5 459.5>
AnchorPoint: "Top" 442 805 basechar 0
LayerCount: 2
Fore
SplineSet
827 56 m 1
 827 56 827 -13 827 -13 c 1
 758 -12 716 4 665 51 c 1
 602 9 525 -13 443 -13 c 0
 221 -13 44 156 44 369 c 0
 44 588 215 752 444 752 c 0
 671 752 839 590 839 371 c 0
 839 257 796 161 716 93 c 1
 753 66 781 55 812 55 c 0
 815 55 820 55 827 56 c 1
161 216 m 1
 213 119 326 55 443 55 c 0
 506 55 556 69 605 100 c 1
 498 198 403 237 277 237 c 0
 230 237 201 232 161 216 c 1
130 279 m 1
 187 298 231 305 288 305 c 0
 395 305 487 276 572 215 c 0
 601 193 629 171 663 142 c 1
 731 208 764 284 764 371 c 0
 764 548 624 684 442 684 c 0
 259 684 119 545 119 363 c 0
 119 335 122 316 130 279 c 1
EndSplineSet
Validated: 1
EndChar

StartChar: R
Encoding: 82 82 73
GlifName: R_
Width: 607
Flags: MW
HStem: 0 21G 672 67<150 254 150 150>
VStem: 76 74<0 672 0 739 0 739> 502 75<462.5 537>
AnchorPoint: "Top" 300 805 basechar 0
LayerCount: 2
Fore
SplineSet
359 276 m 1
 359 276 566 0 566 0 c 1
 566 0 474 0 474 0 c 1
 474 0 225 335 225 335 c 1
 315 335 360 339 395 349 c 0
 466 370 502 422 502 503 c 0
 502 571 474 621 424 645 c 0
 384 664 332 672 254 672 c 2
 254 672 150 672 150 672 c 1
 150 672 150 0 150 0 c 1
 150 0 76 0 76 0 c 1
 76 0 76 739 76 739 c 1
 76 739 259 739 259 739 c 2
 360 739 424 727 471 701 c 0
 540 661 577 592 577 502 c 0
 577 370 501 291 359 276 c 1
EndSplineSet
Validated: 1
EndChar

StartChar: S
Encoding: 83 83 74
GlifName: S_
Width: 498
Flags: MW
HStem: -13 68<232 297.5 232 317> 684 68<212 286.5>
VStem: 46 75<538 592.5 538 611> 401 75<159.5 224.5>
AnchorPoint: "Top" 259 805 basechar 0
LayerCount: 2
Fore
SplineSet
22 207 m 1
 22 207 101 207 101 207 c 1
 106 160 116 133 138 107 c 0
 165 74 209 55 255 55 c 0
 340 55 401 117 401 202 c 0
 401 247 383 285 351 308 c 0
 326 325 294 339 236 356 c 0
 149 383 127 394 98 422 c 0
 65 453 46 502 46 553 c 0
 46 669 132 752 251 752 c 4
 372 752 455 672 458 552 c 1
 458 552 381 552 381 552 c 1
 376 632 324 684 249 684 c 0
 175 684 121 630 121 555 c 0
 121 521 135 488 156 469 c 0
 176 452 198 443 265 423 c 0
 341 400 372 386 403 364 c 0
 449 329 476 271 476 206 c 0
 476 80 381 -13 253 -13 c 0
 120 -13 29 74 22 207 c 1
EndSplineSet
Validated: 1
EndChar

StartChar: T
Encoding: 84 84 75
GlifName: T_
Width: 426
Flags: MW
HStem: 0 21G 672 67<7 176 7 419 250 250 250 419>
VStem: 176 74<0 672 0 672>
AnchorPoint: "Top" 213 805 basechar 0
LayerCount: 2
Fore
SplineSet
176 0 m 5
 176 0 176 672 176 672 c 5
 176 672 7 672 7 672 c 5
 7 672 7 739 7 739 c 5
 7 739 419 739 419 739 c 5
 419 739 419 672 419 672 c 5
 419 672 250 672 250 672 c 5
 250 672 250 0 250 0 c 5
 250 0 176 0 176 0 c 5
EndSplineSet
Validated: 1
EndChar

StartChar: U
Encoding: 85 85 76
GlifName: U_
Width: 655
Flags: MW
HStem: -13 68<297 357.5 297 368.5> 719 20G<76 150 150 150 505 579 579 579>
VStem: 76 74<278 739> 505 74<278 739>
AnchorPoint: "Top" 327 805 basechar 0
LayerCount: 2
Fore
SplineSet
76 739 m 5
 76 739 150 739 150 739 c 5
 150 739 150 278 150 278 c 6
 150 211 161 160 184 125 c 4
 212 82 267 55 327 55 c 4
 388 55 443 82 471 125 c 4
 494 160 505 211 505 278 c 6
 505 278 505 739 505 739 c 5
 505 739 579 739 579 739 c 5
 579 739 579 278 579 278 c 6
 579 183 564 127 527 78 c 4
 483 20 410 -13 327 -13 c 4
 245 -13 172 20 128 78 c 4
 91 127 76 183 76 278 c 6
 76 278 76 739 76 739 c 5
EndSplineSet
Validated: 1
EndChar

StartChar: V
Encoding: 86 86 77
GlifName: V_
Width: 702
Flags: MW
HStem: 0 21G 719 20G<10 91 91 91 612 692 692 692>
AnchorPoint: "Top" 351 805 basechar 0
LayerCount: 2
Fore
SplineSet
314 0 m 1
 314 0 10 739 10 739 c 1
 10 739 91 739 91 739 c 1
 91 739 351 92 351 92 c 1
 351 92 612 739 612 739 c 1
 612 739 692 739 692 739 c 1
 692 739 386 0 386 0 c 1
 386 0 314 0 314 0 c 1
EndSplineSet
Validated: 1
EndChar

StartChar: W
Encoding: 87 87 78
GlifName: W_
Width: 960
Flags: MW
HStem: 0 21G 719 20G<10 86 86 86 445 515 515 515 874 950 950 950>
AnchorPoint: "Top" 480 805 basechar 0
LayerCount: 2
Fore
SplineSet
221 0 m 5
 221 0 10 739 10 739 c 5
 10 739 86 739 86 739 c 5
 86 739 268 96 268 96 c 5
 268 96 445 739 445 739 c 5
 445 739 515 739 515 739 c 5
 515 739 692 96 692 96 c 5
 692 96 874 739 874 739 c 5
 874 739 950 739 950 739 c 5
 950 739 738 0 738 0 c 5
 738 0 643 0 643 0 c 5
 643 0 479 606 479 606 c 5
 479 606 317 0 317 0 c 5
 317 0 221 0 221 0 c 5
EndSplineSet
Validated: 1
EndChar

StartChar: X
Encoding: 88 88 79
GlifName: X_
Width: 609
Flags: MW
HStem: 0 21G 719 20G<22 109 109 109 500 586 586 586>
AnchorPoint: "Top" 304 805 basechar 0
LayerCount: 2
Fore
SplineSet
8 0 m 1
 8 0 259 378 259 378 c 1
 259 378 22 739 22 739 c 1
 22 739 109 739 109 739 c 1
 109 739 305 443 305 443 c 1
 305 443 500 739 500 739 c 1
 500 739 586 739 586 739 c 1
 586 739 349 378 349 378 c 1
 349 378 601 0 601 0 c 1
 601 0 514 0 514 0 c 1
 514 0 305 316 305 316 c 1
 305 316 95 0 95 0 c 1
 95 0 8 0 8 0 c 1
EndSplineSet
Validated: 1
EndChar

StartChar: Y
Encoding: 89 89 80
GlifName: Y_
Width: 592
Flags: MW
HStem: 0 21G 719 20G<2 84 84 84 509 590 590 590>
VStem: 258 74<0 247 0 247>
AnchorPoint: "Top" 296 805 basechar 0
LayerCount: 2
Fore
SplineSet
258 0 m 1
 258 0 258 247 258 247 c 1
 258 247 2 739 2 739 c 1
 2 739 84 739 84 739 c 1
 84 739 294 325 294 325 c 1
 294 325 509 739 509 739 c 1
 509 739 590 739 590 739 c 1
 590 739 332 247 332 247 c 1
 332 247 332 0 332 0 c 1
 332 0 258 0 258 0 c 1
EndSplineSet
Validated: 1
EndChar

StartChar: Z
Encoding: 90 90 81
GlifName: Z_
Width: 480
Flags: MW
HStem: 0 67<17 17 101 474> 672 67<28 380 28 463 28 463>
AnchorPoint: "Top" 249 805 basechar 0
LayerCount: 2
Fore
SplineSet
17 0 m 1
 17 0 17 67 17 67 c 1
 17 67 380 672 380 672 c 1
 380 672 28 672 28 672 c 1
 28 672 28 739 28 739 c 1
 28 739 463 739 463 739 c 1
 463 739 463 672 463 672 c 1
 463 672 101 67 101 67 c 1
 101 67 474 67 474 67 c 1
 474 67 474 0 474 0 c 1
 474 0 17 0 17 0 c 1
EndSplineSet
Validated: 1
EndChar

StartChar: AE
Encoding: 312 198 82
GlifName: A_E_
Width: 992
Flags: MW
HStem: 0 67<617 936 617 936> 250 67<319 543 319 543 272 543> 340 67<617 925 617 925> 672 67<617 936 617 617>
VStem: 543 74<67 250 250 250 317 340 407 644 644 644>
AnchorPoint: "Top" 538 805 basechar 0
LayerCount: 2
Fore
SplineSet
11 0 m 1
 11 0 522 739 522 739 c 1
 522 739 936 739 936 739 c 1
 936 739 936 672 936 672 c 1
 936 672 617 672 617 672 c 1
 617 672 617 407 617 407 c 1
 617 407 925 407 925 407 c 1
 925 407 925 340 925 340 c 1
 925 340 617 340 617 340 c 1
 617 340 617 67 617 67 c 1
 617 67 936 67 936 67 c 1
 936 67 936 0 936 0 c 1
 936 0 543 0 543 0 c 1
 543 0 543 250 543 250 c 1
 543 250 272 250 272 250 c 1
 272 250 99 0 99 0 c 1
 99 0 11 0 11 0 c 1
319 317 m 1
 319 317 543 317 543 317 c 1
 543 317 543 644 543 644 c 1
 543 644 319 317 319 317 c 1
EndSplineSet
Validated: 1
EndChar

StartChar: OE
Encoding: 313 338 83
GlifName: O_E_
Width: 1194
Flags: W
HStem: -13 68<347.5 512.5> 0 67<819 1138 819 1138> 340 67<819 1127 819 1127> 672 67<819 1138 819 819> 684 68<339 501.5 321 521>
VStem: 44 75<281.5 460.5 281.5 480> 745 74<67 151 151 151 592 672>
AnchorPoint: "Top" 695 805 basechar 0
LayerCount: 2
Fore
SplineSet
745 739 m 1x16
 745 739 1138 739 1138 739 c 1
 1138 739 1138 672 1138 672 c 1
 1138 672 819 672 819 672 c 1
 819 672 819 407 819 407 c 1
 819 407 1127 407 1127 407 c 1
 1127 407 1127 340 1127 340 c 1
 1127 340 819 340 819 340 c 1
 819 340 819 67 819 67 c 1
 819 67 1138 67 1138 67 c 1
 1138 67 1138 0 1138 0 c 1
 1138 0 745 0 745 0 c 1x76
 745 0 745 151 745 151 c 1
 684 44 580 -13 445 -13 c 0
 214 -13 44 150 44 371 c 0
 44 589 210 752 432 752 c 0x8e
 571 752 683 695 745 592 c 1
 745 592 745 739 745 739 c 1x16
427 684 m 0x8e
 251 684 119 550 119 371 c 0
 119 192 257 55 438 55 c 0
 616 55 746 188 746 371 c 0
 746 555 615 684 427 684 c 0x8e
EndSplineSet
Validated: 1
EndChar

StartChar: Oslash
Encoding: 314 216 84
GlifName: O_slash
Width: 868
Flags: MW
HStem: -13 68<406.5 523.5 406.5 545.5> 684 68<342.5 460.5>
VStem: 44 75<321 455.5 321 477> 749 75<281 415>
AnchorPoint: "Top" 434 805 basechar 0
LayerCount: 2
Fore
SplineSet
83 -42 m 1
 83 -42 176 82 176 82 c 1
 91 153 44 255 44 370 c 0
 44 584 214 752 431 752 c 0
 507 752 586 731 636 696 c 1
 636 696 730 821 730 821 c 1
 730 821 784 779 784 779 c 1
 784 779 692 656 692 656 c 1
 780 582 824 487 824 372 c 0
 824 157 653 -13 438 -13 c 0
 365 -13 293 6 233 42 c 1
 233 42 139 -83 139 -83 c 1
 139 -83 83 -42 83 -42 c 1
219 138 m 1
 219 138 595 641 595 641 c 1
 549 669 491 684 430 684 c 0
 255 684 119 545 119 366 c 0
 119 276 152 201 219 138 c 1
650 600 m 1
 650 600 274 97 274 97 c 1
 331 67 377 55 436 55 c 0
 611 55 749 193 749 369 c 0
 749 461 718 534 650 600 c 1
EndSplineSet
Validated: 1
EndChar

StartChar: Ccedilla
Encoding: 315 199 85
GlifName: C_cedilla
Width: 813
Flags: MW
HStem: -240 47<411.5 437 411.5 451> -99 38<433 435.5> 684 68<341.5 461.5>
VStem: 44 75<303 459 283 477.5> 468 48<-161 -133>
AnchorPoint: "Top" 427 805 basechar 0
LayerCount: 2
Fore
SplineSet
429 -13 m 1
 429 -13 405 -68 405 -68 c 1
 419 -63 427 -61 439 -61 c 0
 485 -61 516 -95 516 -145 c 0
 516 -201 478 -240 424 -240 c 0
 377 -240 345 -214 331 -166 c 1
 331 -166 378 -159 378 -159 c 1
 386 -183 400 -193 423 -193 c 4
 451 -193 468 -175 468 -147 c 0
 468 -119 449 -99 422 -99 c 0
 404 -99 393 -105 378 -121 c 1
 378 -121 348 -103 348 -103 c 1
 348 -103 390 -12 390 -12 c 1
 304 1 258 18 203 57 c 0
 99 131 44 239 44 367 c 0
 44 588 207 752 427 752 c 0
 580 752 710 674 767 547 c 1
 767 547 684 547 684 547 c 1
 655 593 634 615 599 637 c 0
 550 668 493 684 430 684 c 0
 253 684 119 548 119 370 c 0
 119 196 259 55 431 55 c 0
 500 55 567 78 618 119 c 0
 641 138 659 156 688 194 c 1
 688 194 770 194 770 194 c 1
 699 58 583 -13 429 -13 c 1
EndSplineSet
Validated: 1
EndChar

StartChar: Eth
Encoding: 316 208 86
GlifName: E_th
Width: 790
Flags: MW
HStem: 0 67<196 299 299 321> 347 67<26 122 26 122 196 401> 672 67<196 296 296 299 196 196>
VStem: 122 74<67 347 67 347 67 347 414 672> 671 75<323 426.5>
AnchorPoint: "Top" 330 805 basechar 0
LayerCount: 2
Fore
SplineSet
122 347 m 1
 122 347 26 347 26 347 c 1
 26 347 26 414 26 414 c 1
 26 414 122 414 122 414 c 1
 122 414 122 739 122 739 c 1
 122 739 296 739 296 739 c 2
 434 739 514 722 586 676 c 0
 691 610 746 503 746 367 c 0
 746 226 684 115 568 51 c 0
 504 16 428 0 321 0 c 2
 321 0 122 0 122 0 c 1
 122 0 122 347 122 347 c 1
196 347 m 1
 196 347 196 67 196 67 c 1
 196 67 299 67 299 67 c 2
 434 67 511 87 571 138 c 0
 635 193 671 276 671 370 c 0
 671 483 619 578 530 628 c 0
 476 659 407 672 299 672 c 2
 299 672 196 672 196 672 c 1
 196 672 196 414 196 414 c 1
 196 414 401 414 401 414 c 1
 401 414 401 347 401 347 c 1
 401 347 196 347 196 347 c 1
EndSplineSet
Validated: 1
EndChar

StartChar: Lslash
Encoding: 317 321 87
GlifName: L_slash
Width: 517
Flags: MW
HStem: 0 67<196 502 196 502> 719 20G<122 196 196 196>
VStem: 122 74<67 303 303 303 436 739>
AnchorPoint: "Top" 159 805 basechar 0
LayerCount: 2
Fore
SplineSet
122 0 m 1
 122 0 122 303 122 303 c 1
 122 303 26 224 26 224 c 1
 26 224 26 307 26 307 c 1
 26 307 122 387 122 387 c 1
 122 387 122 739 122 739 c 1
 122 739 196 739 196 739 c 1
 196 739 196 436 196 436 c 1
 196 436 356 569 356 569 c 1
 356 569 356 485 356 485 c 1
 356 485 196 353 196 353 c 1
 196 353 196 67 196 67 c 1
 196 67 502 67 502 67 c 1
 502 67 502 0 502 0 c 1
 502 0 122 0 122 0 c 1
EndSplineSet
Validated: 1
EndChar

StartChar: Thorn
Encoding: 318 222 88
GlifName: T_horn
Width: 592
Flags: MW
HStem: 0 21G 166 67<150 287 287 292 150 287> 539 67<150 255 150 150> 719 20G<76 143 143 143>
VStem: 76 67<606 739 606 739 606 739> 76 74<0 166 233 539> 490 75<354 419>
AnchorPoint: "Top" 296 805 basechar 0
LayerCount: 2
Fore
SplineSet
76 0 m 1xf6
 76 0 76 739 76 739 c 1
 76 739 143 739 143 739 c 1
 143 739 143 606 143 606 c 1xfa
 143 606 280 606 280 606 c 2
 375 606 431 595 477 567 c 0
 533 534 565 467 565 382 c 0
 565 308 539 247 491 212 c 0
 446 179 392 166 292 166 c 2
 292 166 150 166 150 166 c 1
 150 166 150 0 150 0 c 1
 150 0 76 0 76 0 c 1xf6
150 233 m 1xf6
 150 233 287 233 287 233 c 2
 355 233 398 240 429 258 c 0
 468 279 490 325 490 383 c 0
 490 455 460 506 407 523 c 0
 374 534 328 539 255 539 c 2
 255 539 150 539 150 539 c 1
 150 539 150 233 150 233 c 1xf6
EndSplineSet
Validated: 1
EndChar

StartChar: a
Encoding: 97 97 89
GlifName: a
Width: 683
Flags: MW
HStem: -13 68<274.5 382.5> 492 68<270.5 377.5 248 391> 527 20G<546 620 620 620>
VStem: 42 75<213.5 335 213.5 354> 546 74<0 96 96 96 213 337 450 547 0 547>
AnchorPoint: "Top" 351 623 basechar 0
LayerCount: 2
Fore
SplineSet
620 547 m 1xb8
 620 547 620 0 620 0 c 1
 620 0 546 0 546 0 c 1
 546 0 546 96 546 96 c 1
 488 18 429 -13 336 -13 c 0
 167 -13 42 108 42 272 c 0
 42 436 166 560 330 560 c 0xd8
 425 560 491 527 546 450 c 1
 546 450 546 547 546 547 c 1
 546 547 620 547 620 547 c 1xb8
329 492 m 0
 212 492 117 395 117 275 c 0
 117 152 214 55 335 55 c 4
 454 55 546 151 546 275 c 0
 546 399 453 492 329 492 c 0
EndSplineSet
Validated: 1
EndChar

StartChar: b
Encoding: 98 98 90
GlifName: b
Width: 682
Flags: MW
HStem: -13 68<306 410.5 288.5 433.5> 492 68<306 410> 719 20G<63 137 137 137>
VStem: 63 74<0 94 453 739> 565 75<212 338>
AnchorPoint: "Top" 331 805 basechar 0
LayerCount: 2
Fore
SplineSet
63 0 m 1
 63 0 63 739 63 739 c 1
 63 739 137 739 137 739 c 1
 137 739 137 453 137 453 c 1
 184 522 260 560 352 560 c 0
 514 560 640 435 640 274 c 0
 640 110 516 -13 351 -13 c 0
 261 -13 183 26 137 94 c 1
 137 94 137 0 137 0 c 1
 137 0 63 0 63 0 c 1
347 492 m 0
 226 492 132 396 132 273 c 0
 132 152 228 55 349 55 c 0
 472 55 565 149 565 275 c 0
 565 401 473 492 347 492 c 0
EndSplineSet
Validated: 1
EndChar

StartChar: c
Encoding: 99 99 91
GlifName: c
Width: 647
Flags: MW
HStem: -13 68<275.5 373> 492 68<273 374.5>
VStem: 42 75<212 334.5 212 354.5>
AnchorPoint: "Top" 335 623 basechar 0
LayerCount: 2
Fore
SplineSet
524 161 m 1
 524 161 608 161 608 161 c 1
 577 103 555 74 518 46 c 0
 468 7 406 -13 340 -13 c 0
 172 -13 42 112 42 275 c 0
 42 434 171 560 335 560 c 0
 459 560 563 491 607 381 c 1
 607 381 524 381 524 381 c 1
 482 453 415 492 334 492 c 0
 212 492 117 396 117 273 c 0
 117 151 214 55 337 55 c 0
 415 55 467 85 524 161 c 1
EndSplineSet
Validated: 1
EndChar

StartChar: d
Encoding: 100 100 92
GlifName: d
Width: 685
Flags: MW
HStem: -13 68<276 386> 492 68<269.5 376 250 390.5> 719 20G<548 622 622 622>
VStem: 42 75<212.5 334.5 212.5 354> 548 74<0 99 99 99 460 739 0 739>
AnchorPoint: "Top" 354 805 basechar 0
LayerCount: 2
Fore
SplineSet
622 739 m 5
 622 739 622 0 622 0 c 1
 622 0 548 0 548 0 c 1
 548 0 548 99 548 99 c 1
 492 20 432 -13 340 -13 c 0
 171 -13 42 110 42 272 c 0
 42 436 167 560 333 560 c 0
 419 560 494 525 548 460 c 1
 548 460 548 739 548 739 c 1
 548 739 622 739 622 739 c 5
328 492 m 0
 211 492 117 395 117 274 c 0
 117 151 214 55 338 55 c 0
 455 55 551 154 551 275 c 0
 551 396 453 492 328 492 c 0
EndSplineSet
Validated: 1
EndChar

StartChar: e
Encoding: 101 101 93
GlifName: e
Width: 650
Flags: HMW
HStem: -13 68<272.5 370.5 272.5 390.5> 249 67<118 537 118 611 116 537> 492 68<273 378>
AnchorPoint: "Top" 329 623 basechar 0
LayerCount: 2
Back
SplineSet
608 247 m 5
 119 247 l 5
 128 138 212 54 327 54 c 4
 413 54 484 103 518 178 c 5
 595 178 l 5
 551 60 451 -13 327 -13 c 4
 166 -13 42 109 42 273 c 4
 42 408 141 560 327 560 c 4
 534 560 609 388 608 247 c 5
119 314 m 5
 528 314 l 5
 507 425 422 493 327 493 c 4
 222 493 137 418 119 314 c 5
EndSplineSet
Fore
SplineSet
611 249 m 1
 611 249 116 249 116 249 c 1
 122 141 216 55 329 55 c 0
 412 55 489 105 520 180 c 1
 520 180 597 180 597 180 c 1
 557 65 450 -13 331 -13 c 0
 169 -13 42 114 42 276 c 0
 42 435 167 560 325 560 c 0
 433 560 530 503 578 411 c 0
 602 365 611 322 611 249 c 1
118 316 m 1
 118 316 537 316 537 316 c 1
 512 425 431 492 325 492 c 0
 221 492 138 421 118 316 c 1
EndSplineSet
Validated: 1
EndChar

StartChar: f
Encoding: 102 102 94
GlifName: f
Width: 314
Flags: MW
HStem: 0 21G 480 67<16 101 16 101 175 311> 719 20G<240.5 311>
VStem: 101 74<0 480 0 480 0 547>
AnchorPoint: "Top" 182 805 basechar 0
LayerCount: 2
Fore
SplineSet
101 0 m 1
 101 0 101 480 101 480 c 1
 101 480 16 480 16 480 c 1
 16 480 16 547 16 547 c 1
 16 547 101 547 101 547 c 1
 101 677 170 739 311 739 c 5
 311 739 311 672 311 672 c 1
 209 672 175 639 175 547 c 1
 175 547 311 547 311 547 c 1
 311 547 311 480 311 480 c 1
 311 480 175 480 175 480 c 1
 175 480 175 0 175 0 c 1
 175 0 101 0 101 0 c 1
EndSplineSet
Validated: 1
EndChar

StartChar: g
Encoding: 103 103 95
GlifName: g
Width: 673
Flags: MW
HStem: -215 68<305.5 377.5 305.5 384.5> -13 68<267 376.5> 492 68<262.5 367.5 241 382>
VStem: 42 75<213.5 338 213.5 354> 536 74<74 98 98 111 111 111 215.5 340.5 450 547>
AnchorPoint: "Top" 331 623 basechar 0
LayerCount: 2
Fore
SplineSet
610 547 m 1
 610 547 610 98 610 98 c 2
 610 -9 596 -67 559 -117 c 0
 512 -180 432 -215 337 -215 c 0
 199 -215 102 -145 62 -17 c 1
 62 -17 134 -17 134 -17 c 1
 158 -60 170 -77 190 -95 c 0
 229 -130 276 -147 335 -147 c 0
 420 -147 485 -111 514 -48 c 0
 530 -14 536 20 536 74 c 2
 536 74 536 111 536 111 c 1
 493 27 426 -13 327 -13 c 0
 166 -13 42 111 42 271 c 0
 42 437 161 560 321 560 c 0
 414 560 481 526 536 450 c 1
 536 450 536 547 536 547 c 1
 536 547 610 547 610 547 c 1
320 492 m 0
 205 492 117 399 117 277 c 0
 117 150 207 55 327 55 c 0
 446 55 536 152 536 279 c 0
 536 402 444 492 320 492 c 0
EndSplineSet
Validated: 1
EndChar

StartChar: h
Encoding: 104 104 96
GlifName: h
Width: 610
Flags: MW
HStem: 0 21G 492 68<275.5 329.5> 719 20G<63 137 137 137>
VStem: 63 74<0 300 476 739> 473 74<0 294 0 327>
AnchorPoint: "Top" 288 805 basechar 0
LayerCount: 2
Fore
SplineSet
63 0 m 1
 63 0 63 739 63 739 c 1
 63 739 137 739 137 739 c 1
 137 739 137 476 137 476 c 1
 174 530 236 560 310 560 c 0
 390 560 459 529 500 476 c 0
 532 432 547 376 547 294 c 2
 547 294 547 0 547 0 c 1
 547 0 473 0 473 0 c 1
 473 0 473 294 473 294 c 2
 473 360 461 403 433 436 c 0
 404 471 355 492 304 492 c 0
 247 492 194 465 165 421 c 0
 145 391 137 357 137 300 c 2
 137 300 137 0 137 0 c 1
 137 0 63 0 63 0 c 1
EndSplineSet
Validated: 1
EndChar

StartChar: i
Encoding: 105 105 97
GlifName: i
Width: 200
Flags: MW
HStem: 0 21G 527 20G<63 137> 613 126<63 137 63 137>
VStem: 63 74<0 547 0 547 613 739>
AnchorPoint: "Top" 100 805 basechar 0
LayerCount: 2
Fore
SplineSet
63 0 m 1
 63 0 63 547 63 547 c 1
 63 547 137 547 137 547 c 1
 137 547 137 0 137 0 c 1
 137 0 63 0 63 0 c 1
63 613 m 1
 63 613 63 739 63 739 c 1
 63 739 137 739 137 739 c 1
 137 739 137 613 137 613 c 1
 137 613 63 613 63 613 c 1
EndSplineSet
Validated: 1
Substitution2: "Dotless Forms-1" i.dotless
EndChar

StartChar: j
Encoding: 106 106 98
GlifName: j
Width: 203
Flags: MW
HStem: -192 21G 527 20G<66 140> 613 126<66 140 66 140>
VStem: 66 74<38 547 613 739>
AnchorPoint: "Top" 103 805 basechar 0
LayerCount: 2
Fore
SplineSet
140 547 m 1
 140 547 140 38 140 38 c 2
 140 -72 122 -118 65 -158 c 0
 33 -180 1 -190 -45 -192 c 1
 -45 -192 -45 -121 -45 -121 c 1
 38 -116 66 -76 66 38 c 2
 66 38 66 547 66 547 c 1
 66 547 140 547 140 547 c 1
66 613 m 1
 66 613 66 739 66 739 c 1
 66 739 140 739 140 739 c 1
 140 739 140 613 140 613 c 1
 140 613 66 613 66 613 c 1
EndSplineSet
Validated: 1
Substitution2: "Dotless Forms-1" j.dotless
EndChar

StartChar: k
Encoding: 107 107 99
GlifName: k
Width: 502
Flags: MW
HStem: 0 21G 527 20G<392 483> 719 20G<63 137 137 137>
VStem: 63 74<0 113 215 739>
AnchorPoint: "Top" 248 805 basechar 0
LayerCount: 2
Fore
SplineSet
63 0 m 1
 63 0 63 739 63 739 c 1
 63 739 137 739 137 739 c 5
 137 739 137 215 137 215 c 1
 137 215 392 547 392 547 c 1
 392 547 483 547 483 547 c 1
 483 547 270 272 270 272 c 1
 270 272 497 0 497 0 c 1
 497 0 405 0 405 0 c 1
 405 0 223 219 223 219 c 1
 223 219 137 113 137 113 c 1
 137 113 137 0 137 0 c 1
 137 0 63 0 63 0 c 1
EndSplineSet
Validated: 1
EndChar

StartChar: l
Encoding: 108 108 100
GlifName: l
Width: 200
Flags: MW
HStem: 0 21G 719 20G<63 137 137 137>
VStem: 63 74<0 739 0 739>
AnchorPoint: "Top" 100 805 basechar 0
LayerCount: 2
Fore
SplineSet
63 0 m 1
 63 0 63 739 63 739 c 1
 63 739 137 739 137 739 c 5
 137 739 137 0 137 0 c 1
 137 0 63 0 63 0 c 1
EndSplineSet
Validated: 1
EndChar

StartChar: m
Encoding: 109 109 101
GlifName: m
Width: 938
Flags: MW
HStem: 0 21G 492 68<256.5 306 629.5 679> 527 20G<63 137 137 137>
VStem: 63 74<0 319 484 547> 432 74<0 317 0 319 0 348.5> 801 74<0 317 317 325 0 345.5>
CounterMasks: 1 1c
AnchorPoint: "Top" 469 623 basechar 0
LayerCount: 2
Fore
SplineSet
63 0 m 1xdc
 63 0 63 547 63 547 c 1
 63 547 137 547 137 547 c 1xbc
 137 547 137 484 137 484 c 1
 180 539 222 560 291 560 c 0
 374 560 427 529 470 455 c 1
 516 528 575 560 659 560 c 0
 733 560 796 531 834 479 c 0
 863 440 875 394 875 325 c 2
 875 325 875 0 875 0 c 1
 875 0 801 0 801 0 c 1
 801 0 801 317 801 317 c 2
 801 374 790 415 768 443 c 0
 744 474 702 492 656 492 c 0
 603 492 555 467 529 426 c 0
 513 400 506 367 506 317 c 2
 506 317 506 0 506 0 c 1
 506 0 432 0 432 0 c 1
 432 0 432 319 432 319 c 2
 432 378 421 416 395 445 c 0
 368 475 328 492 284 492 c 0
 192 492 137 428 137 319 c 2
 137 319 137 0 137 0 c 1
 137 0 63 0 63 0 c 1xdc
EndSplineSet
Validated: 1
EndChar

StartChar: n
Encoding: 110 110 102
GlifName: n
Width: 610
Flags: MW
HStem: 0 21G 492 68<277 330.5> 527 20G<63 137 137 137>
VStem: 63 74<0 301 476 547> 473 74<0 287 0 324>
AnchorPoint: "Top" 305 623 basechar 0
LayerCount: 2
Fore
SplineSet
63 0 m 1xd8
 63 0 63 547 63 547 c 1
 63 547 137 547 137 547 c 1xb8
 137 547 137 476 137 476 c 1
 183 533 241 560 313 560 c 0
 390 560 456 530 499 475 c 0
 534 428 547 379 547 287 c 2
 547 287 547 0 547 0 c 1
 547 0 473 0 473 0 c 1
 473 0 473 287 473 287 c 2
 473 361 462 402 434 436 c 0
 404 472 357 492 304 492 c 0
 244 492 192 466 163 422 c 0
 144 392 137 360 137 301 c 2
 137 301 137 0 137 0 c 1
 137 0 63 0 63 0 c 1xd8
EndSplineSet
Validated: 1
EndChar

StartChar: o
Encoding: 111 111 103
GlifName: o
Width: 655
Flags: MW
HStem: -13 68<270 392 270 414.5> 492 68<266 388>
VStem: 42 75<209.5 335 209.5 356> 538 75<208 335.5>
AnchorPoint: "Top" 327 623 basechar 0
LayerCount: 2
Fore
SplineSet
332 560 m 0
 493 560 613 437 613 272 c 0
 613 108 495 -13 334 -13 c 4
 167 -13 42 109 42 273 c 0
 42 439 164 560 332 560 c 0
326 492 m 0
 206 492 117 398 117 272 c 0
 117 147 208 55 332 55 c 0
 452 55 538 145 538 271 c 0
 538 400 450 492 326 492 c 0
EndSplineSet
Validated: 1
EndChar

StartChar: p
Encoding: 112 112 104
GlifName: p
Width: 682
Flags: MW
HStem: -192 21G -13 68<304.5 410.5 287.5 432> 492 68<305 409.5>
VStem: 63 74<-192 94 453 547> 565 75<209.5 335.5>
AnchorPoint: "Top" 335 623 basechar 0
LayerCount: 2
Fore
SplineSet
63 547 m 1
 63 547 137 547 137 547 c 1
 137 547 137 453 137 453 c 1
 183 523 258 560 352 560 c 0
 515 560 640 436 640 273 c 0
 640 112 514 -13 350 -13 c 0
 259 -13 185 24 137 94 c 1
 137 94 137 -192 137 -192 c 5
 137 -192 63 -192 63 -192 c 1
 63 -192 63 547 63 547 c 1
346 492 m 0
 226 492 132 396 132 273 c 0
 132 150 226 55 349 55 c 0
 472 55 565 148 565 271 c 0
 565 400 473 492 346 492 c 0
EndSplineSet
Validated: 1
EndChar

StartChar: q
Encoding: 113 113 105
GlifName: q
Width: 682
Flags: MW
HStem: -192 21G -13 68<271.5 377.5> 492 68<270 377 248.5 393.5>
VStem: 42 75<210 334.5 210 354.5> 545 74<-192 94 94 94 453 547 -192 547>
AnchorPoint: "Top" 342 623 basechar 0
LayerCount: 2
Fore
SplineSet
619 547 m 1
 619 547 619 -192 619 -192 c 1
 619 -192 545 -192 545 -192 c 1
 545 -192 545 94 545 94 c 1
 497 24 423 -13 332 -13 c 0
 168 -13 42 112 42 273 c 0
 42 436 167 560 330 560 c 0
 424 560 499 523 545 453 c 1
 545 453 545 547 545 547 c 1
 545 547 619 547 619 547 c 1
331 492 m 0
 209 492 117 397 117 272 c 0
 117 148 210 55 333 55 c 0
 456 55 550 150 550 273 c 0
 550 398 456 492 331 492 c 0
EndSplineSet
Validated: 1
EndChar

StartChar: r
Encoding: 114 114 106
GlifName: r
Width: 301
Flags: MW
HStem: 0 21G 527 20G<63 137 137 137> 540 20G<292 292>
VStem: 63 74<0 319 469 547>
AnchorPoint: "Top" 174 623 basechar 0
LayerCount: 2
Fore
SplineSet
63 0 m 1xb0
 63 0 63 547 63 547 c 1
 63 547 137 547 137 547 c 1xd0
 137 547 137 469 137 469 c 1
 166 529 213 556 292 560 c 1
 292 560 292 487 292 487 c 1
 189 477 137 421 137 319 c 2
 137 319 137 0 137 0 c 1
 137 0 63 0 63 0 c 1xb0
EndSplineSet
Validated: 1
EndChar

StartChar: s
Encoding: 115 115 107
GlifName: s
Width: 388
Flags: MW
HStem: -13 68<163 221 163 243.5> 492 68<170 216>
VStem: 38 75<397 435 397 450.5> 286 75<122.5 175>
AnchorPoint: "Top" 194 623 basechar 0
LayerCount: 2
Fore
SplineSet
18 161 m 5
 18 161 91 161 91 161 c 5
 95 93 132 55 194 55 c 4
 248 55 286 95 286 150 c 4
 286 200 266 220 180 255 c 4
 103 287 102 287 79 308 c 4
 52 333 38 366 38 406 c 4
 38 495 103 560 193 560 c 4
 281 560 344 500 347 412 c 5
 347 412 272 412 272 412 c 5
 268 464 240 492 192 492 c 4
 148 492 113 457 113 413 c 4
 113 381 129 358 164 340 c 4
 180 333 184 331 266 297 c 4
 330 270 361 224 361 157 c 4
 361 57 293 -13 194 -13 c 4
 88 -13 19 55 18 161 c 5
EndSplineSet
Validated: 1
EndChar

StartChar: t
Encoding: 116 116 108
GlifName: t
Width: 339
Flags: MW
HStem: 0 21G 480 67<12 130 12 130 204 327> 719 20G<130 204 204 204>
VStem: 130 74<0 480 0 480 547 739>
AnchorPoint: "Top" 170 805 basechar 0
LayerCount: 2
Fore
SplineSet
130 0 m 1
 130 0 130 480 130 480 c 1
 130 480 12 480 12 480 c 1
 12 480 12 547 12 547 c 1
 12 547 130 547 130 547 c 1
 130 547 130 739 130 739 c 1
 130 739 204 739 204 739 c 1
 204 739 204 547 204 547 c 1
 204 547 327 547 327 547 c 1
 327 547 327 480 327 480 c 1
 327 480 204 480 204 480 c 1
 204 480 204 0 204 0 c 1
 204 0 130 0 130 0 c 1
EndSplineSet
Validated: 1
EndChar

StartChar: u
Encoding: 117 117 109
GlifName: u
Width: 608
Flags: MW
HStem: -13 68<270.5 329 270.5 337.5> 527 20G<63 137 137 137 471 545 545 545>
VStem: 63 74<252 547> 471 74<0 85 85 85 266 547 0 547>
AnchorPoint: "Top" 304 623 basechar 0
LayerCount: 2
Fore
SplineSet
545 547 m 5
 545 547 545 0 545 0 c 5
 545 0 471 0 471 0 c 5
 471 0 471 85 471 85 c 5
 434 17 380 -13 295 -13 c 4
 210 -13 143 19 103 79 c 4
 75 119 63 173 63 252 c 6
 63 252 63 547 63 547 c 5
 63 547 137 547 137 547 c 5
 137 547 137 252 137 252 c 6
 137 194 146 149 165 120 c 4
 191 79 241 55 300 55 c 4
 358 55 407 79 438 123 c 4
 461 157 471 199 471 266 c 6
 471 266 471 547 471 547 c 5
 471 547 545 547 545 547 c 5
EndSplineSet
Validated: 1
EndChar

StartChar: v
Encoding: 118 118 110
GlifName: v
Width: 554
Flags: MW
HStem: 0 21G 527 20G<8 83 83 83 471 546 546 546>
AnchorPoint: "Top" 277 623 basechar 0
LayerCount: 2
Fore
SplineSet
238 0 m 1
 238 0 8 547 8 547 c 1
 8 547 83 547 83 547 c 1
 83 547 275 87 275 87 c 1
 275 87 471 547 471 547 c 1
 471 547 546 547 546 547 c 1
 546 547 316 0 316 0 c 1
 316 0 238 0 238 0 c 1
EndSplineSet
Validated: 1
EndChar

StartChar: w
Encoding: 119 119 111
GlifName: w
Width: 831
Flags: MW
HStem: 0 21G 527 20G<7 81 81 81 752 824 824 824>
AnchorPoint: "Top" 415 623 basechar 0
LayerCount: 2
Fore
SplineSet
216 0 m 5
 216 0 7 547 7 547 c 5
 7 547 81 547 81 547 c 5
 81 547 255 89 255 89 c 5
 255 89 384 480 384 480 c 5
 384 480 445 480 445 480 c 5
 445 480 574 89 574 89 c 5
 574 89 752 547 752 547 c 5
 752 547 824 547 824 547 c 5
 824 547 612 0 612 0 c 5
 612 0 533 0 533 0 c 5
 533 0 414 363 414 363 c 5
 414 363 296 0 296 0 c 5
 296 0 216 0 216 0 c 5
EndSplineSet
Validated: 1
EndChar

StartChar: x
Encoding: 120 120 112
GlifName: x
Width: 480
Flags: MW
HStem: 0 21G 527 20G<8 92 92 92 387 472 472 472>
AnchorPoint: "Top" 240 623 basechar 0
LayerCount: 2
Fore
SplineSet
8 0 m 5
 8 0 198 279 198 279 c 5
 198 279 8 547 8 547 c 5
 8 547 92 547 92 547 c 5
 92 547 240 336 240 336 c 5
 240 336 387 547 387 547 c 5
 387 547 472 547 472 547 c 5
 472 547 281 279 281 279 c 5
 281 279 472 0 472 0 c 5
 472 0 387 0 387 0 c 5
 387 0 240 219 240 219 c 5
 240 219 92 0 92 0 c 5
 92 0 8 0 8 0 c 5
EndSplineSet
Validated: 1
EndChar

StartChar: y
Encoding: 121 121 113
GlifName: y
Width: 536
Flags: MW
HStem: -192 21G 527 20G<9 90 90 90 448 527 527 527>
AnchorPoint: "Top" 265 623 basechar 0
LayerCount: 2
Fore
SplineSet
132 -192 m 1
 132 -192 221 18 221 18 c 1
 221 18 9 547 9 547 c 1
 9 547 90 547 90 547 c 1
 90 547 263 111 263 111 c 1
 263 111 448 547 448 547 c 1
 448 547 527 547 527 547 c 1
 527 547 211 -192 211 -192 c 1
 211 -192 132 -192 132 -192 c 1
EndSplineSet
Validated: 1
EndChar

StartChar: z
Encoding: 122 122 114
GlifName: z
Width: 425
Flags: MW
HStem: 0 67<10 10 97 415> 480 67<20 312 20 396>
AnchorPoint: "Top" 212 623 basechar 0
LayerCount: 2
Fore
SplineSet
10 0 m 1
 10 0 10 67 10 67 c 1
 10 67 312 480 312 480 c 1
 312 480 20 480 20 480 c 1
 20 480 20 547 20 547 c 1
 20 547 396 547 396 547 c 1
 396 547 396 484 396 484 c 1
 396 484 97 67 97 67 c 1
 97 67 415 67 415 67 c 1
 415 67 415 0 415 0 c 1
 415 0 10 0 10 0 c 1
EndSplineSet
Validated: 1
EndChar

StartChar: ae
Encoding: 319 230 115
GlifName: ae
Width: 1157
Flags: MW
HStem: -13 68<272.5 376.5 795.5 881> 247 67<626 1046 626 1118 623 1046> 492 68<286.5 378 286.5 394.5 789.5 885.5> 527 20G<548 619 619 619>
VStem: 42 76<212.5 308.5> 548 71<0 92 0 92 452 547>
AnchorPoint: "Top" 582 623 basechar 0
LayerCount: 2
Fore
SplineSet
1118 247 m 1xec
 1118 247 623 247 623 247 c 1
 633 137 726 55 839 55 c 0
 923 55 997 103 1028 178 c 1
 1028 178 1105 178 1105 178 c 1
 1067 64 960 -13 839 -13 c 0
 752 -13 679 22 619 92 c 1
 619 92 619 0 619 0 c 1
 619 0 548 0 548 0 c 1
 548 0 548 92 548 92 c 1
 486 18 422 -13 331 -13 c 0
 167 -13 42 110 42 272 c 0
 42 345 70 419 119 472 c 0
 172 530 243 560 330 560 c 0xec
 426 560 494 526 548 452 c 1
 548 452 548 547 548 547 c 1
 548 547 619 547 619 547 c 1xdc
 619 547 619 452 619 452 c 1
 678 526 745 560 834 560 c 0
 937 560 1027 509 1079 423 c 0
 1108 375 1118 327 1118 247 c 1xec
626 314 m 1
 626 314 1046 314 1046 314 c 1
 1026 422 943 492 836 492 c 0
 727 492 642 419 626 314 c 1
331 492 m 0
 210 492 118 397 118 274 c 0
 118 151 212 55 333 55 c 0
 456 55 550 151 550 277 c 0
 550 402 458 492 331 492 c 0
EndSplineSet
Validated: 1
EndChar

StartChar: oe
Encoding: 320 339 116
GlifName: oe
Width: 1137
Flags: MW
HStem: -13 68<270.5 384 790.5 861.5> 248 67<608 1027 608 1096 608 1027> 492 68<264.5 378 244.5 384.5 764 869.5>
VStem: 42 75<211.5 335.5 211.5 355>
AnchorPoint: "Top" 571 623 basechar 0
LayerCount: 2
Fore
SplineSet
1096 248 m 1
 1096 248 608 248 608 248 c 1
 611 199 625 167 657 130 c 0
 701 80 757 55 824 55 c 0
 910 55 972 96 1012 179 c 1
 1012 179 1086 179 1086 179 c 1
 1072 129 1043 85 998 47 c 0
 951 7 895 -13 828 -13 c 0
 713 -13 617 43 571 138 c 1
 511 33 437 -13 331 -13 c 0
 167 -13 42 112 42 274 c 0
 42 436 165 560 324 560 c 0
 432 560 511 513 571 414 c 1
 628 512 708 560 816 560 c 0
 976 560 1098 442 1098 286 c 0
 1098 278 1097 265 1096 248 c 1
608 315 m 1
 608 315 1027 315 1027 315 c 1
 1009 421 924 492 815 492 c 0
 713 492 635 425 608 315 c 1
323 492 m 0
 206 492 117 398 117 273 c 0
 117 150 210 55 331 55 c 0
 448 55 536 150 536 275 c 0
 536 400 446 492 323 492 c 0
EndSplineSet
Validated: 1
EndChar

StartChar: oslash
Encoding: 321 248 117
GlifName: oslash
Width: 653
Flags: MW
HStem: -13 68<303.5 386 303.5 411> 492 68<269 348>
VStem: 42 75<238.5 330 238.5 352> 536 75<213.5 309.5>
AnchorPoint: "Top" 327 623 basechar 0
LayerCount: 2
Fore
SplineSet
73 1 m 1
 73 1 124 68 124 68 c 1
 64 138 42 193 42 272 c 0
 42 432 168 560 328 560 c 0
 382 560 429 547 474 519 c 1
 474 519 531 594 531 594 c 1
 531 594 584 552 584 552 c 1
 584 552 528 478 528 478 c 1
 584 426 611 363 611 281 c 0
 611 110 493 -13 329 -13 c 0
 273 -13 234 -2 178 28 c 1
 178 28 126 -39 126 -39 c 1
 126 -39 73 1 73 1 c 1
166 121 m 1
 166 121 434 468 434 468 c 1
 402 484 367 492 329 492 c 0
 209 492 117 394 117 266 c 0
 117 211 131 171 166 121 c 1
487 426 m 1
 487 426 218 79 218 79 c 1
 258 61 284 55 323 55 c 0
 449 55 536 147 536 280 c 0
 536 339 521 383 487 426 c 1
EndSplineSet
Validated: 1
EndChar

StartChar: germandbls
Encoding: 322 223 118
GlifName: germandbls
Width: 554
Flags: W
HStem: -13 68<279 354.5 279 378> 343 65<264 287 224 325.5> 684 68<240.5 303>
VStem: 59 74<0 109 203 481> 399 75<508 587> 449 75<157 243>
AnchorPoint: "Top" 263 805 basechar 0
LayerCount: 2
Fore
SplineSet
59 0 m 5xf4
 59 0 59 481 59 481 c 6
 59 566 69 620 95 664 c 4
 126 718 190 752 263 752 c 4
 384 752 474 663 474 544 c 4xf8
 474 472 448 424 389 389 c 5
 477 361 524 294 524 199 c 4
 524 77 437 -13 319 -13 c 4
 233 -13 170 28 133 109 c 5
 133 109 133 0 133 0 c 5
 133 0 59 0 59 0 c 5xf4
133 203 m 5
 133 203 184 203 184 203 c 5
 186 116 241 55 317 55 c 4
 392 55 449 117 449 197 c 4xf4
 449 289 382 343 269 343 c 4
 259 343 255 343 224 341 c 5
 224 341 224 408 224 408 c 5
 224 408 237 408 237 408 c 6
 337 408 399 462 399 548 c 4
 399 626 342 684 264 684 c 4
 217 684 175 660 156 621 c 4
 139 587 133 552 133 481 c 6
 133 481 133 203 133 203 c 5
EndSplineSet
Validated: 1
EndChar

StartChar: dotlessi
Encoding: 323 305 119
GlifName: dotlessi
Width: 200
Flags: MW
HStem: 0 21G 527 20G<63 137 137 137>
VStem: 63 74<0 547 0 547>
AnchorPoint: "Top" 100 623 basechar 0
LayerCount: 2
Fore
SplineSet
63 0 m 1
 63 0 63 547 63 547 c 1
 63 547 137 547 137 547 c 1
 137 547 137 0 137 0 c 1
 137 0 63 0 63 0 c 1
EndSplineSet
Validated: 1
EndChar

StartChar: uniFB01
Encoding: 324 64257 120
GlifName: uniF_B_01
Width: 490
Flags: W
HStem: 0 21G<101 175 353 427> 480 67<16 101 175 311> 613 126<353 427> 672 67<213.514 311>
VStem: 101 74<0 480 547 635.023> 353 74<0 547 613 739>
LayerCount: 2
Fore
SplineSet
101 0 m 1xdc
 101 0 101 480 101 480 c 1
 101 480 16 480 16 480 c 1
 16 480 16 547 16 547 c 1
 16 547 101 547 101 547 c 1
 101 677 170 739 311 739 c 1
 311 739 311 672 311 672 c 1
 209 672 175 639 175 547 c 1
 175 547 311 547 311 547 c 1
 311 547 311 480 311 480 c 1
 311 480 175 480 175 480 c 1
 175 480 175 0 175 0 c 1
 175 0 101 0 101 0 c 1xdc
353 0 m 1
 353 0 353 547 353 547 c 1
 353 547 427 547 427 547 c 1
 427 547 427 0 427 0 c 1
 427 0 353 0 353 0 c 1
353 613 m 1xec
 353 613 353 739 353 739 c 1
 353 739 427 739 427 739 c 1
 427 739 427 613 427 613 c 1
 427 613 353 613 353 613 c 1xec
EndSplineSet
Validated: 1
LCarets2: 1 0
Ligature2: "'liga' Standard Ligatures lookup 2-1" f i
EndChar

StartChar: uniFB02
Encoding: 325 64258 121
GlifName: uniF_B_02
Width: 490
Flags: W
HStem: 0 21G<101 175 353 427> 480 67<16 101 175 311> 672 67<213.514 311>
VStem: 101 74<0 480 547 635.023> 353 74<0 739>
LayerCount: 2
Fore
SplineSet
101 0 m 1
 101 0 101 480 101 480 c 1
 101 480 16 480 16 480 c 1
 16 480 16 547 16 547 c 1
 16 547 101 547 101 547 c 1
 101 677 170 739 311 739 c 1
 311 739 311 672 311 672 c 1
 209 672 175 639 175 547 c 1
 175 547 311 547 311 547 c 1
 311 547 311 480 311 480 c 1
 311 480 175 480 175 480 c 1
 175 480 175 0 175 0 c 1
 175 0 101 0 101 0 c 1
353 0 m 1
 353 0 353 739 353 739 c 1
 353 739 427 739 427 739 c 1
 427 739 427 0 427 0 c 1
 427 0 353 0 353 0 c 1
EndSplineSet
Validated: 1
LCarets2: 1 0
Ligature2: "'liga' Standard Ligatures lookup 2-1" f l
EndChar

StartChar: ccedilla
Encoding: 326 231 122
GlifName: ccedilla
Width: 647
Flags: MW
HStem: -224 43<334 358.5 334 370> -84 33<350.5 357> 492 68<273 374.5>
VStem: 42 75<212 334.5 212 354.5> 390 43<-148.5 -120>
AnchorPoint: "Top" 335 623 basechar 0
LayerCount: 2
Fore
SplineSet
343 -13 m 1
 343 -13 324 -58 324 -58 c 1
 338 -52 345 -51 356 -51 c 0
 402 -51 433 -83 433 -131 c 0
 433 -186 396 -224 344 -224 c 0
 299 -224 267 -198 257 -151 c 1
 257 -151 301 -146 301 -146 c 1
 307 -169 323 -181 345 -181 c 0
 372 -181 390 -162 390 -135 c 0
 390 -105 371 -84 343 -84 c 0
 326 -84 315 -90 301 -108 c 1
 301 -108 271 -90 271 -90 c 1
 271 -90 306 -11 306 -11 c 1
 152 5 42 124 42 275 c 0
 42 434 171 560 335 560 c 0
 459 560 563 491 607 381 c 1
 607 381 524 381 524 381 c 1
 482 453 415 492 334 492 c 0
 212 492 117 396 117 273 c 0
 117 151 214 55 337 55 c 0
 415 55 467 85 524 161 c 1
 524 161 608 161 608 161 c 1
 554 49 463 -11 343 -13 c 1
EndSplineSet
Validated: 1
EndChar

StartChar: lslash
Encoding: 327 322 123
GlifName: lslash
Width: 300
Flags: MW
HStem: 0 21G 719 20G<114 188 188 188>
VStem: 114 74<0 346 346 346 451 739>
AnchorPoint: "Top" 150 805 basechar 0
LayerCount: 2
Fore
SplineSet
114 0 m 1
 114 0 114 346 114 346 c 1
 114 346 36 293 36 293 c 1
 36 293 36 365 36 365 c 1
 36 365 114 418 114 418 c 1
 114 418 114 739 114 739 c 1
 114 739 188 739 188 739 c 1
 188 739 188 451 188 451 c 1
 188 451 270 506 270 506 c 1
 270 506 270 433 270 433 c 1
 270 433 188 379 188 379 c 1
 188 379 188 0 188 0 c 1
 188 0 114 0 114 0 c 1
EndSplineSet
Validated: 1
EndChar

StartChar: eth
Encoding: 328 240 124
GlifName: eth
Width: 655
Flags: MW
HStem: -13 68<270.5 393 270.5 416.5> 492 64<266 333 238 388> 723 20G<429 429> 736 20G<266 266>
VStem: 42 75<209.5 335 209.5 354.5> 538 75<207.5 328 193 335.5>
AnchorPoint: "Top" 330 805 basechar 0
LayerCount: 2
Fore
SplineSet
213 727 m 1xec
 213 727 266 756 266 756 c 1xdc
 296 735 309 724 334 701 c 1
 334 701 429 743 429 743 c 1
 429 743 468 699 468 699 c 1
 468 699 379 660 379 660 c 1
 419 625 462 582 504 537 c 0
 582 451 613 377 613 279 c 0
 613 107 499 -13 334 -13 c 0
 166 -13 42 109 42 274 c 0
 42 435 160 556 316 556 c 0
 350 556 369 552 412 538 c 1
 351 600 349 602 317 630 c 1
 317 630 230 591 230 591 c 1
 230 591 194 637 194 637 c 1
 194 637 273 672 273 672 c 1
 257 688 256 688 238 705 c 0
 229 712 221 719 213 727 c 1xec
326 492 m 0
 206 492 117 398 117 272 c 0
 117 147 208 55 333 55 c 0
 453 55 538 144 538 271 c 0
 538 400 450 492 326 492 c 0
EndSplineSet
Validated: 1
EndChar

StartChar: thorn
Encoding: 329 254 125
GlifName: thorn
Width: 682
Flags: MW
HStem: -192 21G -13 68<304.5 410.5 287.5 432> 492 68<305 409.5> 719 20G<63 137 137 137>
VStem: 63 74<-192 94 453 739> 565 75<209.5 335.5>
AnchorPoint: "Top" 369 623 basechar 0
LayerCount: 2
Fore
SplineSet
63 739 m 1
 63 739 137 739 137 739 c 1
 137 739 137 453 137 453 c 1
 183 523 258 560 352 560 c 0
 515 560 640 436 640 273 c 0
 640 112 514 -13 350 -13 c 0
 259 -13 185 24 137 94 c 1
 137 94 137 -192 137 -192 c 1
 137 -192 63 -192 63 -192 c 1
 63 -192 63 739 63 739 c 1
346 492 m 0
 226 492 132 396 132 273 c 0
 132 150 226 55 349 55 c 0
 472 55 565 148 565 271 c 0
 565 400 473 492 346 492 c 0
EndSplineSet
Validated: 1
EndChar

StartChar: one
Encoding: 49 49 126
GlifName: one
Width: 554
Flags: MW
HStem: 0 21G 672 67<155 281 155 354>
VStem: 281 73<0 672 672 672>
AnchorPoint: "Top" 277 805 basechar 0
LayerCount: 2
Fore
SplineSet
281 0 m 1
 281 0 281 672 281 672 c 1
 281 672 155 672 155 672 c 1
 155 672 155 739 155 739 c 1
 155 739 354 739 354 739 c 1
 354 739 354 0 354 0 c 1
 354 0 281 0 281 0 c 1
EndSplineSet
Validated: 1
Substitution2: "'pnum' Proportional Numbers lookup 0-1" one.fitted
EndChar

StartChar: two
Encoding: 50 50 127
GlifName: two
Width: 554
Flags: MW
HStem: 0 67<33 33 133 502> 685 67<239.5 318.5>
VStem: 432 74<509 576>
AnchorPoint: "Top" 277 805 basechar 0
LayerCount: 2
Fore
SplineSet
33 0 m 1
 33 0 33 67 33 67 c 1
 33 67 292 317 292 317 c 2
 358 380 358 380 380 407 c 0
 416 449 432 487 432 531 c 0
 432 621 365 685 272 685 c 0
 207 685 154 652 129 598 c 0
 117 572 112 544 112 500 c 1
 112 500 39 500 39 500 c 1
 39 552 42 573 55 608 c 0
 89 698 170 752 273 752 c 0
 408 752 506 658 506 527 c 0
 506 448 474 393 370 294 c 2
 370 294 133 67 133 67 c 1
 133 67 502 67 502 67 c 1
 502 67 502 0 502 0 c 1
 502 0 33 0 33 0 c 1
EndSplineSet
Validated: 1
Substitution2: "'pnum' Proportional Numbers lookup 0-1" two.fitted
EndChar

StartChar: three
Encoding: 51 51 128
GlifName: three
Width: 554
Flags: W
HStem: -13 67<243 315.5 243 337.5> 685 67<233 302>
VStem: 381 74<534.5 603> 430 74<173 259>
AnchorPoint: "Top" 277 805 basechar 0
LayerCount: 2
Fore
SplineSet
155 555 m 5xe0
 155 555 82 555 82 555 c 5
 86 676 158 752 269 752 c 4
 379 752 455 675 455 565 c 4xe0
 455 504 431 459 379 423 c 5
 462 381 504 313 504 224 c 4
 504 91 402 -13 273 -13 c 4
 181 -13 102 33 62 108 c 4
 43 144 35 180 33 231 c 5
 33 231 106 231 106 231 c 5
 110 177 118 150 138 122 c 4
 168 79 216 54 270 54 c 4
 361 54 430 126 430 220 c 4xd0
 430 298 379 364 305 382 c 4
 285 386 268 387 219 388 c 5
 219 388 219 454 219 454 c 5
 248 452 249 452 255 452 c 4
 332 452 381 497 381 569 c 4
 381 637 335 685 269 685 c 4
 197 685 156 638 155 555 c 5xe0
EndSplineSet
Validated: 1
Substitution2: "'pnum' Proportional Numbers lookup 0-1" three.fitted
EndChar

StartChar: four
Encoding: 52 52 129
GlifName: four
Width: 554
Flags: MW
HStem: 0 21G 135 67<97 386 12 12 459 527> 719 20G<372 459 459 459>
VStem: 386 73<0 135 0 135 202 637 637 637>
AnchorPoint: "Top" 277 805 basechar 0
LayerCount: 2
Fore
SplineSet
386 0 m 1
 386 0 386 135 386 135 c 1
 386 135 12 135 12 135 c 1
 12 135 12 202 12 202 c 1
 12 202 372 739 372 739 c 1
 372 739 459 739 459 739 c 1
 459 739 459 202 459 202 c 1
 459 202 527 202 527 202 c 1
 527 202 527 135 527 135 c 1
 527 135 459 135 459 135 c 1
 459 135 459 0 459 0 c 1
 459 0 386 0 386 0 c 1
386 202 m 1
 386 202 386 637 386 637 c 1
 386 637 97 202 97 202 c 1
 97 202 386 202 386 202 c 1
EndSplineSet
Validated: 1
Substitution2: "'pnum' Proportional Numbers lookup 0-1" four.fitted
EndChar

StartChar: five
Encoding: 53 53 130
GlifName: five
Width: 554
Flags: MW
HStem: -13 67<230.5 327 230 349.5> 436 67<261 327.5> 672 67<192 466 192 192>
VStem: 454 74<192 300>
AnchorPoint: "Top" 277 805 basechar 0
LayerCount: 2
Fore
SplineSet
67 375 m 1
 67 375 133 739 133 739 c 1
 133 739 466 739 466 739 c 1
 466 739 466 672 466 672 c 1
 466 672 192 672 192 672 c 1
 192 672 156 468 156 468 c 1
 201 493 239 503 283 503 c 0
 421 503 528 391 528 246 c 0
 528 100 419 -13 280 -13 c 0
 181 -13 94 43 51 134 c 0
 38 163 33 183 26 232 c 1
 26 232 98 232 98 232 c 1
 111 126 183 54 277 54 c 0
 377 54 454 138 454 246 c 0
 454 354 378 436 277 436 c 0
 219 436 169 409 124 353 c 1
 124 353 67 375 67 375 c 1
EndSplineSet
Validated: 1
Substitution2: "'pnum' Proportional Numbers lookup 0-1" five.fitted
EndChar

StartChar: six
Encoding: 54 54 131
GlifName: six
Width: 554
Flags: MW
HStem: -13 67<227.5 330.5 227.5 352> 436 67<277.5 329> 719 20G<296 381 381 381>
VStem: 25 74<191 281> 455 74<189.5 301.5>
AnchorPoint: "Top" 277 805 basechar 0
LayerCount: 2
Fore
SplineSet
296 739 m 1
 296 739 381 739 381 739 c 1
 381 739 207 482 207 482 c 1
 240 498 262 503 293 503 c 0
 425 503 529 391 529 249 c 0
 529 97 424 -13 280 -13 c 0
 134 -13 25 97 25 244 c 0
 25 318 42 361 113 467 c 2
 113 467 296 739 296 739 c 1
276 436 m 0
 176 436 99 354 99 246 c 0
 99 136 176 54 279 54 c 0
 382 54 455 134 455 245 c 0
 455 358 382 436 276 436 c 0
EndSplineSet
Validated: 1
Substitution2: "'pnum' Proportional Numbers lookup 0-1" six.fitted
EndChar

StartChar: seven
Encoding: 55 55 132
GlifName: seven
Width: 554
Flags: MW
HStem: 0 21G 672 67<64 414 64 490 64 490>
AnchorPoint: "Top" 277 805 basechar 0
LayerCount: 2
Fore
SplineSet
110 0 m 1
 110 0 414 672 414 672 c 1
 414 672 64 672 64 672 c 1
 64 672 64 739 64 739 c 1
 64 739 490 739 490 739 c 1
 490 739 490 672 490 672 c 1
 490 672 188 0 188 0 c 1
 188 0 110 0 110 0 c 1
EndSplineSet
Validated: 1
Substitution2: "'pnum' Proportional Numbers lookup 0-1" seven.fitted
EndChar

StartChar: eight
Encoding: 56 56 133
GlifName: eight
Width: 554
Flags: W
HStem: -13 67<231.5 325.5 231.5 347.5> 375 69<244.5 314 244.5 323.5> 685 67<240 312>
VStem: 42 74<167 259.5> 81 74<540.5 600.5 531 615.5> 399 74<530.5 601> 438 74<168.5 263>
AnchorPoint: "Top" 277 805 basechar 0
LayerCount: 2
Fore
SplineSet
167 413 m 1xf2
 141 428 130 437 117 452 c 0
 94 481 81 520 81 561 c 0
 81 670 166 752 278 752 c 0
 392 752 473 673 473 561 c 0xec
 473 488 445 441 385 413 c 1
 467 377 512 309 512 218 c 0
 512 83 415 -13 280 -13 c 0
 144 -13 42 85 42 215 c 0
 42 304 86 374 167 413 c 1xf2
275 375 m 0xf2
 182 375 116 308 116 213 c 0
 116 121 184 54 279 54 c 0
 372 54 438 121 438 216 c 0
 438 310 372 375 275 375 c 0xf2
275 685 m 0xec
 205 685 155 635 155 566 c 0
 155 496 209 444 280 444 c 0
 348 444 399 496 399 565 c 0
 399 637 349 685 275 685 c 0xec
EndSplineSet
Validated: 1
Substitution2: "'pnum' Proportional Numbers lookup 0-1" eight.fitted
EndChar

StartChar: nine
Encoding: 57 57 134
GlifName: nine
Width: 554
Flags: MW
HStem: 0 21G 236 67<224.5 276.5> 685 67<222 325>
VStem: 25 74<437.5 548.5 437.5 566> 455 74<458 548.5>
AnchorPoint: "Top" 277 805 basechar 0
LayerCount: 2
Fore
SplineSet
258 0 m 1
 258 0 173 0 173 0 c 1
 173 0 347 257 347 257 c 1
 314 241 292 236 261 236 c 0
 129 236 25 348 25 490 c 0
 25 642 130 752 274 752 c 0
 420 752 529 642 529 495 c 0
 529 421 512 378 441 272 c 2
 441 272 258 0 258 0 c 1
272 685 m 0
 172 685 99 604 99 493 c 0
 99 382 173 303 276 303 c 0
 378 303 455 384 455 493 c 0
 455 604 378 685 272 685 c 0
EndSplineSet
Validated: 1
Substitution2: "'pnum' Proportional Numbers lookup 0-1" nine.fitted
EndChar

StartChar: zero
Encoding: 48 48 135
GlifName: zero
Width: 554
Flags: MW
HStem: -13 67<249.5 315.5 249.5 326.5> 685 67<244.5 306.5>
VStem: 30 73<269 281 281 462> 452 73<281 462 462 479>
AnchorPoint: "Top" 277 805 basechar 0
LayerCount: 2
Fore
SplineSet
30 269 m 2
 30 269 30 479 30 479 c 2
 30 569 47 627 87 674 c 0
 130 725 197 752 277 752 c 0
 368 752 442 715 486 648 c 0
 515 604 525 560 525 479 c 2
 525 479 525 269 525 269 c 2
 525 183 509 117 477 74 c 0
 435 16 370 -13 283 -13 c 0
 181 -13 105 27 63 103 c 0
 41 144 30 198 30 269 c 2
452 281 m 2
 452 281 452 462 452 462 c 2
 452 546 442 588 415 623 c 0
 384 663 335 685 278 685 c 0
 211 685 155 654 127 603 c 0
 111 573 103 529 103 462 c 2
 103 462 103 281 103 281 c 2
 103 202 114 154 138 120 c 0
 170 77 219 54 280 54 c 0
 351 54 405 84 430 138 c 0
 444 168 452 219 452 281 c 2
EndSplineSet
Validated: 1
Substitution2: "'pnum' Proportional Numbers lookup 0-1" zero.fitted
EndChar

StartChar: sterling
Encoding: 330 163 136
GlifName: sterling
Width: 554
Flags: MW
HStem: 0 67<59 198 59 198 285 342 342 344> 347 67<18 93 18 144 18 93 242 242 242 457> 685 67<259 353>
VStem: 71 74<495 564 494 582> 240 74<165 212.5 165 214.5> 518 74<198 223 178.5 225.5>
LayerCount: 2
Fore
SplineSet
59 0 m 1
 59 0 59 67 59 67 c 1
 59 67 198 67 198 67 c 1
 226 98 240 136 240 183 c 0
 240 246 221 279 144 347 c 1
 144 347 18 347 18 347 c 1
 18 347 18 414 18 414 c 1
 18 414 93 414 93 414 c 1
 76 455 71 478 71 512 c 0
 71 652 169 752 306 752 c 0
 440 752 540 667 554 541 c 1
 554 541 485 541 485 541 c 1
 465 632 399 685 307 685 c 0
 211 685 145 615 145 513 c 0
 145 475 150 456 173 414 c 1
 173 414 457 414 457 414 c 1
 457 414 457 347 457 347 c 1
 457 347 242 347 242 347 c 1
 290 295 314 241 314 184 c 0
 314 146 307 116 285 67 c 1
 285 67 342 67 342 67 c 2
 404 67 446 80 473 106 c 0
 500 133 518 177 518 219 c 0
 518 232 517 244 512 268 c 1
 512 268 584 268 584 268 c 1
 590 245 592 233 592 213 c 0
 592 144 561 80 511 43 c 0
 471 14 418 0 344 0 c 2
 344 0 59 0 59 0 c 1
EndSplineSet
Validated: 1
EndChar

StartChar: dollar
Encoding: 36 36 137
GlifName: dollar
Width: 554
Flags: MW
HStem: -56 146<245 245 245 311> 665 145<252.5 311 245 321.5>
VStem: 100 74<530 582.5 515 597.5> 245 66<-56 29 -56 29 728 810> 405 74<185 244>
LayerCount: 2
Fore
SplineSet
245 -56 m 1
 245 -56 245 29 245 29 c 1
 131 50 74 116 74 228 c 1
 74 228 144 228 144 228 c 1
 149 141 198 90 277 90 c 0
 352 90 405 146 405 224 c 0
 405 264 390 298 363 321 c 0
 343 337 320 348 270 363 c 0
 195 386 165 403 139 436 c 0
 114 466 100 508 100 552 c 0
 100 643 156 710 245 728 c 1
 245 728 245 810 245 810 c 1
 245 810 311 810 311 810 c 1
 311 810 311 728 311 728 c 1
 409 713 469 646 473 547 c 1
 473 547 403 547 403 547 c 1
 399 621 356 665 287 665 c 0
 218 665 174 619 174 546 c 0
 174 484 201 458 296 428 c 0
 367 405 397 390 424 363 c 0
 460 329 479 280 479 226 c 0
 479 120 410 39 311 29 c 1
 311 29 311 -56 311 -56 c 1
 311 -56 245 -56 245 -56 c 1
EndSplineSet
Validated: 1
EndChar

StartChar: cent
Encoding: 331 162 138
GlifName: cent
Width: 554
Flags: MW
HStem: 62 155<259 259 259 309.5 236.5 325> 547 160<259 314.5>
VStem: 45 74<336.5 430 336.5 444.5> 259 66<62 151 62 151 614 707>
LayerCount: 2
Fore
SplineSet
259 62 m 1
 259 62 259 151 259 151 c 1
 136 161 45 259 45 382 c 0
 45 507 132 601 259 614 c 1
 259 614 259 707 259 707 c 1
 259 707 325 707 325 707 c 1
 325 707 325 614 325 614 c 1
 411 602 480 545 509 463 c 1
 509 463 426 463 426 463 c 1
 395 518 346 547 283 547 c 0
 189 547 119 477 119 383 c 0
 119 290 191 217 282 217 c 0
 337 217 377 238 422 290 c 1
 422 290 503 290 503 290 c 1
 476 217 405 162 325 151 c 1
 325 151 325 62 325 62 c 1
 325 62 259 62 259 62 c 1
EndSplineSet
Validated: 1
EndChar

StartChar: florin
Encoding: 332 402 139
GlifName: florin
Width: 554
Flags: MW
HStem: -153 67<71 105> 517 67<211 311 198 322 392 492 211 380> 729 20G<535 535> 751 67<497 517>
AnchorPoint: "Top" 425 868 basechar 0
LayerCount: 2
Fore
SplineSet
392 584 m 1
 392 584 504 584 504 584 c 1
 504 584 492 517 492 517 c 1
 492 517 380 517 380 517 c 1
 380 517 300 86 300 86 c 2
 278 -31 263 -68 221 -104 c 0
 184 -136 134 -153 76 -153 c 0
 51 -153 36 -151 18 -146 c 1
 18 -146 30 -82 30 -82 c 1
 51 -85 64 -86 78 -86 c 0
 172 -86 204 -48 231 92 c 2
 231 92 311 517 311 517 c 1
 311 517 198 517 198 517 c 1
 198 517 211 584 211 584 c 1
 211 584 322 584 322 584 c 1
 322 584 326 607 326 607 c 2
 341 684 364 733 400 768 c 0
 432 799 477 818 517 818 c 0
 525 818 532 817 546 815 c 1
 546 815 535 749 535 749 c 1
 525 750 520 751 514 751 c 0
 454 751 415 703 396 607 c 2
 396 607 392 584 392 584 c 1
EndSplineSet
Validated: 1
EndChar

StartChar: yen
Encoding: 333 165 140
GlifName: yen
Width: 554
Flags: MW
HStem: 0 21G 237 67<50 233 50 260 50 233 359 539> 396 67<43 148 43 184 43 148 443 546> 719 20G<0 76 76 76 513 589 589 589>
VStem: 260 73<0 237 0 237>
LayerCount: 2
Fore
SplineSet
260 0 m 1
 260 0 260 237 260 237 c 1
 260 237 50 237 50 237 c 1
 50 237 50 304 50 304 c 1
 50 304 233 304 233 304 c 1
 233 304 184 396 184 396 c 1
 184 396 43 396 43 396 c 1
 43 396 43 463 43 463 c 1
 43 463 148 463 148 463 c 1
 148 463 0 739 0 739 c 1
 0 739 76 739 76 739 c 1
 76 739 297 327 297 327 c 1
 297 327 513 739 513 739 c 1
 513 739 589 739 589 739 c 1
 589 739 443 463 443 463 c 1
 443 463 546 463 546 463 c 1
 546 463 546 396 546 396 c 1
 546 396 407 396 407 396 c 1
 407 396 359 304 359 304 c 1
 359 304 539 304 539 304 c 1
 539 304 539 237 539 237 c 1
 539 237 333 237 333 237 c 1
 333 237 333 0 333 0 c 1
 333 0 260 0 260 0 c 1
EndSplineSet
Validated: 1
EndChar

StartChar: uni00B9
Encoding: 334 185 141
GlifName: uni00B_9
Width: 332
Flags: MW
HStem: 684 55<98 173 98 233>
VStem: 173 60<288 684 684 684>
LayerCount: 2
Fore
SplineSet
173 288 m 1
 173 288 173 684 173 684 c 1
 173 684 98 684 98 684 c 1
 98 684 98 739 98 739 c 1
 98 739 233 739 233 739 c 1
 233 739 233 288 233 288 c 1
 233 288 173 288 173 288 c 1
EndSplineSet
Validated: 1
EndChar

StartChar: uni00B2
Encoding: 335 178 142
GlifName: uni00B_2
Width: 332
Flags: MW
HStem: 288 55<101 318 101 318> 692 55<148.5 193>
VStem: 259 61<597 631>
LayerCount: 2
Fore
SplineSet
12 288 m 1
 12 288 12 339 12 339 c 1
 12 339 175 489 175 489 c 2
 217 527 217 527 229 541 c 0
 249 564 259 586 259 608 c 0
 259 654 218 692 168 692 c 0
 129 692 94 668 82 634 c 0
 77 620 76 612 76 583 c 1
 76 583 16 583 16 583 c 1
 16 583 16 595 16 595 c 2
 17 686 79 747 171 747 c 0
 254 747 320 684 320 606 c 0
 320 559 298 521 234 464 c 2
 234 464 101 343 101 343 c 1
 101 343 318 343 318 343 c 1
 318 343 318 288 318 288 c 1
 318 288 12 288 12 288 c 1
EndSplineSet
Validated: 1
EndChar

StartChar: uni00B3
Encoding: 336 179 143
GlifName: uni00B_3
Width: 332
Flags: W
HStem: 280 55<151 190 151 207.5> 692 55<147.5 184>
VStem: 229 61<612 648.5> 258 61<401 445.5>
LayerCount: 2
Fore
SplineSet
104 615 m 1xe0
 104 615 43 615 43 615 c 1
 44 695 92 747 167 747 c 0
 236 747 290 695 290 628 c 0xe0
 290 594 280 574 249 546 c 1
 296 517 319 477 319 427 c 0
 319 347 249 280 166 280 c 0
 111 280 59 309 33 355 c 0
 19 379 15 400 13 439 c 1
 13 439 74 439 74 439 c 1
 76 401 80 390 93 373 c 0
 111 349 137 335 165 335 c 0
 215 335 258 377 258 425 c 0xd0
 258 466 228 504 187 513 c 0
 175 516 161 517 128 517 c 1
 128 517 128 571 128 571 c 1
 138 570 143 570 148 570 c 0
 199 570 229 593 229 631 c 0
 229 666 202 692 166 692 c 0
 129 692 105 665 104 624 c 2
 104 624 104 615 104 615 c 1xe0
EndSplineSet
Validated: 1
EndChar

StartChar: period
Encoding: 46 46 144
GlifName: period
Width: 277
Flags: MW
HStem: 0 126<101 175 101 175>
VStem: 101 74<0 126 0 126>
LayerCount: 2
Fore
SplineSet
101 0 m 1
 101 0 101 126 101 126 c 1
 101 126 175 126 175 126 c 1
 175 126 175 0 175 0 c 1
 175 0 101 0 101 0 c 1
EndSplineSet
Validated: 1
EndChar

StartChar: colon
Encoding: 58 58 145
GlifName: colon
Width: 277
Flags: MW
HStem: 0 126<101 175 101 175> 381 126<101 175 101 175>
VStem: 101 74<0 126 0 126 381 507>
LayerCount: 2
Fore
SplineSet
101 0 m 1
 101 0 101 126 101 126 c 1
 101 126 175 126 175 126 c 1
 175 126 175 0 175 0 c 1
 175 0 101 0 101 0 c 1
101 381 m 1
 101 381 101 507 101 507 c 1
 101 507 175 507 175 507 c 1
 175 507 175 381 175 381 c 1
 175 381 101 381 101 381 c 1
EndSplineSet
Validated: 1
EndChar

StartChar: periodcentered
Encoding: 337 183 146
GlifName: periodcentered
Width: 277
Flags: MW
HStem: 229 126<101 175 101 175>
VStem: 101 74<229 355 229 355>
LayerCount: 2
Fore
SplineSet
101 229 m 1
 101 229 101 355 101 355 c 1
 101 355 175 355 175 355 c 1
 175 355 175 229 175 229 c 1
 175 229 101 229 101 229 c 1
EndSplineSet
Validated: 1
EndChar

StartChar: ellipsis
Encoding: 338 8230 147
GlifName: ellipsis
Width: 1000
Flags: MW
HStem: 0 126<130 204 130 204 463 537 796 870>
VStem: 130 74<0 126 0 126> 463 74<0 126 0 126> 796 74<0 126 0 126>
CounterMasks: 1 70
LayerCount: 2
Fore
SplineSet
130 0 m 1
 130 0 130 126 130 126 c 1
 130 126 204 126 204 126 c 1
 204 126 204 0 204 0 c 1
 204 0 130 0 130 0 c 1
463 0 m 1
 463 0 463 126 463 126 c 1
 463 126 537 126 537 126 c 1
 537 126 537 0 537 0 c 1
 537 0 463 0 463 0 c 1
796 0 m 1
 796 0 796 126 796 126 c 1
 796 126 870 126 870 126 c 1
 870 126 870 0 870 0 c 1
 870 0 796 0 796 0 c 1
EndSplineSet
Validated: 1
EndChar

StartChar: comma
Encoding: 44 44 148
GlifName: comma
Width: 277
Flags: W
LayerCount: 2
Fore
SplineSet
91 -67 m 1
 91 -67 179 126 179 126 c 1
 179 126 253 126 253 126 c 1
 253 126 165 -67 165 -67 c 1
 165 -67 91 -67 91 -67 c 1
EndSplineSet
Validated: 1
EndChar

StartChar: semicolon
Encoding: 59 59 149
GlifName: semicolon
Width: 277
Flags: MW
HStem: 381 126<125 199 125 199>
VStem: 125 74<381 507 381 507>
LayerCount: 2
Fore
SplineSet
41 -67 m 5
 41 -67 129 126 129 126 c 5
 129 126 203 126 203 126 c 5
 203 126 115 -67 115 -67 c 5
 115 -67 41 -67 41 -67 c 5
125 381 m 1
 125 381 125 507 125 507 c 1
 125 507 199 507 199 507 c 1
 199 507 199 381 199 381 c 1
 199 381 125 381 125 381 c 1
EndSplineSet
Validated: 1
EndChar

StartChar: quoteleft
Encoding: 339 8216 150
GlifName: quoteleft
Width: 351
Flags: MW
HStem: 719 20G<98 172 172 172>
LayerCount: 2
Fore
SplineSet
260 547 m 1
 260 547 186 547 186 547 c 1
 186 547 98 739 98 739 c 1
 98 739 172 739 172 739 c 1
 172 739 260 547 260 547 c 1
EndSplineSet
Validated: 1
EndChar

StartChar: quotedblright
Encoding: 340 8221 151
GlifName: quotedblright
Width: 484
Flags: MW
HStem: 719 20G<175 249 249 249 319 393 393 393>
LayerCount: 2
Fore
SplineSet
87 547 m 1
 87 547 175 739 175 739 c 1
 175 739 249 739 249 739 c 1
 249 739 161 547 161 547 c 1
 161 547 87 547 87 547 c 1
231 547 m 1
 231 547 319 739 319 739 c 1
 319 739 393 739 393 739 c 1
 393 739 305 547 305 547 c 1
 305 547 231 547 231 547 c 1
EndSplineSet
Validated: 1
EndChar

StartChar: quotedblleft
Encoding: 341 8220 152
GlifName: quotedblleft
Width: 502
Flags: MW
HStem: 719 20G<96 170 170 170 244 318 318 318>
LayerCount: 2
Fore
SplineSet
406 547 m 1
 406 547 332 547 332 547 c 1
 332 547 244 739 244 739 c 1
 244 739 318 739 318 739 c 1
 318 739 406 547 406 547 c 1
258 547 m 1
 258 547 184 547 184 547 c 1
 184 547 96 739 96 739 c 1
 96 739 170 739 170 739 c 1
 170 739 258 547 258 547 c 1
EndSplineSet
Validated: 1
EndChar

StartChar: quotedblbase
Encoding: 342 8222 153
GlifName: quotedblbase
Width: 502
Flags: W
LayerCount: 2
Fore
SplineSet
89 -67 m 1
 89 -67 177 126 177 126 c 1
 177 126 251 126 251 126 c 1
 251 126 163 -67 163 -67 c 1
 163 -67 89 -67 89 -67 c 1
236 -67 m 1
 236 -67 324 126 324 126 c 1
 324 126 398 126 398 126 c 1
 398 126 310 -67 310 -67 c 1
 310 -67 236 -67 236 -67 c 1
EndSplineSet
Validated: 1
EndChar

StartChar: exclam
Encoding: 33 33 154
GlifName: exclam
Width: 295
Flags: MW
HStem: 0 126<111 185 111 185> 719 20G<111 185 185 185>
VStem: 111 74<0 126 0 126 197 739>
LayerCount: 2
Fore
SplineSet
111 0 m 1
 111 0 111 126 111 126 c 1
 111 126 185 126 185 126 c 1
 185 126 185 0 185 0 c 1
 185 0 111 0 111 0 c 1
111 197 m 1
 111 197 111 739 111 739 c 1
 111 739 185 739 185 739 c 1
 185 739 185 197 185 197 c 1
 185 197 111 197 111 197 c 1
EndSplineSet
Validated: 1
EndChar

StartChar: exclamdown
Encoding: 343 161 155
GlifName: exclamdown
Width: 295
Flags: MW
HStem: -192 21G 421 126<111 185 111 185>
VStem: 111 74<-192 352 -192 352 421 547>
LayerCount: 2
Fore
SplineSet
111 -192 m 1
 111 -192 111 352 111 352 c 1
 111 352 185 352 185 352 c 1
 185 352 185 -192 185 -192 c 1
 185 -192 111 -192 111 -192 c 1
111 421 m 1
 111 421 111 547 111 547 c 1
 111 547 185 547 185 547 c 1
 185 547 185 421 185 421 c 1
 185 421 111 421 111 421 c 1
EndSplineSet
Validated: 1
EndChar

StartChar: question
Encoding: 63 63 156
GlifName: question
Width: 591
Flags: MW
HStem: 0 126<261 335 261 335> 685 67<268 343>
VStem: 261 74<0 126 0 126> 451 74<512.5 580>
LayerCount: 2
Fore
SplineSet
261 0 m 1
 261 0 261 126 261 126 c 1
 261 126 335 126 335 126 c 1
 335 126 335 0 335 0 c 1
 335 0 261 0 261 0 c 1
135 508 m 1
 135 508 65 508 65 508 c 1
 67 575 77 613 104 654 c 0
 147 717 216 752 299 752 c 0
 430 752 525 661 525 535 c 0
 525 470 501 425 435 365 c 0
 361 300 334 256 333 193 c 1
 333 193 263 193 263 193 c 1
 264 275 291 328 367 397 c 0
 434 460 451 488 451 537 c 0
 451 623 387 685 299 685 c 0
 237 685 183 655 157 604 c 0
 144 580 139 555 135 508 c 1
EndSplineSet
Validated: 1
EndChar

StartChar: questiondown
Encoding: 344 191 157
GlifName: questiondown
Width: 591
Flags: MW
HStem: -205 67<248.5 323.5 248.5 333.5> 421 126<256 330 256 330>
VStem: 66 74<-33 34.5 -33 44.5> 256 74<421 547 421 547>
LayerCount: 2
Fore
SplineSet
330 547 m 1
 330 547 330 421 330 421 c 1
 330 421 256 421 256 421 c 1
 256 421 256 547 256 547 c 1
 256 547 330 547 330 547 c 1
456 39 m 1
 456 39 526 39 526 39 c 1
 525 -27 514 -66 487 -107 c 0
 444 -170 375 -205 292 -205 c 0
 161 -205 66 -114 66 12 c 0
 66 77 90 122 156 182 c 0
 230 247 257 292 259 354 c 1
 259 354 329 354 329 354 c 1
 329 354 329 339 329 339 c 2
 329 305 317 267 296 232 c 0
 280 205 267 191 224 150 c 0
 156 86 140 59 140 10 c 0
 140 -76 204 -138 293 -138 c 0
 354 -138 408 -108 434 -57 c 0
 447 -32 453 -7 456 39 c 1
EndSplineSet
Validated: 1
EndChar

StartChar: guillemotright
Encoding: 345 187 158
GlifName: guillemotright
Width: 425
Flags: W
LayerCount: 2
Fore
SplineSet
272 99 m 1
 272 99 213 132 213 132 c 1
 213 132 307 300 307 300 c 1
 307 300 213 467 213 467 c 1
 213 467 272 499 272 499 c 1
 272 499 385 300 385 300 c 1
 385 300 272 99 272 99 c 1
99 99 m 1
 99 99 40 132 40 132 c 1
 40 132 134 300 134 300 c 1
 134 300 40 467 40 467 c 1
 40 467 99 499 99 499 c 1
 99 499 214 300 214 300 c 1
 214 300 99 99 99 99 c 1
EndSplineSet
Validated: 1
EndChar

StartChar: guillemotleft
Encoding: 346 171 159
GlifName: guillemotleft
Width: 425
Flags: W
LayerCount: 2
Fore
SplineSet
153 99 m 1
 153 99 40 300 40 300 c 1
 40 300 153 499 153 499 c 1
 153 499 212 467 212 467 c 1
 212 467 118 300 118 300 c 1
 118 300 212 132 212 132 c 1
 212 132 153 99 153 99 c 1
326 99 m 1
 326 99 211 300 211 300 c 1
 211 300 326 499 326 499 c 1
 326 499 385 467 385 467 c 1
 385 467 291 300 291 300 c 1
 291 300 385 132 385 132 c 1
 385 132 326 99 326 99 c 1
EndSplineSet
Validated: 1
EndChar

StartChar: guilsinglright
Encoding: 347 8250 160
GlifName: guilsinglright
Width: 251
Flags: W
LayerCount: 2
Fore
SplineSet
99 99 m 1
 99 99 40 132 40 132 c 1
 40 132 133 300 133 300 c 1
 133 300 40 467 40 467 c 1
 40 467 99 499 99 499 c 1
 99 499 211 300 211 300 c 1
 211 300 99 99 99 99 c 1
EndSplineSet
Validated: 1
EndChar

StartChar: guilsinglleft
Encoding: 348 8249 161
GlifName: guilsinglleft
Width: 251
Flags: W
LayerCount: 2
Fore
SplineSet
152 99 m 1
 152 99 40 300 40 300 c 1
 40 300 152 499 152 499 c 1
 152 499 211 467 211 467 c 1
 211 467 118 300 118 300 c 1
 118 300 211 132 211 132 c 1
 211 132 152 99 152 99 c 1
EndSplineSet
Validated: 1
EndChar

StartChar: slash
Encoding: 47 47 162
GlifName: slash
Width: 437
Flags: MW
HStem: 719 20G<327 397 397 397>
LayerCount: 2
Fore
SplineSet
40 -128 m 1
 40 -128 327 739 327 739 c 1
 327 739 397 739 397 739 c 1
 397 739 107 -128 107 -128 c 1
 107 -128 40 -128 40 -128 c 1
EndSplineSet
Validated: 1
EndChar

StartChar: hyphen
Encoding: 45 45 163
GlifName: hyphen
Width: 332
Flags: MW
HStem: 233 63<31 302 31 302>
LayerCount: 2
Fore
SplineSet
31 296 m 1
 31 296 302 296 302 296 c 1
 302 296 302 233 302 233 c 1
 302 233 31 233 31 233 c 1
 31 233 31 296 31 296 c 1
EndSplineSet
Validated: 1
EndChar

StartChar: uni00AD
Encoding: 173 173 164
GlifName: uni00A_D_
Width: 332
Flags: MW
HStem: 233 63<31 302 31 302>
LayerCount: 2
Fore
SplineSet
31 296 m 1
 31 296 302 296 302 296 c 1
 302 296 302 233 302 233 c 1
 302 233 31 233 31 233 c 1
 31 233 31 296 31 296 c 1
EndSplineSet
Validated: 1
EndChar

StartChar: endash
Encoding: 349 8211 165
GlifName: endash
Width: 500
Flags: MW
HStem: 233 63<0 500 0 500>
LayerCount: 2
Fore
SplineSet
0 296 m 1
 0 296 500 296 500 296 c 1
 500 296 500 233 500 233 c 1
 500 233 0 233 0 233 c 1
 0 233 0 296 0 296 c 1
EndSplineSet
Validated: 1
EndChar

StartChar: emdash
Encoding: 350 8212 166
GlifName: emdash
Width: 1000
Flags: MW
HStem: 233 63<0 1000 0 1000>
LayerCount: 2
Fore
SplineSet
0 296 m 1
 0 296 1000 296 1000 296 c 1
 1000 296 1000 233 1000 233 c 1
 1000 233 0 233 0 233 c 1
 0 233 0 296 0 296 c 1
EndSplineSet
Validated: 1
EndChar

StartChar: parenleft
Encoding: 40 40 167
GlifName: parenleft
Width: 369
Flags: MW
HStem: 719 20G<335 335>
VStem: 57 74<260.5 349 260.5 372.5>
LayerCount: 2
Fore
SplineSet
335 739 m 1
 335 739 335 676 335 676 c 1
 276 640 238 603 202 545 c 0
 155 469 131 389 131 309 c 0
 131 212 168 109 231 29 c 0
 259 -6 288 -31 335 -60 c 1
 335 -60 335 -125 335 -125 c 1
 257 -97 203 -53 148 26 c 0
 87 113 57 207 57 309 c 0
 57 436 111 565 201 656 c 0
 242 698 277 719 335 739 c 1
EndSplineSet
Validated: 1
EndChar

StartChar: parenright
Encoding: 41 41 168
GlifName: parenright
Width: 369
Flags: MW
HStem: 719 20G<34 34>
VStem: 238 74<265.5 354>
LayerCount: 2
Fore
SplineSet
34 -125 m 1
 34 -125 34 -61 34 -61 c 1
 93 -26 131 11 167 70 c 0
 214 146 238 225 238 306 c 0
 238 402 201 506 138 585 c 0
 110 620 81 645 34 674 c 1
 34 674 34 739 34 739 c 1
 112 711 166 668 221 589 c 0
 282 502 312 407 312 305 c 0
 312 179 258 49 168 -42 c 0
 127 -83 92 -105 34 -125 c 1
EndSplineSet
Validated: 1
EndChar

StartChar: bracketleft
Encoding: 91 91 169
GlifName: bracketleft
Width: 351
Flags: MW
HStem: 719 20G<313 313>
VStem: 112 70<164 177 177 448>
LayerCount: 2
Fore
SplineSet
313 -50 m 1
 313 -50 313 -125 313 -125 c 1
 256 -109 212 -81 175 -38 c 0
 130 13 112 70 112 164 c 2
 112 164 112 462 112 462 c 2
 112 551 136 616 190 668 c 0
 227 705 262 726 313 739 c 1
 313 739 313 664 313 664 c 1
 215 621 182 566 182 448 c 2
 182 448 182 177 182 177 c 2
 182 49 214 -6 313 -50 c 1
EndSplineSet
Validated: 1
EndChar

StartChar: bracketright
Encoding: 93 93 170
GlifName: bracketright
Width: 351
Flags: MW
HStem: 719 20G<38 38>
VStem: 169 70<166 438 438 450>
LayerCount: 2
Fore
SplineSet
38 664 m 1
 38 664 38 739 38 739 c 1
 95 723 139 695 176 653 c 0
 221 602 239 544 239 450 c 2
 239 450 239 153 239 153 c 2
 239 63 215 -1 161 -54 c 0
 124 -91 89 -111 38 -125 c 1
 38 -125 38 -50 38 -50 c 1
 136 -6 169 48 169 166 c 2
 169 166 169 438 169 438 c 2
 169 565 137 620 38 664 c 1
EndSplineSet
Validated: 1
EndChar

StartChar: ampersand
Encoding: 38 38 171
GlifName: ampersand
Width: 757
Flags: MW
HStem: -13 67<241.5 320.5 241.5 339> 685 67<293 352.5>
VStem: 57 73<163 242.5 163 246.5> 145 74<571 616.5 571 634> 428 70<563 616.5>
LayerCount: 2
Fore
SplineSet
602 481 m 1
 602 481 684 481 684 481 c 1
 684 481 548 220 548 220 c 1
 548 220 735 38 735 38 c 1
 735 38 684 -13 684 -13 c 1
 684 -13 513 153 513 153 c 1
 455 36 388 -13 290 -13 c 0
 157 -13 57 84 57 213 c 0
 57 280 86 338 141 381 c 0
 162 397 186 412 227 433 c 1
 165 498 145 536 145 588 c 0
 145 680 222 752 320 752 c 0
 422 752 498 680 498 583 c 0
 498 528 476 486 428 453 c 0
 413 441 397 433 354 411 c 1
 354 411 494 273 494 273 c 1
 494 273 602 481 602 481 c 1
458 206 m 1
 458 206 280 380 280 380 c 1
 170 327 130 280 130 205 c 0
 130 121 198 54 285 54 c 0
 356 54 404 96 458 206 c 1
300 464 m 1
 388 498 428 537 428 589 c 0
 428 644 383 685 322 685 c 0
 264 685 219 643 219 590 c 0
 219 552 242 517 300 464 c 1
EndSplineSet
Validated: 1
EndChar

StartChar: section
Encoding: 253 167 172
GlifName: section
Width: 615
Flags: W
HStem: -141 67<274 347 274 367> 685 67<276.5 336.5>
VStem: 87 68<334.5 370 334.5 370> 135 68<572.5 618.5 572.5 636> 433 68<4 55> 461 68<262 298.5>
LayerCount: 2
Fore
SplineSet
483 606 m 1xd0
 483 606 412 606 412 606 c 1
 401 659 366 685 307 685 c 0
 246 685 203 646 203 591 c 0
 203 554 224 524 262 505 c 2
 262 505 420 431 420 431 c 2
 493 396 529 350 529 289 c 0xd4
 529 234 502 183 453 146 c 1
 487 111 501 78 501 37 c 0
 501 -65 421 -141 313 -141 c 0
 196 -141 110 -56 106 64 c 1
 106 64 174 64 174 64 c 1
 180 -19 235 -74 313 -74 c 0
 381 -74 433 -27 433 35 c 0
 433 75 406 104 339 137 c 2
 339 137 196 207 196 207 c 2
 114 248 87 280 87 339 c 0xe8
 87 401 115 450 173 491 c 1
 146 521 135 548 135 589 c 0
 135 683 208 752 307 752 c 0
 404 752 476 692 483 606 c 1xd0
400 365 m 2
 400 365 212 454 212 454 c 1
 177 430 155 390 155 350 c 0xe0
 155 319 172 296 209 278 c 2
 209 278 407 182 407 182 c 1
 440 206 461 244 461 280 c 0
 461 317 441 346 400 365 c 2
EndSplineSet
Validated: 1
EndChar

StartChar: dagger
Encoding: 351 8224 173
GlifName: dagger
Width: 553
Flags: MW
HStem: 470 66<59 237 59 237 311 494> 719 20G<237 311 311 311>
VStem: 237 74<-133 470 -133 470 536 739>
LayerCount: 2
Fore
SplineSet
311 739 m 1
 311 739 311 536 311 536 c 1
 311 536 494 536 494 536 c 1
 494 536 494 470 494 470 c 1
 494 470 311 470 311 470 c 1
 311 470 311 -133 311 -133 c 1
 311 -133 237 -133 237 -133 c 1
 237 -133 237 470 237 470 c 1
 237 470 59 470 59 470 c 1
 59 470 59 536 59 536 c 1
 59 536 237 536 237 536 c 1
 237 536 237 739 237 739 c 1
 237 739 311 739 311 739 c 1
EndSplineSet
Validated: 1
EndChar

StartChar: daggerdbl
Encoding: 352 8225 174
GlifName: daggerdbl
Width: 553
Flags: MW
HStem: 331 70<59 238 59 238 312 494> 493 70<59 238 59 238 312 494> 719 20G<238 312 312 312>
VStem: 238 74<-133 331 -133 331 401 493 563 739>
LayerCount: 2
Fore
SplineSet
312 739 m 1
 312 739 312 563 312 563 c 1
 312 563 494 563 494 563 c 1
 494 563 494 493 494 493 c 1
 494 493 312 493 312 493 c 1
 312 493 312 401 312 401 c 1
 312 401 494 401 494 401 c 1
 494 401 494 331 494 331 c 1
 494 331 312 331 312 331 c 1
 312 331 312 -133 312 -133 c 1
 312 -133 238 -133 238 -133 c 1
 238 -133 238 331 238 331 c 1
 238 331 59 331 59 331 c 1
 59 331 59 401 59 401 c 1
 59 401 238 401 238 401 c 1
 238 401 238 493 238 493 c 1
 238 493 59 493 59 493 c 1
 59 493 59 563 59 563 c 1
 59 563 238 563 238 563 c 1
 238 563 238 739 238 739 c 1
 238 739 312 739 312 739 c 1
EndSplineSet
Validated: 1
EndChar

StartChar: asterisk
Encoding: 42 42 175
GlifName: asterisk
Width: 425
Flags: MW
HStem: 732 20G<162 162 267 267>
LayerCount: 2
Fore
SplineSet
267 752 m 1
 267 752 314 724 314 724 c 1
 314 724 257 632 257 632 c 1
 257 632 360 635 360 635 c 1
 360 635 360 583 360 583 c 1
 360 583 258 585 258 585 c 1
 258 585 313 495 313 495 c 1
 313 495 266 468 266 468 c 1
 266 468 213 559 213 559 c 1
 213 559 160 468 160 468 c 1
 160 468 112 496 112 496 c 1
 112 496 169 585 169 585 c 1
 169 585 64 583 64 583 c 1
 64 583 64 635 64 635 c 1
 64 635 169 632 169 632 c 1
 169 632 113 724 113 724 c 1
 113 724 162 752 162 752 c 1
 162 752 215 662 215 662 c 1
 215 662 267 752 267 752 c 1
EndSplineSet
Validated: 1
EndChar

StartChar: quotesingle
Encoding: 39 39 176
GlifName: quotesingle
Width: 198
Flags: MW
HStem: 513 226<74 124 74 124>
VStem: 74 50<513 739>
LayerCount: 2
Fore
SplineSet
124 513 m 1
 124 513 74 513 74 513 c 1
 74 513 74 739 74 739 c 1
 74 739 124 739 124 739 c 1
 124 739 124 513 124 513 c 1
EndSplineSet
Validated: 1
EndChar

StartChar: quotedbl
Encoding: 34 34 177
GlifName: quotedbl
Width: 309
Flags: MW
HStem: 513 226<74 124 74 124 187 237 74 187>
VStem: 74 50<513 739> 187 50<513 739>
LayerCount: 2
Fore
SplineSet
237 513 m 1
 237 513 187 513 187 513 c 1
 187 513 187 739 187 739 c 1
 187 739 237 739 237 739 c 1
 237 739 237 513 237 513 c 1
124 513 m 1
 124 513 74 513 74 513 c 1
 74 513 74 739 74 739 c 1
 74 739 124 739 124 739 c 1
 124 739 124 513 124 513 c 1
EndSplineSet
Validated: 1
EndChar

StartChar: at
Encoding: 64 64 178
GlifName: at
Width: 867
Flags: W
HStem: -13 50<361 498.5 361 505.5> 139 52<566.5 587> 144 58<347 380.5> 539 54<420.5 478 401 486.5> 701 51<361.5 496 346.5 536>
VStem: 71 52<276 459.5 276 474> 219 72<266.5 354.5 266.5 368.5> 747 50<397.5 480 387.5 510>
LayerCount: 2
Fore
SplineSet
656 574 m 1x37
 656 574 563 296 563 296 c 2
 543 234 543 234 543 219 c 0
 543 202 557 191 576 191 c 0
 602 191 637 209 666 239 c 0
 718 291 747 361 747 434 c 0
 747 586 620 701 452 701 c 0
 271 701 123 551 123 368 c 0
 123 184 269 37 453 37 c 0
 544 37 624 72 687 138 c 1
 687 138 727 105 727 105 c 1
 664 32 560 -13 451 -13 c 0
 238 -13 71 155 71 367 c 0
 71 581 241 752 452 752 c 0
 540 752 626 721 689 667 c 0
 760 607 797 527 797 433 c 0
 797 342 761 259 695 198 c 0
 652 158 610 139 564 139 c 0xdf
 517 139 492 155 476 196 c 1
 439 159 404 144 357 144 c 0
 276 144 219 205 219 292 c 0
 219 445 339 593 463 593 c 0
 493 593 522 585 543 571 c 0
 559 561 567 549 578 524 c 1
 578 524 595 574 595 574 c 1
 595 574 656 574 656 574 c 1x37
463 539 m 0
 378 539 291 415 291 294 c 0
 291 239 323 202 371 202 c 0x37
 418 202 453 231 489 297 c 0
 518 351 540 422 540 462 c 0
 540 509 510 539 463 539 c 0
EndSplineSet
Validated: 1
EndChar

StartChar: numbersign
Encoding: 35 35 179
GlifName: numbersign
Width: 554
Flags: MW
HStem: 0 21G 237 61<5 104 5 116 181 333 5 169 411 534> 453 61<21 145 21 156 21 210 221 373 450 549> 719 20G<198 262 262 262 424 491 491 491>
LayerCount: 2
Fore
SplineSet
534 298 m 1
 534 298 534 237 534 237 c 1
 534 237 399 237 399 237 c 1
 399 237 356 0 356 0 c 1
 356 0 290 0 290 0 c 1
 290 0 333 237 333 237 c 1
 333 237 169 237 169 237 c 1
 169 237 124 0 124 0 c 1
 124 0 59 0 59 0 c 1
 59 0 104 237 104 237 c 1
 104 237 5 237 5 237 c 1
 5 237 5 298 5 298 c 1
 5 298 116 298 116 298 c 1
 116 298 145 453 145 453 c 1
 145 453 21 453 21 453 c 1
 21 453 21 514 21 514 c 1
 21 514 156 514 156 514 c 1
 156 514 198 739 198 739 c 1
 198 739 262 739 262 739 c 1
 262 739 221 514 221 514 c 1
 221 514 384 514 384 514 c 1
 384 514 424 739 424 739 c 1
 424 739 491 739 491 739 c 1
 491 739 450 514 450 514 c 1
 450 514 549 514 549 514 c 1
 549 514 549 453 549 453 c 1
 549 453 439 453 439 453 c 1
 439 453 411 298 411 298 c 1
 411 298 534 298 534 298 c 1
373 453 m 1
 373 453 210 453 210 453 c 1
 210 453 181 298 181 298 c 1
 181 298 344 298 344 298 c 1
 344 298 373 453 373 453 c 1
EndSplineSet
Validated: 1
EndChar

StartChar: degree
Encoding: 353 176 180
GlifName: degree
Width: 400
Flags: MW
HStem: 380 57<174 226 174 242> 629 57<174 226>
VStem: 50 56<506.5 559 506.5 576.5> 293 57<506 560>
LayerCount: 2
Fore
SplineSet
204 686 m 0
 286 686 350 619 350 533 c 0
 350 447 284 380 200 380 c 0
 116 380 50 448 50 534 c 0
 50 619 117 686 204 686 c 0
200 629 m 4
 148 629 106 585 106 533 c 4
 106 480 148 437 200 437 c 4
 252 437 293 479 293 533 c 4
 293 587 252 629 200 629 c 4
EndSplineSet
Validated: 1
EndChar

StartChar: plus
Encoding: 43 43 181
GlifName: plus
Width: 606
Flags: MW
HStem: 267 74<51 265 51 265 342 555> 537 20G<265 342 342 342>
VStem: 265 77<49 267 49 267 341 557>
LayerCount: 2
Fore
SplineSet
265 341 m 1
 265 341 265 557 265 557 c 1
 265 557 342 557 342 557 c 1
 342 557 342 341 342 341 c 1
 342 341 555 341 555 341 c 1
 555 341 555 267 555 267 c 1
 555 267 342 267 342 267 c 1
 342 267 342 49 342 49 c 1
 342 49 265 49 265 49 c 1
 265 49 265 267 265 267 c 1
 265 267 51 267 51 267 c 1
 51 267 51 341 51 341 c 1
 51 341 265 341 265 341 c 1
EndSplineSet
Validated: 1
EndChar

StartChar: minus
Encoding: 354 8722 182
GlifName: minus
Width: 606
Flags: MW
HStem: 267 74<51 555 51 555>
LayerCount: 2
Fore
SplineSet
555 341 m 1
 555 341 555 267 555 267 c 1
 555 267 51 267 51 267 c 1
 51 267 51 341 51 341 c 1
 51 341 555 341 555 341 c 1
EndSplineSet
Validated: 1
EndChar

StartChar: multiply
Encoding: 355 215 183
GlifName: multiply
Width: 606
Flags: MW
HStem: 531 20G<103 103 503 503>
LayerCount: 2
Fore
SplineSet
355 299 m 1
 355 299 555 99 555 99 c 1
 555 99 503 48 503 48 c 1
 503 48 303 248 303 248 c 1
 303 248 103 48 103 48 c 1
 103 48 51 99 51 99 c 1
 51 99 251 299 251 299 c 1
 251 299 51 500 51 500 c 1
 51 500 103 551 103 551 c 1
 103 551 303 351 303 351 c 1
 303 351 503 551 503 551 c 1
 503 551 555 500 555 500 c 1
 555 500 355 299 355 299 c 1
EndSplineSet
Validated: 1
EndChar

StartChar: divide
Encoding: 356 247 184
GlifName: divide
Width: 606
Flags: MW
HStem: 112 87<259 346 259 346> 267 74<51 555 51 555> 409 87<259 346 259 346>
VStem: 259 87<112 199 409 496>
CounterMasks: 1 e0
LayerCount: 2
Fore
SplineSet
346 409 m 1
 346 409 259 409 259 409 c 1
 259 409 259 496 259 496 c 1
 259 496 346 496 346 496 c 1
 346 496 346 409 346 409 c 1
346 112 m 1
 346 112 259 112 259 112 c 1
 259 112 259 199 259 199 c 1
 259 199 346 199 346 199 c 1
 346 199 346 112 346 112 c 1
555 341 m 1
 555 341 555 267 555 267 c 1
 555 267 51 267 51 267 c 1
 51 267 51 341 51 341 c 1
 51 341 555 341 555 341 c 1
EndSplineSet
Validated: 1
EndChar

StartChar: equal
Encoding: 61 61 185
GlifName: equal
Width: 606
Flags: MW
HStem: 164 74<51 555 51 555> 362 74<51 555 51 555>
LayerCount: 2
Fore
SplineSet
555 436 m 1
 555 436 555 362 555 362 c 1
 555 362 51 362 51 362 c 1
 51 362 51 436 51 436 c 1
 51 436 555 436 555 436 c 1
555 238 m 1
 555 238 555 164 555 164 c 1
 555 164 51 164 51 164 c 1
 51 164 51 238 51 238 c 1
 51 238 555 238 555 238 c 1
EndSplineSet
Validated: 1
EndChar

StartChar: trademark
Encoding: 357 8482 186
GlifName: trademark
Width: 1000
Flags: MW
HStem: 681 58<63 205 63 413 269 413 269 269>
VStem: 205 64<340 681 340 681> 461 64<340 685 340 739 340 739> 874 64<340 684 684 684>
LayerCount: 2
Fore
SplineSet
938 739 m 1
 938 739 938 340 938 340 c 1
 938 340 874 340 874 340 c 1
 874 340 874 684 874 684 c 1
 874 684 718 340 718 340 c 1
 718 340 676 340 676 340 c 1
 676 340 525 685 525 685 c 1
 525 685 525 340 525 340 c 1
 525 340 461 340 461 340 c 1
 461 340 461 739 461 739 c 1
 461 739 570 739 570 739 c 1
 570 739 697 455 697 455 c 1
 697 455 832 739 832 739 c 1
 832 739 938 739 938 739 c 1
413 739 m 1
 413 739 413 681 413 681 c 1
 413 681 269 681 269 681 c 1
 269 681 269 340 269 340 c 1
 269 340 205 340 205 340 c 1
 205 340 205 681 205 681 c 1
 205 681 63 681 63 681 c 1
 63 681 63 739 63 739 c 1
 63 739 413 739 413 739 c 1
EndSplineSet
Validated: 1
EndChar

StartChar: paragraph
Encoding: 358 182 187
GlifName: paragraph
Width: 564
Flags: MW
HStem: 672 67<302 416 302 302>
VStem: 227 75<-133 355 355 355> 416 75<-133 672 672 672>
LayerCount: 2
Fore
SplineSet
227 -133 m 1
 227 -133 227 355 227 355 c 1
 109 367 37 441 37 549 c 0
 37 616 68 675 123 708 c 0
 157 730 198 739 260 739 c 2
 260 739 491 739 491 739 c 1
 491 739 491 -133 491 -133 c 1
 491 -133 416 -133 416 -133 c 1
 416 -133 416 672 416 672 c 1
 416 672 302 672 302 672 c 1
 302 672 302 -133 302 -133 c 1
 302 -133 227 -133 227 -133 c 1
EndSplineSet
Validated: 1
EndChar

StartChar: currency
Encoding: 359 164 188
GlifName: currency
Width: 554
Flags: MW
HStem: 50 72<247.5 304.5> 483 70<248 305 248 328.5> 528 20G<84 84> 529 20G<469 469>
VStem: 26 71<273.5 332.5> 457 71<270 329.5 270 355.5>
LayerCount: 2
Fore
SplineSet
29 494 m 1x9c
 29 494 84 548 84 548 c 1xac
 84 548 127 506 127 506 c 1
 180 540 220 553 276 553 c 0xcc
 334 553 382 538 426 507 c 1
 426 507 469 549 469 549 c 1
 469 549 523 494 523 494 c 1
 523 494 482 452 482 452 c 1
 514 404 528 359 528 300 c 0
 528 240 513 191 481 153 c 1
 481 153 523 111 523 111 c 1
 523 111 469 58 469 58 c 1
 469 58 428 100 428 100 c 1
 370 62 333 50 276 50 c 0
 219 50 180 63 126 100 c 1
 126 100 84 58 84 58 c 1
 84 58 31 112 31 112 c 1
 31 112 72 153 72 153 c 1
 40 198 26 244 26 303 c 0
 26 362 40 406 73 452 c 1
 73 452 29 494 29 494 c 1x9c
275 483 m 0xcc
 174 483 97 405 97 302 c 0
 97 199 175 122 279 122 c 0
 380 122 457 200 457 302 c 0
 457 409 382 483 275 483 c 0xcc
EndSplineSet
Validated: 1
EndChar

StartChar: quotesinglbase
Encoding: 360 8218 189
GlifName: quotesinglbase
Width: 354
Flags: W
LayerCount: 2
Fore
SplineSet
89 -67 m 1
 89 -67 177 126 177 126 c 1
 177 126 251 126 251 126 c 1
 251 126 163 -67 163 -67 c 1
 163 -67 89 -67 89 -67 c 1
EndSplineSet
Validated: 1
EndChar

StartChar: quoteright
Encoding: 361 8217 190
GlifName: quoteright
Width: 351
Flags: MW
HStem: 719 20G<179 253 253 253>
LayerCount: 2
Fore
SplineSet
91 547 m 1
 91 547 179 739 179 739 c 1
 179 739 253 739 253 739 c 1
 253 739 165 547 165 547 c 1
 165 547 91 547 91 547 c 1
EndSplineSet
Validated: 1
EndChar

StartChar: braceleft
Encoding: 123 123 191
GlifName: braceleft
Width: 351
Flags: MW
HStem: 719 20G<292 292>
VStem: 137 77<13 182 430 431 431 600 600 601>
LayerCount: 2
Fore
SplineSet
125 306 m 1
 125 306 143 300 143 300 c 2
 197 279 214 251 214 182 c 2
 214 182 214 12 214 12 c 2
 214 -39 228 -53 281 -58 c 2
 281 -58 292 -59 292 -59 c 1
 292 -59 292 -126 292 -126 c 1
 225 -125 207 -121 183 -105 c 0
 152 -85 137 -47 137 13 c 2
 137 13 137 183 137 183 c 2
 137 245 123 260 58 272 c 1
 58 272 58 341 58 341 c 1
 123 352 137 368 137 430 c 2
 137 430 137 600 137 600 c 2
 137 660 152 698 183 718 c 0
 207 734 225 737 292 739 c 1
 292 739 292 672 292 672 c 1
 252 668 246 667 237 662 c 0
 222 654 214 631 214 601 c 2
 214 601 214 431 214 431 c 2
 214 362 197 333 143 313 c 0
 137 311 131 309 125 306 c 1
EndSplineSet
Validated: 1
EndChar

StartChar: braceright
Encoding: 125 125 192
GlifName: braceright
Width: 348
Flags: MW
HStem: 719 20G<59 59>
VStem: 137 77<12 13 13 182 182 183 431 600>
LayerCount: 2
Fore
SplineSet
226 306 m 1
 226 306 208 313 208 313 c 2
 154 334 137 362 137 431 c 2
 137 431 137 601 137 601 c 2
 137 624 131 645 122 656 c 0
 114 665 102 668 70 671 c 2
 70 671 59 672 59 672 c 1
 59 672 59 739 59 739 c 1
 137 737 162 730 187 702 c 0
 204 683 214 646 214 600 c 2
 214 600 214 430 214 430 c 2
 214 368 227 352 290 341 c 1
 290 341 290 272 290 272 c 1
 227 261 214 245 214 183 c 2
 214 183 214 13 214 13 c 2
 214 -40 202 -78 178 -98 c 0
 153 -119 131 -125 59 -126 c 1
 59 -126 59 -59 59 -59 c 1
 59 -59 70 -58 70 -58 c 2
 106 -55 118 -51 126 -38 c 0
 133 -27 137 -8 137 12 c 2
 137 12 137 182 137 182 c 2
 137 251 154 279 208 300 c 2
 208 300 226 306 226 306 c 1
EndSplineSet
Validated: 1
EndChar

StartChar: ordfeminine
Encoding: 362 170 193
GlifName: ordfeminine
Width: 369
Flags: MW
HStem: 319 51<31 339 31 339> 441 49<157.5 203.5> 696 49<157 203.5 141 210>
VStem: 31 53<566.5 620.5 566.5 635.5> 285 48<448 493 493 493 694 739 448 739>
LayerCount: 2
Fore
SplineSet
333 739 m 1
 333 739 333 448 333 448 c 1
 333 448 285 448 285 448 c 1
 285 448 285 493 285 493 c 1
 255 456 225 441 182 441 c 0
 100 441 31 511 31 594 c 0
 31 677 99 745 183 745 c 0
 224 745 266 724 285 694 c 1
 285 694 285 739 285 739 c 1
 285 739 333 739 333 739 c 1
183 696 m 0
 131 696 84 647 84 594 c 0
 84 539 131 490 184 490 c 0
 236 490 282 538 282 592 c 0
 282 649 237 696 183 696 c 0
31 370 m 1
 31 370 339 370 339 370 c 1
 339 370 339 319 339 319 c 1
 339 319 31 319 31 319 c 1
 31 319 31 370 31 370 c 1
EndSplineSet
Validated: 1
EndChar

StartChar: ordmasculine
Encoding: 363 186 194
GlifName: ordmasculine
Width: 369
Flags: MW
HStem: 319 51<32 337 32 337> 442 49<157 212.5 157 226> 696 49<156 211.5>
VStem: 32 53<565 622 565 635> 284 53<564.5 622>
LayerCount: 2
Fore
SplineSet
186 745 m 0
 268 745 337 675 337 594 c 0
 337 511 268 442 184 442 c 0
 101 442 32 510 32 593 c 0
 32 677 101 745 186 745 c 0
183 696 m 0
 129 696 85 650 85 594 c 0
 85 536 129 491 185 491 c 0
 240 491 284 536 284 593 c 0
 284 651 240 696 183 696 c 0
32 370 m 1
 32 370 337 370 337 370 c 1
 337 370 337 319 337 319 c 1
 337 319 32 319 32 319 c 1
 32 319 32 370 32 370 c 1
EndSplineSet
Validated: 1
EndChar

StartChar: plusminus
Encoding: 364 177 195
GlifName: plusminus
Width: 606
Flags: MW
HStem: 0 74<51 555 51 555> 295 74<51 265 51 265 342 555>
VStem: 265 77<124 295 124 295 369 585>
LayerCount: 2
Fore
SplineSet
265 369 m 1
 265 369 265 585 265 585 c 1
 265 585 342 585 342 585 c 1
 342 585 342 369 342 369 c 1
 342 369 555 369 555 369 c 1
 555 369 555 295 555 295 c 1
 555 295 342 295 342 295 c 1
 342 295 342 124 342 124 c 1
 342 124 265 124 265 124 c 1
 265 124 265 295 265 295 c 1
 265 295 51 295 51 295 c 1
 51 295 51 369 51 369 c 1
 51 369 265 369 265 369 c 1
555 74 m 1
 555 74 555 0 555 0 c 1
 555 0 51 0 51 0 c 1
 51 0 51 74 51 74 c 1
 51 74 555 74 555 74 c 1
EndSplineSet
Validated: 1
EndChar

StartChar: onehalf
Encoding: 365 189 196
GlifName: onehalf
Width: 831
Flags: MW
HStem: 0 55<595 812 595 812> 404 55<642.5 687> 684 55<96 171 96 231>
VStem: 171 60<288 684 684 684> 753 61<309 343>
LayerCount: 2
Fore
SplineSet
206 0 m 1
 206 0 547 739 547 739 c 1
 547 739 602 739 602 739 c 1
 602 739 260 0 260 0 c 1
 260 0 206 0 206 0 c 1
171 288 m 1
 171 288 171 684 171 684 c 1
 171 684 96 684 96 684 c 1
 96 684 96 739 96 739 c 1
 96 739 231 739 231 739 c 1
 231 739 231 288 231 288 c 1
 231 288 171 288 171 288 c 1
506 0 m 1
 506 0 506 51 506 51 c 1
 506 51 669 201 669 201 c 2
 711 239 711 239 723 253 c 0
 743 276 753 298 753 320 c 0
 753 366 712 404 662 404 c 0
 623 404 588 380 576 346 c 0
 571 332 570 324 570 295 c 1
 570 295 510 295 510 295 c 1
 510 295 510 307 510 307 c 2
 511 398 573 459 665 459 c 0
 748 459 814 396 814 318 c 0
 814 271 792 233 728 176 c 2
 728 176 595 55 595 55 c 1
 595 55 812 55 812 55 c 1
 812 55 812 0 812 0 c 1
 812 0 506 0 506 0 c 1
EndSplineSet
Validated: 1
EndChar

StartChar: onequarter
Encoding: 366 188 197
GlifName: onequarter
Width: 831
Flags: MW
HStem: 0 21G 79 55<545 701 545 701 761 803> 684 55<101 176 101 236>
VStem: 176 60<288 684 684 684> 701 60<0 79 0 79 134 359 359 359>
LayerCount: 2
Fore
SplineSet
701 0 m 1
 701 0 701 79 701 79 c 1
 701 79 470 79 470 79 c 1
 470 79 470 129 470 129 c 1
 470 129 696 451 696 451 c 1
 696 451 761 451 761 451 c 1
 761 451 761 134 761 134 c 1
 761 134 803 134 803 134 c 1
 803 134 803 79 803 79 c 1
 803 79 761 79 761 79 c 1
 761 79 761 0 761 0 c 1
 761 0 701 0 701 0 c 1
701 134 m 1
 701 134 701 359 701 359 c 1
 701 359 545 134 545 134 c 1
 545 134 701 134 701 134 c 1
211 0 m 1
 211 0 552 739 552 739 c 1
 552 739 607 739 607 739 c 1
 607 739 265 0 265 0 c 1
 265 0 211 0 211 0 c 1
176 288 m 1
 176 288 176 684 176 684 c 1
 176 684 101 684 101 684 c 1
 101 684 101 739 101 739 c 1
 101 739 236 739 236 739 c 1
 236 739 236 288 236 288 c 1
 236 288 176 288 176 288 c 1
EndSplineSet
Validated: 1
EndChar

StartChar: threequarters
Encoding: 367 190 198
GlifName: threequarters
Width: 831
Flags: MW
HStem: 0 21G 79 55<545 701 545 701 761 803> 280 55<151 190 151 207.5> 692 55<147.5 184>
VStem: 229 61<612 648.5> 258 61<401 445.5> 701 60<0 79 0 79 134 359 359 359>
LayerCount: 2
Fore
SplineSet
701 0 m 1xf2
 701 0 701 79 701 79 c 1
 701 79 470 79 470 79 c 1
 470 79 470 129 470 129 c 1
 470 129 696 451 696 451 c 1
 696 451 761 451 761 451 c 1
 761 451 761 134 761 134 c 1
 761 134 803 134 803 134 c 1
 803 134 803 79 803 79 c 1
 803 79 761 79 761 79 c 1
 761 79 761 0 761 0 c 1
 761 0 701 0 701 0 c 1xf2
701 134 m 1
 701 134 701 359 701 359 c 1
 701 359 545 134 545 134 c 1
 545 134 701 134 701 134 c 1
239 0 m 1
 239 0 580 739 580 739 c 1
 580 739 635 739 635 739 c 1
 635 739 293 0 293 0 c 1
 293 0 239 0 239 0 c 1
104 615 m 1
 104 615 43 615 43 615 c 1
 44 695 92 747 167 747 c 0
 236 747 290 695 290 628 c 0xfa
 290 594 280 574 249 546 c 1
 296 517 319 477 319 427 c 0
 319 347 249 280 166 280 c 0
 111 280 59 309 33 355 c 0
 19 379 14 400 13 439 c 1
 13 439 74 439 74 439 c 1
 76 401 80 390 93 373 c 0
 111 349 137 335 165 335 c 0
 215 335 258 377 258 425 c 0xf6
 258 466 228 504 187 513 c 0
 175 516 161 517 128 517 c 1
 128 517 128 571 128 571 c 1
 138 570 143 570 148 570 c 0
 199 570 229 593 229 631 c 0xfa
 229 666 202 692 166 692 c 0
 129 692 105 665 104 624 c 2
 104 624 104 615 104 615 c 1
EndSplineSet
Validated: 1
EndChar

StartChar: fraction
Encoding: 368 8260 199
GlifName: fraction
Width: 166
Flags: MW
HStem: 0 21G 719 20G<227 281 281 281>
LayerCount: 2
Fore
SplineSet
-115 0 m 1
 -115 0 227 739 227 739 c 1
 227 739 281 739 281 739 c 1
 281 739 -61 0 -61 0 c 1
 -61 0 -115 0 -115 0 c 1
EndSplineSet
Validated: 1
EndChar

StartChar: percent
Encoding: 37 37 200
GlifName: percent
Width: 775
Flags: MW
HStem: -13 66<546.5 606 546.5 624.5> 272 66<545.5 605.5> 397 66<158 217.5 158 236.5> 683 66<157 217> 719 20G<514 588 588 588>
VStem: 13 66<542.5 603 542.5 622> 296 68<542 603.5> 401 67<132.5 192.5 132.5 211.5> 684 68<132 193>
LayerCount: 2
Fore
SplineSet
514 739 m 1xef80
 514 739 588 739 588 739 c 1
 588 739 254 0 254 0 c 1
 254 0 182 0 182 0 c 1
 182 0 514 739 514 739 c 1xef80
579 338 m 0
 673 338 752 258 752 163 c 0
 752 66 673 -13 576 -13 c 0
 480 -13 401 66 401 162 c 0
 401 261 479 338 579 338 c 0
575 272 m 0
 516 272 468 222 468 163 c 0
 468 102 517 53 576 53 c 0
 636 53 684 102 684 162 c 0
 684 224 636 272 575 272 c 0
191 749 m 0xf780
 285 749 364 669 364 573 c 0
 364 476 285 397 188 397 c 0
 92 397 13 476 13 573 c 0
 13 671 91 749 191 749 c 0xf780
186 683 m 0
 128 683 79 633 79 573 c 0
 79 512 128 463 188 463 c 0
 247 463 296 512 296 572 c 0
 296 635 248 683 186 683 c 0
EndSplineSet
Validated: 1
EndChar

StartChar: perthousand
Encoding: 369 8240 201
GlifName: perthousand
Width: 1174
Flags: MW
HStem: -13 66<546.5 606 546.5 624.5 945.5 1005> 272 66<545.5 605.5 944.5 1004.5> 397 66<158 217.5 158 236.5> 683 66<157 217> 719 20G<514 588 588 588>
VStem: 13 66<542.5 603 542.5 622> 296 68<542 603.5> 401 67<132.5 192.5 132.5 211.5> 684 68<132 193> 800 67<132.5 192.5 132.5 211.5> 1083 68<132 193>
LayerCount: 2
Fore
SplineSet
514 739 m 1xefe0
 514 739 588 739 588 739 c 1
 588 739 254 0 254 0 c 1
 254 0 182 0 182 0 c 1
 182 0 514 739 514 739 c 1xefe0
579 338 m 0
 673 338 752 258 752 163 c 0
 752 66 673 -13 576 -13 c 0
 480 -13 401 66 401 162 c 0
 401 261 479 338 579 338 c 0
575 272 m 0
 516 272 468 222 468 163 c 0
 468 102 517 53 576 53 c 0
 636 53 684 102 684 162 c 0
 684 224 636 272 575 272 c 0
978 338 m 0
 1072 338 1151 258 1151 163 c 0
 1151 66 1072 -13 975 -13 c 0
 879 -13 800 66 800 162 c 0
 800 261 878 338 978 338 c 0
974 272 m 0
 915 272 867 222 867 163 c 0
 867 102 916 53 975 53 c 0
 1035 53 1083 102 1083 162 c 0
 1083 224 1035 272 974 272 c 0
191 749 m 0xf7e0
 285 749 364 669 364 573 c 0
 364 476 285 397 188 397 c 0
 92 397 13 476 13 573 c 0
 13 671 91 749 191 749 c 0xf7e0
186 683 m 0
 128 683 79 633 79 573 c 0
 79 512 128 463 188 463 c 0
 247 463 296 512 296 572 c 0
 296 635 248 683 186 683 c 0
EndSplineSet
Validated: 1
EndChar

StartChar: backslash
Encoding: 92 92 202
GlifName: backslash
Width: 605
Flags: MW
HStem: 0 21G 719 20G<84 154 154 154>
LayerCount: 2
Fore
SplineSet
464 0 m 1
 464 0 394 0 394 0 c 1
 394 0 84 739 84 739 c 1
 84 739 154 739 154 739 c 1
 154 739 464 0 464 0 c 1
EndSplineSet
Validated: 1
EndChar

StartChar: dieresis
Encoding: 370 168 203
GlifName: dieresis
Width: 369
Flags: MW
HStem: 623 126<74 148 74 148 74 221 221 295>
VStem: 74 74<623 749 623 749> 221 74<623 749 623 749>
LayerCount: 2
Fore
SplineSet
74 749 m 1
 74 749 148 749 148 749 c 1
 148 749 148 623 148 623 c 1
 148 623 74 623 74 623 c 1
 74 623 74 749 74 749 c 1
221 749 m 1
 221 749 295 749 295 749 c 1
 295 749 295 623 295 623 c 1
 295 623 221 623 221 623 c 1
 221 623 221 749 221 749 c 1
EndSplineSet
Validated: 1
EndChar

StartChar: dotaccent
Encoding: 371 729 204
GlifName: dotaccent
Width: 222
Flags: MW
HStem: 623 126<74 148 74 148>
VStem: 74 74<623 749 623 749>
LayerCount: 2
Fore
SplineSet
74 749 m 1
 74 749 148 749 148 749 c 1
 148 749 148 623 148 623 c 1
 148 623 74 623 74 623 c 1
 74 623 74 749 74 749 c 1
EndSplineSet
Validated: 1
EndChar

StartChar: ring
Encoding: 372 730 205
GlifName: ring
Width: 332
Flags: MW
HStem: 610 41<152 180 152 191.5> 753 41<151.5 179.5>
VStem: 74 41<687 715.5 687 727> 217 41<687.5 715.5>
LayerCount: 2
Fore
SplineSet
167 794 m 0
 217 794 258 752 258 702 c 0
 258 651 217 610 166 610 c 0
 115 610 74 651 74 701 c 0
 74 753 115 794 167 794 c 0
165 753 m 0
 138 753 115 730 115 701 c 0
 115 673 138 651 166 651 c 0
 194 651 217 674 217 701 c 0
 217 730 194 753 165 753 c 0
EndSplineSet
Validated: 1
EndChar

StartChar: acute
Encoding: 373 180 206
GlifName: acute
Width: 375
Flags: W
LayerCount: 2
Fore
SplineSet
74 666 m 1
 74 666 267 782 267 782 c 1
 267 782 301 724 301 724 c 1
 301 724 108 610 108 610 c 1
 108 610 74 666 74 666 c 1
EndSplineSet
Validated: 1
EndChar

StartChar: grave
Encoding: 96 96 207
GlifName: grave
Width: 378
Flags: W
LayerCount: 2
Fore
SplineSet
106 776 m 5
 106 776 304 666 304 666 c 5
 304 666 271 610 271 610 c 5
 271 610 74 718 74 718 c 5
 74 718 106 776 106 776 c 5
EndSplineSet
Validated: 1
EndChar

StartChar: circumflex
Encoding: 374 710 208
GlifName: circumflex
Width: 502
Flags: MW
HStem: 729 20G<219 285 285 285>
LayerCount: 2
Fore
SplineSet
74 623 m 1
 74 623 219 749 219 749 c 1
 219 749 285 749 285 749 c 1
 285 749 428 623 428 623 c 1
 428 623 339 623 339 623 c 1
 339 623 253 697 253 697 c 1
 253 697 165 623 165 623 c 1
 165 623 74 623 74 623 c 1
EndSplineSet
Validated: 1
EndChar

StartChar: caron
Encoding: 375 711 209
GlifName: caron
Width: 502
Flags: MW
HStem: 729 20G<74 163 163 163 337 428 428 428>
LayerCount: 2
Fore
SplineSet
428 749 m 5
 428 749 283 623 283 623 c 5
 283 623 217 623 217 623 c 5
 217 623 74 749 74 749 c 5
 74 749 163 749 163 749 c 5
 163 749 249 675 249 675 c 5
 249 675 337 749 337 749 c 5
 337 749 428 749 428 749 c 5
EndSplineSet
Validated: 1
EndChar

StartChar: breve
Encoding: 376 728 210
GlifName: breve
Width: 453
Flags: MW
HStem: 623 58<215 237 215 246.5> 723 20G<74 138 138 138 314 378 378 378>
LayerCount: 2
Fore
SplineSet
74 743 m 1
 74 743 138 743 138 743 c 1
 142 718 149 707 164 697 c 0
 181 687 204 681 226 681 c 0
 248 681 271 687 288 697 c 0
 303 707 310 718 314 743 c 1
 314 743 378 743 378 743 c 1
 369 693 356 670 327 650 c 0
 301 632 267 623 226 623 c 0
 137 623 89 660 74 743 c 1
EndSplineSet
Validated: 1
Substitution2: "'locl' Cyrillic localized forms-1" breve.cyrlc
EndChar

StartChar: tilde
Encoding: 377 732 211
GlifName: tilde
Width: 439
Flags: W
HStem: 633 64<270.5 284.5 270.5 290.5> 665 63<158.5 173.5>
LayerCount: 2
Fore
SplineSet
332 728 m 5x80
 332 728 365 682 365 682 c 5
 349 656 307 633 274 633 c 4x80
 259 633 242 639 208 655 c 4
 193 661 179 665 168 665 c 4
 149 665 141 661 115 639 c 6
 115 639 108 633 108 633 c 5
 108 633 75 679 75 679 c 5
 98 710 132 728 168 728 c 4x40
 186 728 196 725 227 711 c 4
 244 704 266 697 275 697 c 4
 294 697 311 706 332 728 c 5x80
EndSplineSet
Validated: 1
EndChar

StartChar: hungarumlaut
Encoding: 378 733 212
GlifName: hungarumlaut
Width: 552
Flags: W
LayerCount: 2
Fore
SplineSet
74 657 m 1
 74 657 245 780 245 780 c 1
 245 780 283 731 283 731 c 1
 283 731 109 610 109 610 c 1
 109 610 74 657 74 657 c 1
270 657 m 1
 270 657 441 780 441 780 c 1
 441 780 479 731 479 731 c 1
 479 731 305 610 305 610 c 1
 305 610 270 657 270 657 c 1
EndSplineSet
Validated: 1
EndChar

StartChar: cedilla
Encoding: 379 184 213
GlifName: cedilla
Width: 324
Flags: MW
HStem: -213 43<151.5 176 151.5 188> -72 33<168.5 174.5>
VStem: 207 43<-137.5 -108.5>
LayerCount: 2
Fore
SplineSet
124 0 m 1
 124 0 160 0 160 0 c 1
 160 0 141 -47 141 -47 c 1
 156 -41 163 -39 174 -39 c 0
 219 -39 250 -72 250 -119 c 0
 250 -174 214 -213 162 -213 c 0
 116 -213 85 -187 74 -140 c 1
 74 -140 118 -135 118 -135 c 1
 124 -157 140 -170 163 -170 c 0
 189 -170 207 -151 207 -124 c 0
 207 -93 188 -72 161 -72 c 0
 143 -72 132 -79 118 -96 c 1
 118 -96 89 -79 89 -79 c 1
 89 -79 124 0 124 0 c 1
EndSplineSet
Validated: 1
EndChar

StartChar: ogonek
Encoding: 380 731 214
GlifName: ogonek
Width: 302
Flags: MW
HStem: -191 45<166 186>
VStem: 74 50<-112 -84 -112 -81>
LayerCount: 2
Fore
SplineSet
146 0 m 1
 146 0 197 0 197 0 c 1
 153 -31 124 -70 124 -98 c 0
 124 -126 149 -146 183 -146 c 0
 199 -146 213 -143 228 -136 c 1
 228 -136 228 -182 228 -182 c 1
 208 -188 194 -191 178 -191 c 0
 117 -191 74 -153 74 -101 c 0
 74 -61 96 -30 146 0 c 1
EndSplineSet
Validated: 1
EndChar

StartChar: macron
Encoding: 381 175 215
GlifName: macron
Width: 485
Flags: MW
HStem: 643 64<74 411 74 411>
LayerCount: 2
Fore
SplineSet
74 707 m 1
 74 707 411 707 411 707 c 1
 411 707 411 643 411 643 c 1
 411 643 74 643 74 643 c 1
 74 643 74 707 74 707 c 1
EndSplineSet
Validated: 1
EndChar

StartChar: copyright
Encoding: 382 169 216
GlifName: copyright
Width: 747
Flags: MW
HStem: -13 52<283 463 283 478.5> 148 56<340 406 340 423> 538 56<340 408> 700 52<281 461.5>
VStem: -9 56<278 459.5 278 476> 163 61<326.5 418 326.5 434> 699 56<278 461.5>
LayerCount: 2
Fore
SplineSet
501 261 m 1
 501 261 576 261 576 261 c 1
 536 190 464 148 382 148 c 0
 262 148 163 249 163 372 c 0
 163 496 261 594 383 594 c 0
 467 594 537 552 579 477 c 1
 579 477 505 477 505 477 c 1
 471 518 432 538 384 538 c 0
 296 538 224 464 224 372 c 0
 224 281 297 204 383 204 c 0
 429 204 469 223 501 261 c 1
378 752 m 0
 584 752 755 579 755 369 c 0
 755 158 584 -13 373 -13 c 0
 162 -13 -9 158 -9 369 c 0
 -9 583 161 752 378 752 c 0
369 700 m 0
 193 700 47 550 47 369 c 0
 47 187 193 39 373 39 c 0
 553 39 699 187 699 369 c 0
 699 554 554 700 369 700 c 0
EndSplineSet
Validated: 1
EndChar

StartChar: registered
Encoding: 383 174 217
GlifName: registered
Width: 747
Flags: MW
HStem: -13 52<283 463 283 478.5> 527 58<309 376 309 309> 700 52<281 461.5>
VStem: -9 56<278 459.5 278 476> 248 61<157 359 365 527> 471 63<421 468 410 472> 699 56<278 461.5>
LayerCount: 2
Fore
SplineSet
530 157 m 1
 530 157 454 157 454 157 c 1
 454 157 309 359 309 359 c 1
 309 359 309 157 309 157 c 1
 309 157 248 157 248 157 c 1
 248 157 248 585 248 585 c 1
 248 585 380 585 380 585 c 2
 433 585 469 574 495 549 c 0
 519 525 534 488 534 448 c 0
 534 372 492 328 409 317 c 1
 409 317 530 157 530 157 c 1
309 365 m 1
 309 365 353 365 353 365 c 2
 430 365 471 394 471 448 c 0
 471 496 434 527 376 527 c 2
 376 527 309 527 309 527 c 1
 309 527 309 365 309 365 c 1
378 752 m 0
 584 752 755 579 755 369 c 0
 755 158 584 -13 373 -13 c 0
 162 -13 -9 158 -9 369 c 0
 -9 583 161 752 378 752 c 0
369 700 m 0
 193 700 47 550 47 369 c 0
 47 187 193 39 373 39 c 0
 553 39 699 187 699 369 c 0
 699 554 554 700 369 700 c 0
EndSplineSet
Validated: 1
EndChar

StartChar: bullet
Encoding: 384 8226 220
GlifName: bullet
Width: 606
Flags: W
LayerCount: 2
Fore
SplineSet
306 488 m 0
 406 488 488 405 488 303 c 0
 488 201 406 118 303 118 c 0
 201 118 118 201 118 303 c 0
 118 407 200 488 306 488 c 0
EndSplineSet
Validated: 1
EndChar

StartChar: less
Encoding: 60 60 221
GlifName: less
Width: 606
Flags: MW
HStem: 545 20G<558 558>
LayerCount: 2
Fore
SplineSet
558 565 m 1
 558 565 558 487 558 487 c 1
 558 487 157 300 157 300 c 1
 157 300 558 115 558 115 c 1
 558 115 558 37 558 37 c 1
 558 37 49 268 49 268 c 1
 49 268 49 333 49 333 c 1
 49 333 558 565 558 565 c 1
EndSplineSet
Validated: 1
EndChar

StartChar: greater
Encoding: 62 62 222
GlifName: greater
Width: 606
Flags: MW
HStem: 545 20G<48 48>
LayerCount: 2
Fore
SplineSet
48 37 m 1
 48 37 48 115 48 115 c 1
 48 115 450 302 450 302 c 1
 450 302 48 487 48 487 c 1
 48 487 48 565 48 565 c 1
 48 565 557 334 557 334 c 1
 557 334 557 269 557 269 c 1
 557 269 48 37 48 37 c 1
EndSplineSet
Validated: 1
EndChar

StartChar: logicalnot
Encoding: 385 172 223
GlifName: logicalnot
Width: 606
Flags: MW
HStem: 363 73<51 483 51 555>
VStem: 483 72<148 363 363 363>
LayerCount: 2
Fore
SplineSet
51 436 m 5
 51 436 555 436 555 436 c 5
 555 436 555 148 555 148 c 5
 555 148 483 148 483 148 c 5
 483 148 483 363 483 363 c 5
 483 363 51 363 51 363 c 5
 51 363 51 436 51 436 c 5
EndSplineSet
Validated: 1
EndChar

StartChar: asciicircum
Encoding: 94 94 224
GlifName: asciicircum
Width: 606
Flags: MW
HStem: 719 20G<261 346 346 346>
LayerCount: 2
Fore
SplineSet
588 180 m 1
 588 180 507 180 507 180 c 1
 507 180 304 660 304 660 c 1
 304 660 99 180 99 180 c 1
 99 180 18 180 18 180 c 1
 18 180 261 739 261 739 c 1
 261 739 346 739 346 739 c 1
 346 739 588 180 588 180 c 1
EndSplineSet
Validated: 1
EndChar

StartChar: bar
Encoding: 124 124 225
GlifName: bar
Width: 672
Flags: MW
HStem: 0 21G 719 20G<304 368 368 368>
VStem: 304 64<0 739 0 739>
LayerCount: 2
Fore
SplineSet
368 739 m 1
 368 739 368 0 368 0 c 1
 368 0 304 0 304 0 c 1
 304 0 304 739 304 739 c 1
 304 739 368 739 368 739 c 1
EndSplineSet
Validated: 1
EndChar

StartChar: brokenbar
Encoding: 386 166 226
GlifName: brokenbar
Width: 672
Flags: MW
HStem: 0 21G 719 20G<304 368 368 368>
VStem: 304 64<0 295 0 295 444 739>
LayerCount: 2
Fore
SplineSet
368 739 m 1
 368 739 368 444 368 444 c 1
 368 444 304 444 304 444 c 1
 304 444 304 739 304 739 c 1
 304 739 368 739 368 739 c 1
368 295 m 1
 368 295 368 0 368 0 c 1
 368 0 304 0 304 0 c 1
 304 0 304 295 304 295 c 1
 304 295 368 295 368 295 c 1
EndSplineSet
Validated: 1
EndChar

StartChar: underscore
Encoding: 95 95 227
GlifName: underscore
Width: 500
Flags: MW
HStem: -125 58<0 500 0 500>
LayerCount: 2
Fore
SplineSet
0 -67 m 1
 0 -67 500 -67 500 -67 c 1
 500 -67 500 -125 500 -125 c 1
 500 -125 0 -125 0 -125 c 1
 0 -125 0 -67 0 -67 c 1
EndSplineSet
Validated: 1
EndChar

StartChar: asciitilde
Encoding: 126 126 228
GlifName: asciitilde
Width: 606
Flags: W
HStem: 231 77<406 432 406 440.5> 300 77<181 204>
LayerCount: 2
Fore
SplineSet
511 390 m 1x80
 511 390 555 343 555 343 c 1
 521 275 466 231 415 231 c 0x80
 392 231 366 238 322 257 c 2
 322 257 267 279 267 279 c 2
 224 297 214 300 194 300 c 0
 168 300 145 287 128 265 c 0
 117 250 112 242 93 210 c 1
 93 210 51 257 51 257 c 1
 99 343 138 377 194 377 c 0x40
 215 377 241 371 271 358 c 2
 271 358 336 331 336 331 c 2
 380 313 396 308 416 308 c 0
 448 308 477 332 511 390 c 1x80
EndSplineSet
Validated: 1
EndChar

StartChar: mu
Encoding: 387 181 229
GlifName: mu
Width: 608
Flags: MW
HStem: -192 21G -13 67<285.5 333.5 285.5 345.5> 527 20G<63 137 137 137 471 545 545 545>
VStem: 63 74<-192 85 219.5 266 266 547> 471 74<0 85 85 85 266 547 0 547>
LayerCount: 2
Fore
SplineSet
545 547 m 1
 545 547 545 0 545 0 c 1
 545 0 471 0 471 0 c 1
 471 0 471 85 471 85 c 1
 437 18 384 -13 307 -13 c 0
 235 -13 175 22 137 85 c 1
 137 85 137 -192 137 -192 c 1
 137 -192 63 -192 63 -192 c 1
 63 -192 63 547 63 547 c 1
 63 547 137 547 137 547 c 1
 137 547 137 266 137 266 c 2
 137 173 148 140 190 101 c 0
 222 71 265 54 306 54 c 0
 361 54 411 80 440 123 c 0
 462 157 471 199 471 266 c 2
 471 266 471 547 471 547 c 1
 471 547 545 547 545 547 c 1
EndSplineSet
Validated: 1
EndChar

StartChar: afii10018
Encoding: 177 1041 249
GlifName: afii10018
Width: 585
Flags: W
HStem: 0 67<150 412.783> 365 67<150 416.701> 672 67<150 509>
VStem: 76 74<67 365 432 672> 480 75<131.467 304.649>
AnchorPoint: "Top" 284 805 basechar 0
LayerCount: 2
Fore
SplineSet
150 365 m 1
 150 67 l 1
 252 67 l 2
 323 67 367 72 399 83 c 0
 450 100 480 149 480 219 c 0
 480 275 459 321 421 341 c 0
 391 359 349 365 283 365 c 2
 150 365 l 1
150 672 m 1
 150 672 150 432 150 432 c 1
 289 432 l 2
 387 432 439 419 483 387 c 0
 530 353 555 293 555 220 c 0
 555 137 524 72 469 39 c 0
 424 11 370 0 277 0 c 2
 76 0 l 1
 76 739 l 1
 76 739 509 739 509 739 c 1
 509 672 l 1
 150 672 l 1
EndSplineSet
Validated: 1
EndChar

StartChar: afii10020
Encoding: 179 1043 250
GlifName: afii10020
Width: 444
Flags: W
HStem: 0 21G<76 150> 672 67<150 437>
VStem: 76 74<0 672>
AnchorPoint: "Top" 258 805 basechar 0
LayerCount: 2
Fore
SplineSet
437 672 m 25
 437 672 150 672 150 672 c 25
 150 672 150 0 150 0 c 17
 150 0 76 0 76 0 c 1
 76 0 76 739 76 739 c 9
 76 739 437 739 437 739 c 1
 437 739 437 672 437 672 c 25
EndSplineSet
Validated: 1
EndChar

StartChar: afii10021
Encoding: 180 1044 251
GlifName: afii10021
Width: 848
Flags: W
HStem: 0 67<173 675> 719 20G<382 466>
VStem: 18 52<-136 -102> 778 52<-136 -102>
AnchorPoint: "Top" 424 805 basechar 0
LayerCount: 2
Fore
SplineSet
173 67 m 1
 173 67 675 67 675 67 c 1
 675 67 424 655 424 655 c 1
 424 655 173 67 173 67 c 1
830 67 m 1
 830 67 830 -136 830 -136 c 1
 830 -136 778 -136 778 -136 c 1
 778 -136 750 0 750 0 c 1
 750 0 98 0 98 0 c 1
 98 0 70 -136 70 -136 c 1
 70 -136 18 -136 18 -136 c 1
 18 -136 18 67 18 67 c 1
 18 67 94 67 94 67 c 1
 94 67 382 739 382 739 c 1
 382 739 466 739 466 739 c 1
 466 739 754 67 754 67 c 1
 754 67 830 67 830 67 c 1
EndSplineSet
Validated: 1
Substitution2: "'locl' Localized Forms in Cyrillic lookup 8-1" uni0414.loclBGR
Substitution2: "'locl' Localized Forms in Cyrillic lookup 7-1" uni0414.loclBGR
EndChar

StartChar: afii10024
Encoding: 182 1046 252
GlifName: afii10024
Width: 830
VWidth: 0
Flags: W
HStem: 0 21G<6 114.943 378 452 731 824> 719 20G<6 98 378 452 732 824>
VStem: 378 74<0 350 394 739>
AnchorPoint: "Top" 415 805 basechar 0
LayerCount: 2
Fore
SplineSet
452 0 m 1
 452 0 378 0 378 0 c 1
 378 0 378 350 378 350 c 1
 378 350 99 0 99 0 c 1
 99 0 6 0 6 0 c 1
 6 0 305 373 305 373 c 1
 305 373 6 739 6 739 c 1
 6 739 98 739 98 739 c 1
 98 739 378 394 378 394 c 1
 378 394 378 739 378 739 c 1
 378 739 452 739 452 739 c 1
 452 739 452 394 452 394 c 1
 452 394 732 739 732 739 c 1
 732 739 824 739 824 739 c 1
 824 739 525 373 525 373 c 1
 525 373 824 0 824 0 c 1
 824 0 731 0 731 0 c 1
 731 0 452 350 452 350 c 1
 452 350 452 0 452 0 c 1
EndSplineSet
Validated: 1
Substitution2: "'locl' Localized Forms in Cyrillic lookup 8-1" uni0416.loclBGR
EndChar

StartChar: afii10025
Encoding: 183 1047 253
GlifName: afii10025
Width: 518
Flags: MW
HStem: -13 70<175.229 326.771> 683 69<179.668 318.332>
AnchorPoint: "Top" 248 805 basechar 0
LayerCount: 2
Fore
SplineSet
208 434 m 5
 312 434 373 477 373 556 c 7
 373 625 318 683 249 683 c 7
 180 683 125 625 125 556 c 5
 125 556 48 556 48 556 c 5
 48 662 138 752 249 752 c 7
 360 752 450 664 450 558 c 7
 450 466 380 418 328 406 c 5
 394 393 484 321 484 211 c 7
 484 88 379 -13 251 -13 c 7
 123 -13 18 90 18 213 c 5
 18 213 97 213 97 213 c 5
 97 127 165 57 251 57 c 7
 337 57 405 127 405 213 c 7
 405 326 312 367 208 367 c 5
 208 367 208 434 208 434 c 5
EndSplineSet
Validated: 1
EndChar

StartChar: afii10026
Encoding: 184 1048 254
GlifName: afii10026
Width: 740
Flags: W
HStem: 0 21G<76 150 590 664> 719 20G<76 150 590 664>
VStem: 76 74<110 739> 590 74<0 629>
AnchorPoint: "Top" 370 805 basechar 0
LayerCount: 2
Fore
SplineSet
590 739 m 1
 590 739 664 739 664 739 c 1
 664 739 664 0 664 0 c 1
 664 0 590 0 590 0 c 1
 590 0 590 629 590 629 c 1
 590 629 150 0 150 0 c 1
 150 0 76 0 76 0 c 1
 76 0 76 739 76 739 c 1
 76 739 150 739 150 739 c 9
 150 739 150 110 150 110 c 25
 150 110 590 739 590 739 c 1
EndSplineSet
Validated: 1
EndChar

StartChar: afii10028
Encoding: 186 1050 256
GlifName: afii10028
Width: 591
VWidth: 0
Flags: W
HStem: 0 21G<76 150 485 585> 719 20G<76 150 487 585>
VStem: 76 74<0 344 400 739>
AnchorPoint: "Top" 312 805 basechar 0
LayerCount: 2
Fore
SplineSet
485 0 m 5
 485 0 150 344 150 344 c 13
 150 344 150 0 150 0 c 29
 150 0 76 0 76 0 c 29
 76 0 76 739 76 739 c 29
 76 739 150 739 150 739 c 29
 150 739 150 400 150 400 c 21
 150 400 487 739 487 739 c 5
 487 739 585 739 585 739 c 5
 585 739 220 373 220 373 c 5
 220 373 585 0 585 0 c 5
 585 0 485 0 485 0 c 5
EndSplineSet
Validated: 1
Substitution2: "'locl' Localized Forms in Cyrillic lookup 8-1" uni041A.loclBGR
EndChar

StartChar: afii10029
Encoding: 187 1051 257
GlifName: afii10029
Width: 740
Flags: W
HStem: 0 21G<11 91 649 729> 719 20G<329 411>
AnchorPoint: "Top" 370 805 basechar 0
LayerCount: 2
Fore
SplineSet
649 0 m 1
 649 0 370 655 370 655 c 1
 370 655 91 0 91 0 c 1
 91 0 11 0 11 0 c 1
 11 0 329 739 329 739 c 1
 329 739 411 739 411 739 c 1
 411 739 729 0 729 0 c 1
 729 0 649 0 649 0 c 1
EndSplineSet
Validated: 1
Substitution2: "'locl' Localized Forms in Cyrillic lookup 8-1" uni041B.loclBGR
Substitution2: "'locl' Localized Forms in Cyrillic lookup 7-1" uni041B.loclBGR
EndChar

StartChar: afii10033
Encoding: 191 1055 258
GlifName: afii10033
Width: 669
Flags: W
HStem: 0 21G<76 150 519 593> 672 67<150 519>
VStem: 76 74<0 672> 519 74<0 672>
AnchorPoint: "Top" 335 805 basechar 0
LayerCount: 2
Fore
SplineSet
150 0 m 21
 150 0 76 0 76 0 c 5
 76 0 76 739 76 739 c 13
 76 739 593 739 593 739 c 5
 593 739 593 0 593 0 c 5
 593 0 519 0 519 0 c 5
 519 0 519 672 519 672 c 29
 519 672 150 672 150 672 c 29
 150 672 150 0 150 0 c 21
EndSplineSet
Validated: 1
EndChar

StartChar: afii10037
Encoding: 195 1059 259
GlifName: afii10037
Width: 564
Flags: W
HStem: 0 21G<159 237> 719 20G<10 88 476 554>
AnchorPoint: "Top" 282 805 basechar 0
LayerCount: 2
Fore
SplineSet
554 739 m 1
 554 739 237 0 237 0 c 1
 237 0 159 0 159 0 c 1
 159 0 243 196 243 196 c 1
 243 196 10 739 10 739 c 1
 10 739 88 739 88 739 c 1
 88 739 282 287 282 287 c 1
 282 287 476 739 476 739 c 1
 476 739 554 739 554 739 c 1
EndSplineSet
Validated: 1
EndChar

StartChar: afii10038
Encoding: 196 1060 260
GlifName: afii10038
Width: 812
Flags: W
HStem: 0 21G<369 443> 54 68<279.089 369 443 532.911> 631 68<280.075 369 443 531.925> 719 20G<369 443>
VStem: 36 75<276.697 472.364> 369 74<0 55.7553 122 631 697.128 739> 701 75<276.697 472.364>
CounterMasks: 1 0e
AnchorPoint: "Top" 406 805 basechar 0
LayerCount: 2
Fore
SplineSet
443 699 m 1
 644 683 776 539 776 376 c 0
 776 204 647 69 443 54 c 1
 443 54 443 0 443 0 c 1
 443 0 369 0 369 0 c 1
 369 0 369 54 369 54 c 1
 165 69 36 204 36 376 c 0
 36 539 168 683 369 699 c 1
 369 699 369 739 369 739 c 1
 369 739 443 739 443 739 c 1
 443 739 443 699 443 699 c 1
443 122 m 1
 604 137 701 243 701 376 c 0
 701 503 602 616 443 631 c 1
 443 631 443 122 443 122 c 1
369 631 m 1
 210 616 111 503 111 376 c 0
 111 243 208 137 369 122 c 1
 369 122 369 631 369 631 c 1
EndSplineSet
Validated: 1
EndChar

StartChar: afii10040
Encoding: 198 1062 261
GlifName: afii10040
Width: 706
Flags: W
HStem: 0 67<150 509 583 600> 719 20G<76 150 509 583>
VStem: 76 74<67 739> 509 74<67 739> 628 52<-136 -102>
AnchorPoint: "Top" 330 805 basechar 0
LayerCount: 2
Fore
SplineSet
509 739 m 17
 509 739 583 739 583 739 c 1
 583 739 583 67 583 67 c 1
 583 67 680 67 680 67 c 1
 680 67 680 -136 680 -136 c 1
 680 -136 628 -136 628 -136 c 1
 628 -136 600 0 600 0 c 9
 600 0 76 0 76 0 c 1
 76 0 76 739 76 739 c 1
 76 739 150 739 150 739 c 1
 150 739 150 67 150 67 c 25
 150 67 509 67 509 67 c 25
 509 67 509 739 509 739 c 17
EndSplineSet
Validated: 1
EndChar

StartChar: afii10041
Encoding: 199 1063 262
GlifName: afii10041
Width: 595
Flags: W
HStem: 0 21G<445 519> 290 67<183.293 442.847> 719 20G<43 118 445 519>
VStem: 43 75<416.266 739> 445 74<0 301 365.276 739>
AnchorPoint: "Top" 290 805 basechar 0
LayerCount: 2
Fore
SplineSet
43 739 m 25
 43 739 118 739 118 739 c 25
 118 739 118 510 118 510 c 2
 118 453 134 405 172 384 c 0
 203 366 242 357 310 357 c 3
 357 357 399 362 445 368 c 1
 445 368 445 739 445 739 c 1
 445 739 519 739 519 739 c 1
 519 739 519 0 519 0 c 1
 519 0 445 0 445 0 c 1
 445 0 445 301 445 301 c 1
 399 295 358 290 305 290 c 3
 231 290 155 305 110 338 c 0
 62 373 43 437 43 510 c 2
 43 510 43 739 43 739 c 25
EndSplineSet
Validated: 1
EndChar

StartChar: afii10042
Encoding: 200 1064 263
GlifName: afii10042
Width: 896
Flags: W
HStem: 0 67<150 411 485 746> 719 20G<76 150 411 485 746 820>
VStem: 76 74<67 739> 411 74<67 739> 746 74<67 739>
CounterMasks: 1 38
AnchorPoint: "Top" 448 805 basechar 0
LayerCount: 2
Fore
SplineSet
820 0 m 9
 820 0 76 0 76 0 c 1
 76 0 76 739 76 739 c 1
 76 739 150 739 150 739 c 1
 150 739 150 67 150 67 c 17
 150 67 411 67 411 67 c 1
 411 67 411 739 411 739 c 1
 411 739 485 739 485 739 c 1
 485 739 485 67 485 67 c 1
 485 67 746 67 746 67 c 9
 746 67 746 739 746 739 c 17
 746 739 820 739 820 739 c 1
 820 739 820 0 820 0 c 9
EndSplineSet
Validated: 1
EndChar

StartChar: afii10043
Encoding: 201 1065 264
GlifName: afii10043
Width: 943
Flags: MW
HStem: 0 67<150 411 485 746 820 837> 719 20G<76 150 411 485 746 820>
VStem: 76 74<67 739> 411 74<67 739> 746 74<67 739>
CounterMasks: 1 38
AnchorPoint: "Top" 448 805 basechar 0
LayerCount: 2
Fore
SplineSet
746 739 m 17
 746 739 820 739 820 739 c 1
 820 739 820 67 820 67 c 1
 820 67 917 67 917 67 c 1
 917 67 917 -136 917 -136 c 1
 917 -136 865 -136 865 -136 c 1
 865 -136 837 0 837 0 c 9
 837 0 76 0 76 0 c 1
 76 0 76 739 76 739 c 1
 76 739 150 739 150 739 c 1
 150 739 150 67 150 67 c 17
 150 67 411 67 411 67 c 1
 411 67 411 739 411 739 c 1
 411 739 485 739 485 739 c 1
 485 739 485 67 485 67 c 1
 485 67 746 67 746 67 c 9
 746 67 746 739 746 739 c 17
EndSplineSet
Validated: 1
EndChar

StartChar: afii10044
Encoding: 202 1066 265
GlifName: afii10044
Width: 757
Flags: W
HStem: 0 67<317 589.186> 358 67<317 590.671> 672 67<7 243>
VStem: 243 74<67 358 425 672> 657 75<128.99 296.464>
AnchorPoint: "Top" 280 805 basechar 0
LayerCount: 2
Fore
SplineSet
317 358 m 1
 317 358 317 67 317 67 c 1
 317 67 422 67 422 67 c 2
 495 67 541 72 574 82 c 0
 627 98 657 147 657 215 c 0
 657 270 635 314 596 334 c 0
 565 351 522 358 454 358 c 2
 454 358 317 358 317 358 c 1
317 739 m 1
 317 739 317 425 317 425 c 1
 317 425 459 425 459 425 c 2
 559 425 613 413 658 381 c 0
 706 347 732 287 732 216 c 0
 732 134 700 70 644 38 c 0
 598 11 542 0 447 0 c 2
 447 0 243 0 243 0 c 1
 243 0 243 672 243 672 c 1
 243 672 7 672 7 672 c 1
 7 672 7 739 7 739 c 1
 7 739 317 739 317 739 c 1
EndSplineSet
Validated: 1
EndChar

StartChar: afii10045
Encoding: 203 1067 266
GlifName: afii10045
Width: 811
Flags: W
HStem: 0 67<150 422.186> 358 67<150 423.671> 719 20G<76 150 661 735>
VStem: 76 74<67 358 425 739> 490 75<128.99 296.464> 661 74<0 739>
AnchorPoint: "Top" 405 805 basechar 0
LayerCount: 2
Fore
SplineSet
661 0 m 1
 661 0 661 739 661 739 c 1
 661 739 735 739 735 739 c 1
 735 739 735 0 735 0 c 1
 735 0 661 0 661 0 c 1
76 739 m 1
 76 739 150 739 150 739 c 1
 150 739 150 425 150 425 c 1
 150 425 292 425 292 425 c 2
 392 425 446 413 491 381 c 0
 539 347 565 287 565 216 c 0
 565 134 533 70 477 38 c 0
 431 11 375 0 280 0 c 2
 280 0 76 0 76 0 c 1
 76 0 76 739 76 739 c 1
150 358 m 1
 150 358 150 67 150 67 c 1
 150 67 255 67 255 67 c 2
 328 67 374 72 407 82 c 0
 460 98 490 147 490 215 c 0
 490 270 468 314 429 334 c 0
 398 351 355 358 287 358 c 2
 287 358 150 358 150 358 c 1
EndSplineSet
Validated: 1
EndChar

StartChar: afii10046
Encoding: 204 1068 267
GlifName: afii10046
Width: 590
Flags: W
HStem: 0 67<150 422.186> 358 67<150 423.671> 719 20G<76 150>
VStem: 76 74<67 358 425 739> 490 75<128.99 296.464>
AnchorPoint: "Top" 113 805 basechar 0
LayerCount: 2
Fore
SplineSet
76 739 m 5
 76 739 150 739 150 739 c 5
 150 739 150 425 150 425 c 5
 150 425 292 425 292 425 c 6
 392 425 446 413 491 381 c 4
 539 347 565 287 565 216 c 4
 565 134 533 70 477 38 c 4
 431 11 375 0 280 0 c 6
 280 0 76 0 76 0 c 5
 76 0 76 739 76 739 c 5
150 358 m 5
 150 358 150 67 150 67 c 5
 150 67 255 67 255 67 c 6
 328 67 374 72 407 82 c 4
 460 98 490 147 490 215 c 4
 490 270 468 314 429 334 c 4
 398 351 355 358 287 358 c 6
 287 358 150 358 150 358 c 5
EndSplineSet
Validated: 1
EndChar

StartChar: afii10047
Encoding: 205 1069 268
GlifName: afii10047
Width: 813
Flags: MW
HStem: -13 68<268.842 490.126> 343 67<224 692> 684 68<263.235 495.611>
VStem: 693 76<256.636 343 410 484.595>
AnchorPoint: "Top" 386 805 basechar 0
LayerCount: 2
Fore
SplineSet
125 194 m 1
 185 115 263 55 382 55 c 0
 545 55 679 182 693 343 c 1
 693 343 224 343 224 343 c 1
 224 343 224 410 224 410 c 1
 224 410 692 410 692 410 c 1
 673 568 546 684 383 684 c 0
 261 684 182 631 129 547 c 1
 129 547 46 547 46 547 c 1
 103 674 233 752 386 752 c 0
 606 752 769 588 769 367 c 0
 769 151 602 -13 381 -13 c 0
 231 -13 117 57 43 194 c 1
 43 194 125 194 125 194 c 1
EndSplineSet
Validated: 1
EndChar

StartChar: afii10048
Encoding: 206 1070 269
GlifName: afii10048
Width: 1093
Flags: W
HStem: -19 67<536.817 761.718> 0 21G<76 150> 347 67<150 254> 691 67<539.62 761.718> 719 20G<76 150>
VStem: 76 74<0 347 414 739> 253 74<262.205 347 414 480.009> 974 75<256.33 476.211>
AnchorPoint: "Top" 590 809 basechar 0
LayerCount: 2
Fore
SplineSet
651 691 m 0xb7
 472 691 327 544 327 372 c 0
 327 194 469 48 651 48 c 0
 831 48 974 193 974 367 c 0
 974 543 831 691 651 691 c 0xb7
651 758 m 0
 873 758 1049 583 1049 369 c 0
 1049 157 873 -19 651 -19 c 0xb7
 435 -19 267 138 253 347 c 1
 253 347 150 347 150 347 c 1
 150 347 150 0 150 0 c 1
 150 0 76 0 76 0 c 1
 76 0 76 739 76 739 c 1
 76 739 150 739 150 739 c 1x6f
 150 739 150 414 150 414 c 1
 150 414 254 414 254 414 c 1
 275 607 445 758 651 758 c 0
EndSplineSet
Validated: 1
EndChar

StartChar: afii10049
Encoding: 207 1071 270
GlifName: afii10049
Width: 607
Flags: W
HStem: 0 21G<25 112 457 531> 309 67<317 457> 672 67<192.031 457>
VStem: 52 75<436.074 608.86> 457 74<0 309 376 672>
AnchorPoint: "Top" 326 805 basechar 0
LayerCount: 2
Back
SplineSet
530 740 m 5
 530 0 l 5
 456 0 l 5
 456 673 l 5
 323 673 l 6
 148 673 103 584 103 505 c 4
 103 337 281 335 323 335 c 6
 382 335 l 5
 141 0 l 5
 49 0 l 5
 251 276 l 5
 115 283 29 381 29 498 c 4
 29 738 275 740 323 740 c 6
 530 740 l 5
EndSplineSet
Fore
SplineSet
457 376 m 1
 457 376 457 672 457 672 c 1
 457 672 355 672 355 672 c 2
 284 672 240 668 208 657 c 0
 157 641 127 591 127 521 c 0
 127 465 148 420 186 400 c 0
 216 383 258 376 324 376 c 2
 324 376 457 376 457 376 c 1
531 0 m 1
 531 0 457 0 457 0 c 1
 457 0 457 309 457 309 c 1
 457 309 317 309 317 309 c 1
 317 309 112 0 112 0 c 1
 112 0 25 0 25 0 c 1
 25 0 234 314 234 314 c 1
 186 320 153 333 124 354 c 0
 77 388 52 448 52 520 c 0
 52 603 83 669 138 701 c 0
 183 728 237 739 330 739 c 2
 330 739 531 739 531 739 c 1
 531 739 531 0 531 0 c 1
EndSplineSet
Validated: 1
Substitution2: "'locl' Localized Forms in Cyrillic lookup 8-1" uni042F.loclBGR
EndChar

StartChar: afii10066
Encoding: 209 1073 271
GlifName: afii10066
Width: 668
Flags: W
HStem: -13 68<239.934 431.018> 492 68<241.615 431.288>
VStem: 49 55<418 535.37> 551 75<179.146 372.409>
AnchorPoint: "Top" 342 819 basechar 0
LayerCount: 2
Back
SplineSet
595 740 m 5xf4
 595 673 l 5
 360 657 l 6
 289 652 122 636 109 400 c 5
 111 400 l 5
 170 532 304 541 338 541 c 4
 503 541 618 433 618 264 c 4
 618 103 504 -13 336 -13 c 4
 174 -13 42 87 42 343 c 4
 42 673 228 715 360 724 c 6
 595 740 l 5xf4
336 474 m 4xcc
 215 474 128 383 128 264 c 4
 128 145 216 54 336 54 c 4
 461 54 544 147 544 264 c 4
 544 391 456 474 336 474 c 4xcc
EndSplineSet
Fore
SplineSet
588 720 m 1
 588 720 361 699 361 699 c 2
 193 683 107 583 104 418 c 1
 104 418 107 417 107 417 c 1
 137 491 207 560 338 560 c 3
 500 560 626 435 626 274 c 0
 626 110 502 -13 337 -13 c 3
 272 -13 218 5 175 35 c 0
 64 112 49 211 49 415 c 3
 49 638 147 749 355 768 c 2
 355 768 588 788 588 788 c 5
 588 788 588 720 588 720 c 1
335 55 m 3
 458 55 551 150 551 276 c 0
 551 399 459 492 336 492 c 0
 214 492 123 397 123 276 c 3
 123 151 210 55 335 55 c 3
EndSplineSet
Validated: 1
Substitution2: "'locl' Localized Forms in Cyrillic lookup 8-1" uni0431.loclBGR
Substitution2: "'locl' Serbian localized forms-1" uni0431.serbian
EndChar

StartChar: afii10067
Encoding: 210 1074 272
GlifName: afii10067
Width: 535
VWidth: 0
Flags: W
HStem: 0 67<137 379.188> 254 67<137 365.628> 480 67<137 369.003>
VStem: 63 74<67 254 321 480> 400 71<351.944 451.432> 424 75<105.721 218.731>
AnchorPoint: "Top" 250 623 basechar 0
LayerCount: 2
Fore
SplineSet
137 254 m 25xf4
 137 254 137 67 137 67 c 25
 137 67 278 67 278 67 c 18
 360 67 424 93 424 163 c 3
 424 233 360 254 278 254 c 10
 278 254 137 254 137 254 c 25xf4
471 403 m 3xf8
 471 344 425 306 397 294 c 1
 468 268 499 221 499 163 c 3xf4
 499 70 417 0 297 0 c 10
 297 0 63 0 63 0 c 25
 63 0 63 547 63 547 c 25
 63 547 282 547 282 547 c 18
 398 547 471 495 471 403 c 3xf8
400 403 m 3xf8
 400 460 346 480 270 480 c 10
 270 480 137 480 137 480 c 17
 137 480 137 321 137 321 c 9
 137 321 270 321 270 321 c 18
 346 321 400 346 400 403 c 3xf8
EndSplineSet
Validated: 1
Substitution2: "'locl' Localized Forms in Cyrillic lookup 8-1" uni0432.loclBGR
Substitution2: "'locl' Localized Forms in Cyrillic lookup 7-1" uni0432.loclBGR
EndChar

StartChar: afii10068
Encoding: 211 1075 273
GlifName: afii10068
Width: 355
Flags: W
HStem: 0 21G<63 137> 480 67<137 343>
VStem: 63 74<0 480>
AnchorPoint: "Top" 205 623 basechar 0
LayerCount: 2
Fore
SplineSet
343 547 m 1
 343 547 343 480 343 480 c 25
 343 480 137 480 137 480 c 25
 137 480 137 0 137 0 c 25
 137 0 63 0 63 0 c 17
 63 0 63 547 63 547 c 1
 63 547 343 547 343 547 c 1
EndSplineSet
Validated: 1
Substitution2: "'locl' Localized Forms in Cyrillic lookup 8-1" uni0433.loclBGR
Substitution2: "'locl' Localized Forms in Cyrillic lookup 7-1" uni0433.loclBGR
EndChar

StartChar: afii10069
Encoding: 212 1076 274
GlifName: afii10069
Width: 670
Flags: W
HStem: 0 67<166 504> 527 20G<293 377>
VStem: 17 51<-126 -93.3333> 602 51<-126 -93.3333>
AnchorPoint: "Top" 335 623 basechar 0
LayerCount: 2
Fore
SplineSet
575 0 m 1
 575 0 95 0 95 0 c 1
 95 0 68 -126 68 -126 c 1
 68 -126 17 -126 17 -126 c 1
 17 -126 17 67 17 67 c 1
 17 67 88 67 88 67 c 1
 88 67 293 547 293 547 c 1
 293 547 377 547 377 547 c 1
 377 547 582 67 582 67 c 1
 582 67 653 67 653 67 c 1
 653 67 653 -126 653 -126 c 1
 653 -126 602 -126 602 -126 c 1
 602 -126 575 0 575 0 c 1
504 67 m 1
 504 67 335 463 335 463 c 1
 335 463 166 67 166 67 c 1
 166 67 504 67 504 67 c 1
EndSplineSet
Validated: 1
Substitution2: "'locl' Localized Forms in Cyrillic lookup 8-1" uni0434.loclBGR
Substitution2: "'locl' Localized Forms in Cyrillic lookup 7-1" uni0434.loclBGR
EndChar

StartChar: afii10072
Encoding: 214 1078 275
GlifName: afii10072
Width: 702
VWidth: 0
Flags: W
HStem: 0 21G<5 98 314 388 604 697> 527 20G<5 98 314 388 604 697>
VStem: 314 74<0 262 299 547>
AnchorPoint: "Top" 351 623 basechar 0
LayerCount: 2
Fore
SplineSet
314 547 m 1
 314 547 388 547 388 547 c 1
 388 547 388 299 388 299 c 1
 388 299 604 547 604 547 c 1
 604 547 697 547 697 547 c 1
 697 547 463 281 463 281 c 1
 463 281 697 0 697 0 c 1
 697 0 604 0 604 0 c 1
 604 0 388 262 388 262 c 1
 388 262 388 0 388 0 c 1
 388 0 314 0 314 0 c 1
 314 0 314 262 314 262 c 1
 314 262 98 0 98 0 c 1
 98 0 5 0 5 0 c 1
 5 0 239 281 239 281 c 1
 239 281 5 547 5 547 c 1
 5 547 98 547 98 547 c 1
 98 547 314 299 314 299 c 1
 314 299 314 547 314 547 c 1
EndSplineSet
Validated: 1
Substitution2: "'locl' Localized Forms in Cyrillic lookup 8-1" uni0436.loclBGR
Substitution2: "'locl' Localized Forms in Cyrillic lookup 7-1" uni0436.loclBGR
EndChar

StartChar: afii10073
Encoding: 215 1079 276
GlifName: afii10073
Width: 480
VWidth: 0
Flags: W
HStem: -13 68<160.413 317.56> 258 61<196 297.9> 491 69<171.089 305.355>
VStem: 36 75<102.939 158> 63 75<409 457.938> 340 75<355.262 458.778> 369 75<101.65 210.928>
AnchorPoint: "Top" 240 623 basechar 0
LayerCount: 2
Fore
SplineSet
196 258 m 5xf2
 196 319 l 5
 295 319 340 355 340 409 c 7
 340 454 295 491 238 491 c 7
 181 491 142 454 138 409 c 5
 63 409 l 5
 67 494 141 560 239 560 c 7
 337 560 415 494 415 409 c 7xec
 415 357 380 308 327 292 c 5
 389 275 444 232 444 158 c 7
 444 63 354 -13 240 -13 c 7
 126 -13 40 63 36 158 c 5
 111 158 l 5
 115 101 166 55 239 55 c 7
 312 55 369 101 369 158 c 7
 369 212 319 258 196 258 c 5xf2
EndSplineSet
Validated: 1
Substitution2: "'locl' Localized Forms in Cyrillic lookup 8-1" uni0437.loclBGR
Substitution2: "'locl' Localized Forms in Cyrillic lookup 7-1" uni0437.loclBGR
EndChar

StartChar: afii10074
Encoding: 216 1080 277
GlifName: afii10074
Width: 607
Flags: W
HStem: 0 21G<63 137 470 544> 527 20G<63 137 470 544>
VStem: 63 74<105 547> 470 74<0 442>
AnchorPoint: "Top" 304 623 basechar 0
LayerCount: 2
Fore
SplineSet
470 547 m 1
 470 547 544 547 544 547 c 1
 544 547 544 0 544 0 c 1
 544 0 470 0 470 0 c 25
 470 0 470 442 470 442 c 25
 470 442 137 0 137 0 c 25
 137 0 63 0 63 0 c 17
 63 0 63 547 63 547 c 1
 63 547 137 547 137 547 c 1
 137 547 137 105 137 105 c 1
 137 105 470 547 470 547 c 1
EndSplineSet
Validated: 1
Substitution2: "'locl' Localized Forms in Cyrillic lookup 8-1" uni0438.loclBGR
Substitution2: "'locl' Localized Forms in Cyrillic lookup 7-1" uni0438.loclBGR
EndChar

StartChar: afii10076
Encoding: 218 1082 279
GlifName: afii10076
Width: 488
VWidth: 0
Flags: W
HStem: 0 21G<63 137 386 483> 527 20G<63 137 387 483>
VStem: 63 74<0 258 303 547>
AnchorPoint: "Top" 262 623 basechar 0
LayerCount: 2
Fore
SplineSet
63 547 m 5
 63 547 137 547 137 547 c 5
 137 547 137 303 137 303 c 5
 137 303 387 547 387 547 c 5
 387 547 483 547 483 547 c 5
 483 547 210 282 210 282 c 5
 210 282 483 0 483 0 c 5
 483 0 386 0 386 0 c 5
 386 0 137 258 137 258 c 5
 137 258 137 0 137 0 c 5
 137 0 63 0 63 0 c 5
 63 0 63 547 63 547 c 5
EndSplineSet
Validated: 1
Substitution2: "'locl' Localized Forms in Cyrillic lookup 8-1" uni043A.loclBGR
Substitution2: "'locl' Localized Forms in Cyrillic lookup 7-1" uni043A.loclBGR
EndChar

StartChar: afii10077
Encoding: 219 1083 280
GlifName: afii10077
Width: 563
Flags: W
HStem: 0 21G<5 83 480 558> 527 20G<240 323>
AnchorPoint: "Top" 282 623 basechar 0
LayerCount: 2
Fore
SplineSet
558 0 m 1
 558 0 480 0 480 0 c 1
 480 0 282 463 282 463 c 1
 282 463 83 0 83 0 c 1
 83 0 5 0 5 0 c 1
 5 0 240 547 240 547 c 1
 240 547 323 547 323 547 c 1
 323 547 558 0 558 0 c 1
EndSplineSet
Validated: 1
Substitution2: "'locl' Localized Forms in Cyrillic lookup 8-1" uni043B.loclBGR
Substitution2: "'locl' Localized Forms in Cyrillic lookup 7-1" uni043B.loclBGR
EndChar

StartChar: afii10078
Encoding: 220 1084 281
GlifName: afii10078
Width: 738
Flags: W
HStem: 0 21G<63 137 337 401 601 675> 527 20G<63 178 560 675>
VStem: 63 74<0 466> 601 74<0 466>
AnchorPoint: "Top" 369 623 basechar 0
LayerCount: 2
Fore
SplineSet
63 0 m 1
 63 0 63 547 63 547 c 1
 63 547 178 547 178 547 c 1
 178 547 369 103 369 103 c 1
 369 103 560 547 560 547 c 1
 560 547 675 547 675 547 c 1
 675 547 675 0 675 0 c 1
 675 0 601 0 601 0 c 1
 601 0 601 466 601 466 c 1
 601 466 401 0 401 0 c 1
 401 0 337 0 337 0 c 1
 337 0 137 466 137 466 c 1
 137 466 137 0 137 0 c 1
 137 0 63 0 63 0 c 1
EndSplineSet
Validated: 1
EndChar

StartChar: afii10079
Encoding: 221 1085 282
GlifName: afii10079
Width: 602
Flags: W
HStem: 0 21G<63 137 465 539> 245 67<137 465> 527 20G<63 137 465 539>
VStem: 63 74<0 245 312 547> 465 74<0 245 312 547>
AnchorPoint: "Top" 301 623 basechar 0
LayerCount: 2
Fore
SplineSet
539 0 m 1
 539 0 465 0 465 0 c 25
 465 0 465 245 465 245 c 25
 465 245 137 245 137 245 c 25
 137 245 137 0 137 0 c 25
 137 0 63 0 63 0 c 17
 63 0 63 547 63 547 c 1
 63 547 137 547 137 547 c 1
 137 547 137 312 137 312 c 1
 137 312 465 312 465 312 c 1
 465 312 465 547 465 547 c 1
 465 547 539 547 539 547 c 1
 539 547 539 0 539 0 c 1
EndSplineSet
Validated: 1
EndChar

StartChar: afii10081
Encoding: 223 1087 283
GlifName: afii10081
Width: 597
Flags: W
HStem: 0 21G<63 137 460 534> 480 67<137 460>
VStem: 63 74<0 480> 460 74<0 480>
AnchorPoint: "Top" 299 623 basechar 0
LayerCount: 2
Fore
SplineSet
534 0 m 5
 534 0 460 0 460 0 c 29
 460 0 460 480 460 480 c 29
 460 480 137 480 137 480 c 29
 137 480 137 0 137 0 c 29
 137 0 63 0 63 0 c 21
 63 0 63 547 63 547 c 5
 63 547 534 547 534 547 c 5
 534 547 534 0 534 0 c 5
EndSplineSet
Validated: 1
Substitution2: "'locl' Localized Forms in Cyrillic lookup 8-1" uni043F.loclBGR
Substitution2: "'locl' Localized Forms in Cyrillic lookup 7-1" uni043F.loclBGR
EndChar

StartChar: afii10084
Encoding: 226 1090 284
GlifName: afii10084
Width: 384
Flags: W
HStem: 0 21G<156 230> 480 67<12 156 230 372>
VStem: 156 74<0 480>
AnchorPoint: "Top" 192 623 basechar 0
LayerCount: 2
Fore
SplineSet
372 480 m 25
 372 480 230 480 230 480 c 25
 230 480 230 0 230 0 c 25
 230 0 156 0 156 0 c 17
 156 0 156 480 156 480 c 1
 156 480 12 480 12 480 c 1
 12 480 12 547 12 547 c 1
 12 547 372 547 372 547 c 1
 372 547 372 480 372 480 c 25
EndSplineSet
Validated: 1
Substitution2: "'locl' Localized Forms in Cyrillic lookup 8-1" uni0442.loclBGR
Substitution2: "'locl' Localized Forms in Cyrillic lookup 7-1" uni0442.loclBGR
EndChar

StartChar: afii10086
Encoding: 228 1092 285
GlifName: afii10086
Width: 784
Flags: W
HStem: -192 21G<355 429> -12 68<243.122 355 429 540.878> 491 68<243.122 355 429 540.878> 719 20G<355 429>
VStem: 40 75<163.79 382.395> 355 74<-192 -12 56 491 559 739> 669 75<163.79 382.395>
CounterMasks: 1 0e
AnchorPoint: "Top" 392 805 basechar 0
LayerCount: 2
Fore
SplineSet
355 739 m 1
 355 739 429 739 429 739 c 1
 429 739 429 559 429 559 c 1
 652 549 744 447 744 273 c 0
 744 99 652 -2 429 -12 c 1
 429 -12 429 -192 429 -192 c 1
 429 -192 355 -192 355 -192 c 1
 355 -192 355 -12 355 -12 c 1
 132 -2 40 99 40 273 c 0
 40 447 132 549 355 559 c 1
 355 559 355 739 355 739 c 1
355 491 m 1
 182 482 115 408 115 273 c 0
 115 138 182 65 355 56 c 1
 355 56 355 491 355 491 c 1
429 56 m 1
 602 65 669 138 669 273 c 0
 669 408 602 482 429 491 c 1
 429 491 429 56 429 56 c 1
EndSplineSet
Validated: 1
EndChar

StartChar: afii10088
Encoding: 230 1094 286
GlifName: afii10088
Width: 622
Flags: W
HStem: 0 67<137 450 524 535> 527 20G<63 137 450 524>
VStem: 63 74<67 547> 450 74<67 547> 562 51<-126 -93.3333>
AnchorPoint: "Top" 293 623 basechar 0
LayerCount: 2
Fore
SplineSet
524 547 m 5
 524 547 524 67 524 67 c 5
 524 67 613 67 613 67 c 5
 613 67 613 -126 613 -126 c 5
 613 -126 562 -126 562 -126 c 5
 562 -126 535 0 535 0 c 5
 535 0 63 0 63 0 c 5
 63 0 63 547 63 547 c 9
 63 547 137 547 137 547 c 25
 137 547 137 67 137 67 c 25
 137 67 450 67 450 67 c 25
 450 67 450 547 450 547 c 25
 450 547 524 547 524 547 c 5
EndSplineSet
Validated: 1
Substitution2: "'locl' Localized Forms in Cyrillic lookup 8-1" uni0446.loclBGR
Substitution2: "'locl' Localized Forms in Cyrillic lookup 7-1" uni0446.loclBGR
EndChar

StartChar: afii10089
Encoding: 231 1095 287
GlifName: afii10089
Width: 523
VWidth: 0
Flags: W
HStem: 0 21G<386 460> 208 67<150.59 383.8> 527 20G<45 119 386 460>
VStem: 45 74<304.788 547> 386 74<0 218 281.172 547>
AnchorPoint: "Top" 250 623 basechar 0
LayerCount: 2
Fore
SplineSet
460 547 m 25
 460 547 460 0 460 0 c 25
 460 0 386 0 386 0 c 25
 386 0 386 218 386 218 c 17
 336 212 279 208 214 208 c 3
 180 208 134 220 108 239 c 0
 65 269 45 318 45 381 c 2
 45 381 45 547 45 547 c 1
 45 547 119 547 119 547 c 1
 119 547 119 381 119 381 c 2
 119 297 151 275 273 275 c 3
 314 275 342 278 386 284 c 9
 386 284 386 547 386 547 c 25
 386 547 460 547 460 547 c 25
EndSplineSet
Validated: 1
EndChar

StartChar: afii10090
Encoding: 232 1096 288
GlifName: afii10090
Width: 802
Flags: W
HStem: 0 67<137 364 438 665> 527 20G<63 137 364 438 665 739>
VStem: 63 74<67 547> 364 74<67 547> 665 74<67 547>
CounterMasks: 1 38
AnchorPoint: "Top" 401 623 basechar 0
LayerCount: 2
Fore
SplineSet
739 0 m 1
 739 0 63 0 63 0 c 1
 63 0 63 547 63 547 c 9
 63 547 137 547 137 547 c 25
 137 547 137 67 137 67 c 17
 137 67 364 67 364 67 c 1
 364 67 364 547 364 547 c 1
 364 547 438 547 438 547 c 1
 438 547 438 67 438 67 c 1
 438 67 665 67 665 67 c 9
 665 67 665 547 665 547 c 25
 665 547 739 547 739 547 c 1
 739 547 739 0 739 0 c 1
EndSplineSet
Validated: 1
Substitution2: "'locl' Localized Forms in Cyrillic lookup 8-1" uni0448.loclBGR
Substitution2: "'locl' Localized Forms in Cyrillic lookup 7-1" uni0448.loclBGR
EndChar

StartChar: afii10091
Encoding: 233 1097 289
GlifName: afii10091
Width: 837
Flags: MW
HStem: 0 67<137 364 438 665 739 750> 527 20G<63 137 364 438 665 739>
VStem: 63 74<67 547> 364 74<67 547> 665 74<67 547>
CounterMasks: 1 38
AnchorPoint: "Top" 401 623 basechar 0
LayerCount: 2
Fore
SplineSet
739 547 m 1
 739 547 739 67 739 67 c 1
 739 67 828 67 828 67 c 1
 828 67 828 -126 828 -126 c 1
 828 -126 777 -126 777 -126 c 1
 777 -126 750 0 750 0 c 1
 750 0 63 0 63 0 c 1
 63 0 63 547 63 547 c 9
 63 547 137 547 137 547 c 25
 137 547 137 67 137 67 c 17
 137 67 364 67 364 67 c 1
 364 67 364 547 364 547 c 1
 364 547 438 547 438 547 c 1
 438 547 438 67 438 67 c 1
 438 67 665 67 665 67 c 9
 665 67 665 547 665 547 c 25
 665 547 739 547 739 547 c 1
EndSplineSet
Validated: 1
Substitution2: "'locl' Localized Forms in Cyrillic lookup 8-1" uni0449.loclBGR
Substitution2: "'locl' Localized Forms in Cyrillic lookup 7-1" uni0449.loclBGR
EndChar

StartChar: afii10092
Encoding: 234 1098 290
GlifName: afii10092
Width: 631
VWidth: 0
Flags: W
HStem: 0 67<259 493.539> 261 67<259 493.539> 480 67<12 185>
VStem: 185 74<67 261 328 480> 533 75<102.183 225.817>
AnchorPoint: "Top" 222 623 basechar 0
LayerCount: 2
Fore
SplineSet
420 328 m 2
 535 328 608 258 608 164 c 0
 608 70 535 0 420 0 c 2
 420 0 185 0 185 0 c 1
 185 0 185 480 185 480 c 1
 185 480 12 480 12 480 c 1
 12 480 12 547 12 547 c 1
 12 547 259 547 259 547 c 1
 259 547 259 328 259 328 c 1
 259 328 420 328 420 328 c 2
259 261 m 1
 259 261 259 67 259 67 c 1
 259 67 401 67 401 67 c 2
 491 67 533 101 533 164 c 0
 533 227 491 261 401 261 c 2
 401 261 259 261 259 261 c 1
EndSplineSet
Validated: 1
Substitution2: "'locl' Localized Forms in Cyrillic lookup 8-1" uni044A.loclBGR
Substitution2: "'locl' Localized Forms in Cyrillic lookup 7-1" uni044A.loclBGR
EndChar

StartChar: afii10093
Encoding: 235 1099 291
GlifName: afii10093
Width: 679
VWidth: 0
Flags: W
HStem: 0 67<137 361.539> 261 67<137 361.539> 527 20G<63 137 542 616>
VStem: 63 74<67 261 328 547> 401 75<102.183 225.817> 542 74<0 547>
AnchorPoint: "Top" 340 623 basechar 0
LayerCount: 2
Fore
SplineSet
137 261 m 25
 137 261 137 67 137 67 c 25
 137 67 269 67 269 67 c 18
 359 67 401 101 401 164 c 3
 401 227 359 261 269 261 c 10
 269 261 137 261 137 261 c 25
288 328 m 18
 403 328 476 258 476 164 c 3
 476 70 403 0 288 0 c 10
 288 0 63 0 63 0 c 25
 63 0 63 547 63 547 c 25
 63 547 137 547 137 547 c 25
 137 547 137 328 137 328 c 25
 137 328 288 328 288 328 c 18
616 547 m 25
 616 547 616 0 616 0 c 25
 616 0 542 0 542 0 c 17
 542 0 542 547 542 547 c 1
 542 547 616 547 616 547 c 25
EndSplineSet
Validated: 1
Substitution2: "'locl' Localized Forms in Cyrillic lookup 8-1" uni044B.loclBGR
Substitution2: "'locl' Localized Forms in Cyrillic lookup 7-1" uni044B.loclBGR
EndChar

StartChar: afii10094
Encoding: 236 1100 292
GlifName: afii10094
Width: 509
VWidth: 0
Flags: W
HStem: 0 67<137 371.539> 261 67<137 371.539> 527 20G<63 137>
VStem: 63 74<67 261 328 547> 411 75<102.183 225.817>
AnchorPoint: "Top" 100 623 basechar 0
LayerCount: 2
Fore
SplineSet
137 261 m 29
 137 261 137 67 137 67 c 29
 137 67 279 67 279 67 c 22
 369 67 411 101 411 164 c 7
 411 227 369 261 279 261 c 14
 279 261 137 261 137 261 c 29
298 328 m 22
 413 328 486 258 486 164 c 7
 486 70 413 0 298 0 c 14
 298 0 63 0 63 0 c 29
 63 0 63 547 63 547 c 29
 63 547 137 547 137 547 c 29
 137 547 137 328 137 328 c 29
 137 328 298 328 298 328 c 22
EndSplineSet
Validated: 1
Substitution2: "'locl' Localized Forms in Cyrillic lookup 8-1" uni044C.loclBGR
Substitution2: "'locl' Localized Forms in Cyrillic lookup 7-1" uni044C.loclBGR
EndChar

StartChar: afii10095
Encoding: 237 1101 293
GlifName: afii10095
Width: 644
Flags: W
HStem: -13 68<214.852 400.642> 243 67<199 524> 492 68<215.13 404.163>
VStem: 525 77<174.397 243 310 373.633>
AnchorPoint: "Top" 307 623 basechar 0
LayerCount: 2
Fore
SplineSet
124 155 m 1
 164 95 229 55 307 55 c 0
 420 55 511 136 525 243 c 1
 525 243 199 243 199 243 c 1
 199 243 199 310 199 310 c 1
 199 310 524 310 524 310 c 1
 507 415 419 492 310 492 c 0
 229 492 166 455 124 387 c 1
 124 387 39 387 39 387 c 1
 86 494 185 560 309 560 c 0
 473 560 602 434 602 275 c 0
 602 112 472 -13 304 -13 c 0
 178 -13 90 56 39 155 c 1
 39 155 124 155 124 155 c 1
EndSplineSet
Validated: 1
EndChar

StartChar: afii10096
Encoding: 238 1102 294
GlifName: afii10096
Width: 857
VWidth: 0
Flags: W
HStem: -17 68<428.992 623.129> 0 21G<63 137> 245 67<137 233.896> 496 68<427.95 619.827> 527 20G<63 137>
VStem: 63 74<0 245 312 547> 232 74<177.086 245 312 370.726> 739 76<169.028 369.628>
AnchorPoint: "Top" 474 627 basechar 0
LayerCount: 2
Fore
SplineSet
524 496 m 0xb7
 399 496 306 402 306 275 c 0
 306 144 398 51 528 51 c 0
 651 51 739 143 739 271 c 0
 739 400 648 496 524 496 c 0xb7
524 564 m 0
 692 564 815 441 815 272 c 0
 815 106 694 -17 530 -17 c 0xb7
 366 -17 247 93 232 245 c 1
 232 245 137 245 137 245 c 1
 137 245 137 0 137 0 c 1
 137 0 63 0 63 0 c 1
 63 0 63 547 63 547 c 1
 63 547 137 547 137 547 c 1x6f
 137 547 137 312 137 312 c 1
 137 312 232 312 232 312 c 1
 249 457 370 564 524 564 c 0
EndSplineSet
Validated: 1
Substitution2: "'locl' Localized Forms in Cyrillic lookup 8-1" uni044E.loclBGR
Substitution2: "'locl' Localized Forms in Cyrillic lookup 7-1" uni044E.loclBGR
EndChar

StartChar: afii10097
Encoding: 239 1103 295
GlifName: afii10097
Width: 505
VWidth: 0
Flags: W
HStem: 0 21G<9 106.937 368 442> 221 67<247 368> 480 67<148.461 368>
VStem: 34 75<323.055 445.146> 368 74<0 221 288 480>
AnchorPoint: "Top" 261 623 basechar 0
LayerCount: 2
Back
SplineSet
457 547 m 5
 457 0 l 5
 383 0 l 5
 383 480 l 5
 236 480 l 6
 220 480 108 479 108 363 c 4
 108 302 144 253 236 253 c 6
 311 253 l 5
 129 0 l 5
 44 0 l 5
 193 195 l 5
 99 202 34 272 34 367 c 4
 34 460 105 547 236 547 c 6
 457 547 l 5
EndSplineSet
Fore
SplineSet
368 288 m 1
 368 288 368 480 368 480 c 1
 368 480 241 480 241 480 c 2
 151 480 109 446 109 384 c 0
 109 322 151 288 241 288 c 2
 241 288 368 288 368 288 c 1
247 221 m 1
 247 221 93 0 93 0 c 1
 93 0 9 0 9 0 c 1
 9 0 167 227 167 227 c 1
 84 246 34 307 34 384 c 0
 34 477 107 547 222 547 c 2
 222 547 442 547 442 547 c 1
 442 547 442 0 442 0 c 1
 442 0 368 0 368 0 c 1
 368 0 368 221 368 221 c 1
 368 221 247 221 247 221 c 1
EndSplineSet
Validated: 1
Substitution2: "'locl' Localized Forms in Cyrillic lookup 8-1" uni044F.loclBGR
EndChar

StartChar: afii61352
Encoding: 240 8470 296
GlifName: afii61352
Width: 1053
Flags: W
HStem: 0 21G<76 150 548 622> 316 67<683 988> 442 63<779.585 891.475> 682 63<779.464 889.638>
VStem: 76 74<0 640> 548 74<136 739> 683 67<536.807 652.758> 921 67<534.453 651.474>
LayerCount: 2
Fore
SplineSet
837 745 m 0
 919 745 988 675 988 594 c 0
 988 511 919 442 835 442 c 0
 752 442 683 510 683 593 c 0
 683 677 752 745 837 745 c 0
834 682 m 0
 786 682 750 643 750 594 c 0
 750 545 788 505 836 505 c 0
 884 505 921 544 921 593 c 0
 921 642 882 682 834 682 c 0
683 383 m 1
 683 383 988 383 988 383 c 1
 988 383 988 316 988 316 c 1
 988 316 683 316 683 316 c 1
 683 316 683 383 683 383 c 1
76 0 m 1
 76 0 76 739 76 739 c 1
 76 739 176 739 176 739 c 1
 176 739 548 136 548 136 c 1
 548 136 548 739 548 739 c 1
 548 739 622 739 622 739 c 1
 622 739 622 0 622 0 c 1
 622 0 548 0 548 0 c 1
 548 0 150 640 150 640 c 1
 150 640 150 0 150 0 c 1
 150 0 76 0 76 0 c 1
EndSplineSet
Validated: 1
EndChar

StartChar: uni20BD
Encoding: 388 8381 297
GlifName: uni20B_D_
Width: 554
Flags: W
HStem: 0 21G<104 178> 170 67<37 104 178 377> 299 67<37 104 178 392.5> 672 67<178 391.613>
VStem: 104 74<0 170 237 299 366 672> 448 75<423.173 612.462>
LayerCount: 2
Fore
SplineSet
178 366 m 1
 178 366 281 366 281 366 c 2
 336 366 372 373 398 391 c 0
 430 412 448 458 448 516 c 0
 448 588 423 639 380 656 c 0
 353 667 314 672 255 672 c 2
 255 672 178 672 178 672 c 1
 178 672 178 366 178 366 c 1
104 237 m 1
 104 237 104 299 104 299 c 1
 104 299 37 299 37 299 c 1
 37 299 37 366 37 366 c 1
 37 366 104 366 104 366 c 1
 104 366 104 739 104 739 c 1
 104 739 279 739 279 739 c 2
 360 739 400 728 437 700 c 0
 484 667 523 600 523 515 c 0
 523 441 501 380 460 345 c 0
 422 312 375 299 289 299 c 2
 289 299 178 299 178 299 c 1
 178 299 178 237 178 237 c 1
 178 237 377 237 377 237 c 1
 377 237 377 170 377 170 c 1
 377 170 178 170 178 170 c 1
 178 170 178 0 178 0 c 1
 178 0 104 0 104 0 c 1
 104 0 104 170 104 170 c 1
 104 170 37 170 37 170 c 1
 37 170 37 237 37 237 c 1
 37 237 104 237 104 237 c 1
EndSplineSet
Validated: 1
EndChar

StartChar: Euro
Encoding: 389 8364 298
GlifName: E_uro
Width: 870
Flags: W
HStem: -13 68<432.376 656.139> 263 67<76 161 252 669> 397 67<76 160 247 728> 551 21G<782 796> 684 68<432.515 662.497>
VStem: 159 75<330 397> 170 77<464 516.332>
LayerCount: 2
Fore
SplineSet
783 67 m 1xfc
 719 14 640 -13 547 -13 c 0
 363 -13 217 100 172 263 c 1
 172 263 46 263 46 263 c 1
 46 263 76 330 76 330 c 1
 76 330 161 330 161 330 c 1
 159 342 159 354 159 367 c 0xfc
 159 377 159 387 160 397 c 1
 160 397 46 397 46 397 c 1
 46 397 76 464 76 464 c 1
 76 464 170 464 170 464 c 1
 210 634 355 752 542 752 c 0
 659 752 762 706 830 628 c 1
 830 628 796 551 796 551 c 1
 768 594 748 616 714 637 c 0
 665 668 608 684 545 684 c 0
 401 684 285 594 247 464 c 1xfa
 247 464 758 464 758 464 c 1
 758 464 728 397 728 397 c 1
 728 397 235 397 235 397 c 1
 234 388 234 379 234 370 c 0
 234 356 235 343 236 330 c 1
 236 330 699 330 699 330 c 1
 699 330 669 263 669 263 c 1
 669 263 252 263 252 263 c 1
 296 142 411 55 546 55 c 0
 647 55 729 105 783 169 c 1
 783 169 783 67 783 67 c 1xfc
EndSplineSet
Validated: 1
EndChar

StartChar: figuredash
Encoding: 406 8210 315
GlifName: figuredash
Width: 554
Flags: W
HStem: 233 63<31 524>
LayerCount: 2
Fore
SplineSet
31 296 m 1
 31 296 524 296 524 296 c 1
 524 296 524 233 524 233 c 1
 524 233 31 233 31 233 c 1
 31 233 31 296 31 296 c 1
EndSplineSet
Validated: 1
EndChar

StartChar: afii10058
Encoding: 169 1033 345
GlifName: afii10058
Width: 1057
Flags: W
HStem: 0 67<617 889.186> 358 67<617 890.671> 719 20G<522 617>
VStem: 543 74<67 358 425 644> 957 75<128.99 296.464>
AnchorPoint: "Top" 570 805 basechar 0
LayerCount: 2
Fore
SplineSet
617 358 m 1
 617 358 617 67 617 67 c 1
 617 67 722 67 722 67 c 2
 795 67 841 72 874 82 c 0
 927 98 957 147 957 215 c 0
 957 270 935 314 896 334 c 0
 865 351 822 358 754 358 c 2
 754 358 617 358 617 358 c 1
543 644 m 1
 543 644 99 0 99 0 c 1
 99 0 11 0 11 0 c 1
 11 0 522 739 522 739 c 1
 522 739 617 739 617 739 c 1
 617 739 617 425 617 425 c 1
 617 425 759 425 759 425 c 2
 859 425 913 413 958 381 c 0
 1006 347 1032 287 1032 216 c 0
 1032 134 1000 70 944 38 c 0
 898 11 842 0 747 0 c 2
 747 0 543 0 543 0 c 1
 543 0 543 644 543 644 c 1
EndSplineSet
Validated: 1
EndChar

StartChar: afii10059
Encoding: 170 1034 346
GlifName: afii10059
Width: 1017
Flags: W
HStem: 0 67<577 849.186> 358 67<150 503 577 850.671> 719 20G<76 150 503 577>
VStem: 76 74<0 358 425 739> 503 74<67 358 425 739> 917 75<128.99 296.464>
AnchorPoint: "Top" 510 805 basechar 0
LayerCount: 2
Fore
SplineSet
577 358 m 1
 577 358 577 67 577 67 c 1
 682 67 l 2
 755 67 801 72 834 82 c 0
 887 98 917 147 917 215 c 0
 917 270 895 314 856 334 c 0
 825 351 782 358 714 358 c 2
 577 358 l 1
503 358 m 1
 503 358 150 358 150 358 c 1
 150 358 150 0 150 0 c 1
 150 0 76 0 76 0 c 1
 76 0 76 739 76 739 c 1
 76 739 150 739 150 739 c 1
 150 739 150 425 150 425 c 1
 150 425 503 425 503 425 c 1
 503 425 503 739 503 739 c 1
 503 739 577 739 577 739 c 1
 577 739 577 425 577 425 c 1
 719 425 l 2
 819 425 873 413 918 381 c 0
 966 347 992 287 992 216 c 0
 992 134 960 70 904 38 c 0
 858 11 802 0 707 0 c 2
 707 0 503 0 503 0 c 1
 503 0 503 358 503 358 c 1
EndSplineSet
Validated: 1
EndChar

StartChar: afii10106
Encoding: 249 1113 347
GlifName: afii10106
Width: 850
Flags: W
HStem: 0 67<478 712.539> 261 67<478 712.539> 527 20G<383 478>
VStem: 404 74<67 261 328 452> 752 75<102.183 225.817>
AnchorPoint: "Top" 437 623 basechar 0
LayerCount: 2
Fore
SplineSet
639 328 m 6
 754 328 827 258 827 164 c 4
 827 70 754 0 639 0 c 6
 639 0 404 0 404 0 c 5
 404 0 404 452 404 452 c 5
 404 452 92 0 92 0 c 5
 92 0 5 0 5 0 c 5
 5 0 383 547 383 547 c 5
 383 547 478 547 478 547 c 5
 478 547 478 328 478 328 c 5
 478 328 639 328 639 328 c 6
478 261 m 5
 478 261 478 67 478 67 c 5
 478 67 620 67 620 67 c 6
 710 67 752 101 752 164 c 4
 752 227 710 261 620 261 c 6
 620 261 478 261 478 261 c 5
EndSplineSet
Validated: 1
EndChar

StartChar: afii10107
Encoding: 250 1114 348
GlifName: afii10107
Width: 881
Flags: W
HStem: 0 67<509 743.539> 261 67<137 435 509 743.539> 527 20G<63 137 435 509>
VStem: 63 74<0 261 328 547> 435 74<67 261 328 547> 783 75<102.183 225.817>
AnchorPoint: "Top" 460 623 basechar 0
LayerCount: 2
Fore
SplineSet
670 328 m 6
 785 328 858 258 858 164 c 4
 858 70 785 0 670 0 c 6
 670 0 435 0 435 0 c 5
 435 0 435 261 435 261 c 5
 435 261 137 261 137 261 c 5
 137 261 137 0 137 0 c 5
 137 0 63 0 63 0 c 5
 63 0 63 547 63 547 c 5
 63 547 137 547 137 547 c 5
 137 547 137 328 137 328 c 5
 137 328 435 328 435 328 c 5
 435 328 435 547 435 547 c 5
 435 547 509 547 509 547 c 5
 509 547 509 328 509 328 c 5
 509 328 670 328 670 328 c 6
509 261 m 5
 509 261 509 67 509 67 c 5
 509 67 651 67 651 67 c 6
 741 67 783 101 783 164 c 4
 783 227 741 261 651 261 c 6
 651 261 509 261 509 261 c 5
EndSplineSet
Validated: 1
EndChar

StartChar: afii10053
Encoding: 164 1028 349
GlifName: afii10053
Width: 813
Flags: MW
HStem: -13 68<322.874 544.158> 343 67<121 589> 684 68<317.389 549.765>
VStem: 44 76<256.636 343 410 484.595>
AnchorPoint: "Top" 428 805 basechar 0
LayerCount: 2
Fore
SplineSet
688 194 m 5
 688 194 770 194 770 194 c 5
 696 57 582 -13 432 -13 c 4
 211 -13 44 151 44 367 c 4
 44 588 207 752 427 752 c 4
 580 752 710 674 767 547 c 5
 767 547 684 547 684 547 c 5
 631 631 552 684 430 684 c 4
 267 684 140 568 121 410 c 5
 121 410 589 410 589 410 c 5
 589 410 589 343 589 343 c 5
 589 343 120 343 120 343 c 5
 134 182 268 55 431 55 c 4
 550 55 628 115 688 194 c 5
EndSplineSet
Validated: 1
EndChar

StartChar: afii10101
Encoding: 244 1108 350
GlifName: afii10101
Width: 644
Flags: W
HStem: -13 68<243.358 429.148> 243 67<120 445> 492 68<239.837 428.87>
VStem: 42 77<174.397 243 310 373.633>
AnchorPoint: "Top" 335 623 basechar 0
LayerCount: 2
Fore
SplineSet
520 155 m 5
 520 155 605 155 605 155 c 5
 554 56 466 -13 340 -13 c 4
 172 -13 42 112 42 275 c 4
 42 434 171 560 335 560 c 4
 459 560 558 494 605 387 c 5
 605 387 520 387 520 387 c 5
 478 455 415 492 334 492 c 4
 225 492 137 415 120 310 c 5
 120 310 445 310 445 310 c 5
 445 310 445 243 445 243 c 5
 445 243 119 243 119 243 c 5
 133 136 224 55 337 55 c 4
 415 55 480 95 520 155 c 5
EndSplineSet
Validated: 1
EndChar

StartChar: afii10145
Encoding: 175 1039 351
GlifName: afii10145
Width: 668
Flags: W
HStem: 0 67<150 293 375 518> 719 20G<76 150 518 592>
VStem: 76 74<67 739> 308 52<-136 -72.5333> 518 74<67 739>
CounterMasks: 1 38
AnchorPoint: "Top" 334 805 basechar 0
LayerCount: 2
Fore
SplineSet
518 739 m 17
 518 739 592 739 592 739 c 1
 592 739 592 0 592 0 c 1
 592 0 375 0 375 0 c 1
 375 0 360 -136 360 -136 c 1
 360 -136 308 -136 308 -136 c 1
 308 -136 293 0 293 0 c 9
 293 0 76 0 76 0 c 1
 76 0 76 739 76 739 c 1
 76 739 150 739 150 739 c 1
 150 739 150 67 150 67 c 25
 150 67 518 67 518 67 c 25
 518 67 518 739 518 739 c 17
EndSplineSet
Validated: 1
EndChar

